  0
SECTION
  2
HEADER
  9
$ACADVER
  1
AC1021
  9
$ACADMAINTVER
 70
    25
  9
$DWGCODEPAGE
  3
ANSI_1252
  9
$INSBASE
 10
0.0
 20
0.0
 30
0.0
  9
$EXTMIN
 10
-10.06095
 20
-11.71308
 30
0.0
  9
$EXTMAX
 10
10.06095
 20
11.71284
 30
0.0
  9
$LIMMIN
 10
0.0
 20
0.0
  9
$LIMMAX
 10
12.0
 20
9.0
  9
$ORTHOMODE
 70
     0
  9
$REGENMODE
 70
     1
  9
$FILLMODE
 70
     1
  9
$QTEXTMODE
 70
     0
  9
$MIRRTEXT
 70
     1
  9
$LTSCALE
 40
1.0
  9
$ATTMODE
 70
     1
  9
$TEXTSIZE
 40
0.2
  9
$TRACEWID
 40
0.05
  9
$TEXTSTYLE
  7
Standard
  9
$CLAYER
  8
0
  9
$CELTYPE
  6
ByLayer
  9
$CECOLOR
 62
   256
  9
$CELTSCALE
 40
1.0
  9
$DISPSILH
 70
     0
  9
$DIMSCALE
 40
1.0
  9
$DIMASZ
 40
0.18
  9
$DIMEXO
 40
0.0625
  9
$DIMDLI
 40
0.38
  9
$DIMRND
 40
0.0
  9
$DIMDLE
 40
0.0
  9
$DIMEXE
 40
0.18
  9
$DIMTP
 40
0.0
  9
$DIMTM
 40
0.0
  9
$DIMTXT
 40
0.18
  9
$DIMCEN
 40
0.09
  9
$DIMTSZ
 40
0.0
  9
$DIMTOL
 70
     0
  9
$DIMLIM
 70
     0
  9
$DIMTIH
 70
     1
  9
$DIMTOH
 70
     1
  9
$DIMSE1
 70
     0
  9
$DIMSE2
 70
     0
  9
$DIMTAD
 70
     0
  9
$DIMZIN
 70
     0
  9
$DIMBLK
  1

  9
$DIMASO
 70
     1
  9
$DIMSHO
 70
     1
  9
$DIMPOST
  1

  9
$DIMAPOST
  1

  9
$DIMALT
 70
     0
  9
$DIMALTD
 70
     2
  9
$DIMALTF
 40
25.4
  9
$DIMLFAC
 40
1.0
  9
$DIMTOFL
 70
     0
  9
$DIMTVP
 40
0.0
  9
$DIMTIX
 70
     0
  9
$DIMSOXD
 70
     0
  9
$DIMSAH
 70
     0
  9
$DIMBLK1
  1

  9
$DIMBLK2
  1

  9
$DIMSTYLE
  2
Standard
  9
$DIMCLRD
 70
     0
  9
$DIMCLRE
 70
     0
  9
$DIMCLRT
 70
     0
  9
$DIMTFAC
 40
1.0
  9
$DIMGAP
 40
0.09
  9
$DIMJUST
 70
     0
  9
$DIMSD1
 70
     0
  9
$DIMSD2
 70
     0
  9
$DIMTOLJ
 70
     1
  9
$DIMTZIN
 70
     0
  9
$DIMALTZ
 70
     0
  9
$DIMALTTZ
 70
     0
  9
$DIMUPT
 70
     0
  9
$DIMDEC
 70
     4
  9
$DIMTDEC
 70
     4
  9
$DIMALTU
 70
     2
  9
$DIMALTTD
 70
     2
  9
$DIMTXSTY
  7
Standard
  9
$DIMAUNIT
 70
     0
  9
$DIMADEC
 70
     0
  9
$DIMALTRND
 40
0.0
  9
$DIMAZIN
 70
     0
  9
$DIMDSEP
 70
    46
  9
$DIMATFIT
 70
     3
  9
$DIMFRAC
 70
     0
  9
$DIMLDRBLK
  1

  9
$DIMLUNIT
 70
     2
  9
$DIMLWD
 70
    -2
  9
$DIMLWE
 70
    -2
  9
$DIMTMOVE
 70
     0
  9
$DIMFXL
 40
1.0
  9
$DIMFXLON
 70
     0
  9
$DIMJOGANG
 40
0.7853981633974483
  9
$DIMTFILL
 70
     0
  9
$DIMTFILLCLR
 70
     0
  9
$DIMARCSYM
 70
     0
  9
$DIMLTYPE
  6

  9
$DIMLTEX1
  6

  9
$DIMLTEX2
  6

  9
$LUNITS
 70
     2
  9
$LUPREC
 70
     4
  9
$SKETCHINC
 40
0.1
  9
$FILLETRAD
 40
0.5
  9
$AUNITS
 70
     0
  9
$AUPREC
 70
     0
  9
$MENU
  1
.
  9
$ELEVATION
 40
0.0
  9
$PELEVATION
 40
0.0
  9
$THICKNESS
 40
0.0
  9
$LIMCHECK
 70
     0
  9
$CHAMFERA
 40
0.5
  9
$CHAMFERB
 40
0.5
  9
$CHAMFERC
 40
1.0
  9
$CHAMFERD
 40
0.0
  9
$SKPOLY
 70
     0
  9
$TDCREATE
 40
2457218.68306632
  9
$TDUCREATE
 40
2457218.641399653
  9
$TDUPDATE
 40
2457218.683066331
  9
$TDUUPDATE
 40
2457218.641399664
  9
$TDINDWG
 40
0.0000000116
  9
$TDUSRTIMER
 40
0.0000000116
  9
$USRTIMER
 70
     1
  9
$ANGBASE
 50
0.0
  9
$ANGDIR
 70
     0
  9
$PDMODE
 70
     0
  9
$PDSIZE
 40
0.0
  9
$PLINEWID
 40
0.0
  9
$SPLFRAME
 70
     0
  9
$SPLINETYPE
 70
     6
  9
$SPLINESEGS
 70
     8
  9
$HANDSEED
  5
9E
  9
$SURFTAB1
 70
     6
  9
$SURFTAB2
 70
     6
  9
$SURFTYPE
 70
     6
  9
$SURFU
 70
     6
  9
$SURFV
 70
     6
  9
$UCSBASE
  2

  9
$UCSNAME
  2

  9
$UCSORG
 10
0.0
 20
0.0
 30
0.0
  9
$UCSXDIR
 10
1.0
 20
0.0
 30
0.0
  9
$UCSYDIR
 10
0.0
 20
1.0
 30
0.0
  9
$UCSORTHOREF
  2

  9
$UCSORTHOVIEW
 70
     0
  9
$UCSORGTOP
 10
0.0
 20
0.0
 30
0.0
  9
$UCSORGBOTTOM
 10
0.0
 20
0.0
 30
0.0
  9
$UCSORGLEFT
 10
0.0
 20
0.0
 30
0.0
  9
$UCSORGRIGHT
 10
0.0
 20
0.0
 30
0.0
  9
$UCSORGFRONT
 10
0.0
 20
0.0
 30
0.0
  9
$UCSORGBACK
 10
0.0
 20
0.0
 30
0.0
  9
$PUCSBASE
  2

  9
$PUCSNAME
  2

  9
$PUCSORG
 10
0.0
 20
0.0
 30
0.0
  9
$PUCSXDIR
 10
1.0
 20
0.0
 30
0.0
  9
$PUCSYDIR
 10
0.0
 20
1.0
 30
0.0
  9
$PUCSORTHOREF
  2

  9
$PUCSORTHOVIEW
 70
     0
  9
$PUCSORGTOP
 10
0.0
 20
0.0
 30
0.0
  9
$PUCSORGBOTTOM
 10
0.0
 20
0.0
 30
0.0
  9
$PUCSORGLEFT
 10
0.0
 20
0.0
 30
0.0
  9
$PUCSORGRIGHT
 10
0.0
 20
0.0
 30
0.0
  9
$PUCSORGFRONT
 10
0.0
 20
0.0
 30
0.0
  9
$PUCSORGBACK
 10
0.0
 20
0.0
 30
0.0
  9
$USERI1
 70
     0
  9
$USERI2
 70
     0
  9
$USERI3
 70
     0
  9
$USERI4
 70
     0
  9
$USERI5
 70
     0
  9
$USERR1
 40
0.0
  9
$USERR2
 40
0.0
  9
$USERR3
 40
0.0
  9
$USERR4
 40
0.0
  9
$USERR5
 40
0.0
  9
$WORLDVIEW
 70
     1
  9
$SHADEDGE
 70
     3
  9
$SHADEDIF
 70
    70
  9
$TILEMODE
 70
     1
  9
$MAXACTVP
 70
    64
  9
$PINSBASE
 10
0.0
 20
0.0
 30
0.0
  9
$PLIMCHECK
 70
     0
  9
$PEXTMIN
 10
1.000000000000000E+20
 20
1.000000000000000E+20
 30
1.000000000000000E+20
  9
$PEXTMAX
 10
-1.000000000000000E+20
 20
-1.000000000000000E+20
 30
-1.000000000000000E+20
  9
$PLIMMIN
 10
0.0
 20
0.0
  9
$PLIMMAX
 10
12.0
 20
9.0
  9
$UNITMODE
 70
     0
  9
$VISRETAIN
 70
     1
  9
$PLINEGEN
 70
     0
  9
$PSLTSCALE
 70
     1
  9
$TREEDEPTH
 70
  3020
  9
$CMLSTYLE
  2
Standard
  9
$CMLJUST
 70
     0
  9
$CMLSCALE
 40
1.0
  9
$PROXYGRAPHICS
 70
     1
  9
$MEASUREMENT
 70
     0
  9
$CELWEIGHT
370
    -1
  9
$ENDCAPS
280
     0
  9
$JOINSTYLE
280
     0
  9
$LWDISPLAY
290
     0
  9
$INSUNITS
 70
     5
  9
$HYPERLINKBASE
  1

  9
$STYLESHEET
  1

  9
$XEDIT
290
     1
  9
$CEPSNTYPE
380
     0
  9
$PSTYLEMODE
290
     1
  9
$FINGERPRINTGUID
  2
{25D3B42C-AF71-4D8D-88EE-0223B5D1FC31}
  9
$VERSIONGUID
  2
{FAEB1C32-E019-11D5-929B-00C0DF256EC4}
  9
$EXTNAMES
290
     1
  9
$PSVPSCALE
 40
0.0
  9
$OLESTARTUP
290
     0
  9
$SORTENTS
280
   127
  9
$INDEXCTL
280
     0
  9
$HIDETEXT
280
     1
  9
$XCLIPFRAME
290
     0
  9
$HALOGAP
280
     0
  9
$OBSCOLOR
 70
   257
  9
$OBSLTYPE
280
     0
  9
$INTERSECTIONDISPLAY
280
     0
  9
$INTERSECTIONCOLOR
 70
   257
  9
$DIMASSOC
280
     2
  9
$PROJECTNAME
  1

  9
$CAMERADISPLAY
290
     0
  9
$LENSLENGTH
 40
50.0
  9
$CAMERAHEIGHT
 40
0.0
  9
$STEPSPERSEC
 40
2.0
  9
$STEPSIZE
 40
6.0
  9
$3DDWFPREC
 40
2.0
  9
$PSOLWIDTH
 40
0.25
  9
$PSOLHEIGHT
 40
4.0
  9
$LOFTANG1
 40
1.570796326794897
  9
$LOFTANG2
 40
1.570796326794897
  9
$LOFTMAG1
 40
0.0
  9
$LOFTMAG2
 40
0.0
  9
$LOFTPARAM
 70
     7
  9
$LOFTNORMALS
280
     1
  9
$LATITUDE
 40
37.795
  9
$LONGITUDE
 40
-122.394
  9
$NORTHDIRECTION
 40
0.0
  9
$TIMEZONE
 70
 -8000
  9
$LIGHTGLYPHDISPLAY
280
     1
  9
$TILEMODELIGHTSYNCH
280
     1
  9
$SOLIDHIST
280
     1
  9
$SHOWHIST
280
     1
  9
$DWFFRAME
280
     2
  9
$DGNFRAME
280
     2
  9
$REALWORLDSCALE
290
     1
  9
$INTERFERECOLOR
 62
   256
  9
$CSHADOW
280
     0
  9
$SHADOWPLANELOCATION
 40
0.0
  0
ENDSEC
  0
SECTION
  2
CLASSES
  0
CLASS
  1
ACDBDICTIONARYWDFLT
  2
AcDbDictionaryWithDefault
  3
ObjectDBX Classes
 90
        0
 91
        3
280
     0
281
     0
  0
CLASS
  1
VISUALSTYLE
  2
AcDbVisualStyle
  3
ObjectDBX Classes
 90
     4095
 91
        3
280
     0
281
     0
  0
CLASS
  1
SCALE
  2
AcDbScale
  3
ObjectDBX Classes
 90
     1153
 91
        3
280
     0
281
     0
  0
ENDSEC
  0
SECTION
  2
TABLES
  0
TABLE
  2
VPORT
  5
8
330
0
100
AcDbSymbolTable
 70
     1
  0
VPORT
  5
29
330
8
100
AcDbSymbolTableRecord
100
AcDbViewportTableRecord
  2
*Active
 70
     0
 10
0.0
 20
0.0
 11
1.0
 21
1.0
 12
10.42990654205607
 22
4.5
 13
0.0
 23
0.0
 14
0.5
 24
0.5
 15
0.5
 25
0.5
 16
0.0
 26
0.0
 36
1.0
 17
0.0
 27
0.0
 37
0.0
 40
9.0
 41
1.972972972850329
 42
50.0
 43
0.0
 44
0.0
 50
0.0
 51
0.0
 71
     0
 72
   100
 73
     1
 74
     3
 75
     0
 76
     0
 77
     0
 78
     0
281
     0
 65
     1
110
0.0
120
0.0
130
0.0
111
1.0
121
0.0
131
0.0
112
0.0
122
1.0
132
0.0
 79
     0
146
0.0
 60
     3
 61
     5
292
     1
282
     1
141
0.0
142
0.0
 63
   256
  0
ENDTAB
  0
TABLE
  2
LTYPE
  5
5
330
0
100
AcDbSymbolTable
 70
     1
  0
LTYPE
  5
14
330
5
100
AcDbSymbolTableRecord
100
AcDbLinetypeTableRecord
  2
ByBlock
 70
     0
  3

 72
    65
 73
     0
 40
0.0
  0
LTYPE
  5
15
330
5
100
AcDbSymbolTableRecord
100
AcDbLinetypeTableRecord
  2
ByLayer
 70
     0
  3

 72
    65
 73
     0
 40
0.0
  0
LTYPE
  5
16
330
5
100
AcDbSymbolTableRecord
100
AcDbLinetypeTableRecord
  2
Continuous
 70
     0
  3
Solid line
 72
    65
 73
     0
 40
0.0
  0
ENDTAB
  0
TABLE
  2
LAYER
  5
2
330
0
100
AcDbSymbolTable
 70
     2
  0
LAYER
  5
10
330
2
100
AcDbSymbolTableRecord
100
AcDbLayerTableRecord
  2
0
 70
     0
 62
     7
  6
Continuous
370
    -3
390
F
347
0
  0
LAYER
  5
5E
330
2
100
AcDbSymbolTableRecord
100
AcDbLayerTableRecord
  2
Layer 1
 70
     0
 62
     7
  6
Continuous
370
    -3
390
F
347
0
  0
ENDTAB
  0
TABLE
  2
STYLE
  5
3
330
0
100
AcDbSymbolTable
 70
     1
  0
STYLE
  5
11
330
3
100
AcDbSymbolTableRecord
100
AcDbTextStyleTableRecord
  2
Standard
 70
     0
 40
0.0
 41
1.0
 50
0.0
 71
     0
 42
0.2
  3
txt
  4

  0
ENDTAB
  0
TABLE
  2
VIEW
  5
6
330
0
100
AcDbSymbolTable
 70
     0
  0
ENDTAB
  0
TABLE
  2
UCS
  5
7
330
0
100
AcDbSymbolTable
 70
     0
  0
ENDTAB
  0
TABLE
  2
APPID
  5
9
330
0
100
AcDbSymbolTable
 70
     2
  0
APPID
  5
12
330
9
100
AcDbSymbolTableRecord
100
AcDbRegAppTableRecord
  2
ACAD
 70
     0
  0
APPID
  5
5D
330
9
100
AcDbSymbolTableRecord
100
AcDbRegAppTableRecord
  2
ODA
 70
     0
  0
ENDTAB
  0
TABLE
  2
DIMSTYLE
  5
A
330
0
100
AcDbSymbolTable
 70
     1
100
AcDbDimStyleTable
  0
DIMSTYLE
105
27
330
A
100
AcDbSymbolTableRecord
100
AcDbDimStyleTableRecord
  2
Standard
 70
     0
340
11
  0
ENDTAB
  0
TABLE
  2
BLOCK_RECORD
  5
1
330
0
100
AcDbSymbolTable
 70
     1
  0
BLOCK_RECORD
  5
1F
330
1
100
AcDbSymbolTableRecord
100
AcDbBlockTableRecord
  2
*Model_Space
340
22
 70
     0
280
     1
281
     0
  0
BLOCK_RECORD
  5
1B
330
1
100
AcDbSymbolTableRecord
100
AcDbBlockTableRecord
  2
*Paper_Space
340
1E
 70
     0
280
     1
281
     0
  0
BLOCK_RECORD
  5
23
330
1
100
AcDbSymbolTableRecord
100
AcDbBlockTableRecord
  2
*Paper_Space0
340
26
 70
     0
280
     1
281
     0
  0
ENDTAB
  0
ENDSEC
  0
SECTION
  2
BLOCKS
  0
BLOCK
  5
20
330
1F
100
AcDbEntity
  8
0
100
AcDbBlockBegin
  2
*Model_Space
 70
     0
 10
0.0
 20
0.0
 30
0.0
  3
*Model_Space
  1

  0
ENDBLK
  5
21
330
1F
100
AcDbEntity
  8
0
100
AcDbBlockEnd
  0
BLOCK
  5
1C
330
1B
100
AcDbEntity
 67
     1
  8
0
100
AcDbBlockBegin
  2
*Paper_Space
 70
     0
 10
0.0
 20
0.0
 30
0.0
  3
*Paper_Space
  1

  0
ENDBLK
  5
1D
330
1B
100
AcDbEntity
 67
     1
  8
0
100
AcDbBlockEnd
  0
BLOCK
  5
24
330
23
100
AcDbEntity
  8
0
100
AcDbBlockBegin
  2
*Paper_Space0
 70
     0
 10
0.0
 20
0.0
 30
0.0
  3
*Paper_Space0
  1

  0
ENDBLK
  5
25
330
23
100
AcDbEntity
  8
0
100
AcDbBlockEnd
  0
ENDSEC
  0
SECTION
  2
ENTITIES
  0
SPLINE
  5
5F
330
1F
100
AcDbEntity
  8
Layer 1
 62
   250
100
AcDbSpline
210
0.0
220
0.0
230
1.0
 70
    11
 71
     3
 72
    92
 73
    88
 74
     0
 42
0.0000000001
 43
0.0000000001
 40
0.0
 40
0.0
 40
0.0
 40
0.0
 40
0.0454545454545455
 40
0.0454545454545455
 40
0.0454545454545455
 40
0.0454545454545455
 40
0.0909090909090909
 40
0.0909090909090909
 40
0.0909090909090909
 40
0.0909090909090909
 40
0.1363636363636364
 40
0.1363636363636364
 40
0.1363636363636364
 40
0.1363636363636364
 40
0.1818181818181818
 40
0.1818181818181818
 40
0.1818181818181818
 40
0.1818181818181818
 40
0.2272727272727273
 40
0.2272727272727273
 40
0.2272727272727273
 40
0.2272727272727273
 40
0.2727272727272728
 40
0.2727272727272728
 40
0.2727272727272728
 40
0.2727272727272728
 40
0.3181818181818182
 40
0.3181818181818182
 40
0.3181818181818182
 40
0.3181818181818182
 40
0.3636363636363637
 40
0.3636363636363637
 40
0.3636363636363637
 40
0.3636363636363637
 40
0.4090909090909092
 40
0.4090909090909092
 40
0.4090909090909092
 40
0.4090909090909092
 40
0.4545454545454546
 40
0.4545454545454546
 40
0.4545454545454546
 40
0.4545454545454546
 40
0.5000000000000001
 40
0.5000000000000001
 40
0.5000000000000001
 40
0.5000000000000001
 40
0.5454545454545455
 40
0.5454545454545455
 40
0.5454545454545455
 40
0.5454545454545455
 40
0.5909090909090909
 40
0.5909090909090909
 40
0.5909090909090909
 40
0.5909090909090909
 40
0.6363636363636364
 40
0.6363636363636364
 40
0.6363636363636364
 40
0.6363636363636364
 40
0.6818181818181818
 40
0.6818181818181818
 40
0.6818181818181818
 40
0.6818181818181818
 40
0.7272727272727272
 40
0.7272727272727272
 40
0.7272727272727272
 40
0.7272727272727272
 40
0.7727272727272726
 40
0.7727272727272726
 40
0.7727272727272726
 40
0.7727272727272726
 40
0.818181818181818
 40
0.818181818181818
 40
0.818181818181818
 40
0.818181818181818
 40
0.8636363636363634
 40
0.8636363636363634
 40
0.8636363636363634
 40
0.8636363636363634
 40
0.9090909090909088
 40
0.9090909090909088
 40
0.9090909090909088
 40
0.9090909090909088
 40
0.9545454545454543
 40
0.9545454545454543
 40
0.9545454545454543
 40
0.9545454545454543
 40
1.0
 40
1.0
 40
1.0
 40
1.0
 10
-7.43786
 20
-0.66359
 30
0.0
 10
-7.46351
 20
-0.63223
 30
0.0
 10
-7.49397
 20
-0.60833
 30
0.0
 10
-7.52926
 20
-0.5919
 30
0.0
 10
-7.52926
 20
-0.5919
 30
0.0
 10
-7.56452
 20
-0.5755
 30
0.0
 10
-7.60477
 20
-0.56712
 30
0.0
 10
-7.64996
 20
-0.56673
 30
0.0
 10
-7.64996
 20
-0.56673
 30
0.0
 10
-7.69516
 20
-0.56636
 30
0.0
 10
-7.74471
 20
-0.57531
 30
0.0
 10
-7.7986
 20
-0.59359
 30
0.0
 10
-7.7986
 20
-0.59359
 30
0.0
 10
-7.7986
 20
-0.59359
 30
0.0
 10
-8.51004
 20
-0.83476
 30
0.0
 10
-8.51004
 20
-0.83476
 30
0.0
 10
-8.51004
 20
-0.83476
 30
0.0
 10
-8.51004
 20
-0.83476
 30
0.0
 10
-8.56943
 20
-0.6596
 30
0.0
 10
-8.56943
 20
-0.6596
 30
0.0
 10
-8.56943
 20
-0.6596
 30
0.0
 10
-8.56943
 20
-0.6596
 30
0.0
 10
-7.87954
 20
-0.42573
 30
0.0
 10
-7.87954
 20
-0.42573
 30
0.0
 10
-7.87954
 20
-0.42573
 30
0.0
 10
-7.79749
 20
-0.39792
 30
0.0
 10
-7.72187
 20
-0.38462
 30
0.0
 10
-7.65268
 20
-0.38589
 30
0.0
 10
-7.65268
 20
-0.38589
 30
0.0
 10
-7.58349
 20
-0.38713
 30
0.0
 10
-7.52128
 20
-0.40175
 30
0.0
 10
-7.46603
 20
-0.42977
 30
0.0
 10
-7.46603
 20
-0.42977
 30
0.0
 10
-7.41081
 20
-0.4578
 30
0.0
 10
-7.36271
 20
-0.49824
 30
0.0
 10
-7.32174
 20
-0.55112
 30
0.0
 10
-7.32174
 20
-0.55112
 30
0.0
 10
-7.28078
 20
-0.604
 30
0.0
 10
-7.24762
 20
-0.66786
 30
0.0
 10
-7.22224
 20
-0.74272
 30
0.0
 10
-7.22224
 20
-0.74272
 30
0.0
 10
-7.19808
 20
-0.81399
 30
0.0
 10
-7.18635
 20
-0.88162
 30
0.0
 10
-7.18703
 20
-0.94561
 30
0.0
 10
-7.18703
 20
-0.94561
 30
0.0
 10
-7.1877
 20
-1.00961
 30
0.0
 10
-7.20109
 20
-1.06856
 30
0.0
 10
-7.22721
 20
-1.12249
 30
0.0
 10
-7.22721
 20
-1.12249
 30
0.0
 10
-7.25332
 20
-1.17641
 30
0.0
 10
-7.29234
 20
-1.22435
 30
0.0
 10
-7.34421
 20
-1.26631
 30
0.0
 10
-7.34421
 20
-1.26631
 30
0.0
 10
-7.39609
 20
-1.30826
 30
0.0
 10
-7.46125
 20
-1.34254
 30
0.0
 10
-7.5397
 20
-1.36913
 30
0.0
 10
-7.5397
 20
-1.36913
 30
0.0
 10
-7.5397
 20
-1.36913
 30
0.0
 10
-8.24755
 20
-1.60908
 30
0.0
 10
-8.24755
 20
-1.60908
 30
0.0
 10
-8.24755
 20
-1.60908
 30
0.0
 10
-8.24755
 20
-1.60908
 30
0.0
 10
-8.30754
 20
-1.43212
 30
0.0
 10
-8.30754
 20
-1.43212
 30
0.0
 10
-8.30754
 20
-1.43212
 30
0.0
 10
-8.30754
 20
-1.43212
 30
0.0
 10
-7.60687
 20
-1.1946
 30
0.0
 10
-7.60687
 20
-1.1946
 30
0.0
 10
-7.60687
 20
-1.1946
 30
0.0
 10
-7.55178
 20
-1.17593
 30
0.0
 10
-7.50586
 20
-1.15234
 30
0.0
 10
-7.46911
 20
-1.12386
 30
0.0
 10
-7.46911
 20
-1.12386
 30
0.0
 10
-7.43236
 20
-1.09538
 30
0.0
 10
-7.40458
 20
-1.06311
 30
0.0
 10
-7.38577
 20
-1.02701
 30
0.0
 10
-7.38577
 20
-1.02701
 30
0.0
 10
-7.36696
 20
-0.99092
 30
0.0
 10
-7.35684
 20
-0.95177
 30
0.0
 10
-7.35547
 20
-0.90957
 30
0.0
 10
-7.35547
 20
-0.90957
 30
0.0
 10
-7.35408
 20
-0.86737
 30
0.0
 10
-7.36131
 20
-0.82292
 30
0.0
 10
-7.37715
 20
-0.77622
 30
0.0
 10
-7.37715
 20
-0.77622
 30
0.0
 10
-7.39196
 20
-0.73249
 30
0.0
 10
-7.4122
 20
-0.69495
 30
0.0
 10
-7.43786
 20
-0.66359
 30
0.0
  0
SPLINE
  5
60
330
1F
100
AcDbEntity
  8
Layer 1
 62
   250
100
AcDbSpline
210
0.0
220
0.0
230
1.0
 70
    11
 71
     3
 72
    64
 73
    60
 74
     0
 42
0.0000000001
 43
0.0000000001
 40
0.0
 40
0.0
 40
0.0
 40
0.0
 40
0.0666666666666667
 40
0.0666666666666667
 40
0.0666666666666667
 40
0.0666666666666667
 40
0.1333333333333333
 40
0.1333333333333333
 40
0.1333333333333333
 40
0.1333333333333333
 40
0.2
 40
0.2
 40
0.2
 40
0.2
 40
0.2666666666666667
 40
0.2666666666666667
 40
0.2666666666666667
 40
0.2666666666666667
 40
0.3333333333333333
 40
0.3333333333333333
 40
0.3333333333333333
 40
0.3333333333333333
 40
0.4
 40
0.4
 40
0.4
 40
0.4
 40
0.4666666666666666
 40
0.4666666666666666
 40
0.4666666666666666
 40
0.4666666666666666
 40
0.5333333333333333
 40
0.5333333333333333
 40
0.5333333333333333
 40
0.5333333333333333
 40
0.6
 40
0.6
 40
0.6
 40
0.6
 40
0.6666666666666666
 40
0.6666666666666666
 40
0.6666666666666666
 40
0.6666666666666666
 40
0.7333333333333333
 40
0.7333333333333333
 40
0.7333333333333333
 40
0.7333333333333333
 40
0.7999999999999999
 40
0.7999999999999999
 40
0.7999999999999999
 40
0.7999999999999999
 40
0.8666666666666666
 40
0.8666666666666666
 40
0.8666666666666666
 40
0.8666666666666666
 40
0.9333333333333332
 40
0.9333333333333332
 40
0.9333333333333332
 40
0.9333333333333332
 40
1.0
 40
1.0
 40
1.0
 40
1.0
 10
-7.61925
 20
0.95715
 30
0.0
 10
-7.61925
 20
0.95715
 30
0.0
 10
-8.02682
 20
0.45884
 30
0.0
 10
-8.02682
 20
0.45884
 30
0.0
 10
-8.02682
 20
0.45884
 30
0.0
 10
-8.02682
 20
0.45884
 30
0.0
 10
-8.05329
 20
0.42546
 30
0.0
 10
-8.05329
 20
0.42546
 30
0.0
 10
-8.05329
 20
0.42546
 30
0.0
 10
-8.0634
 20
0.41321
 30
0.0
 10
-8.07343
 20
0.40159
 30
0.0
 10
-8.08341
 20
0.39064
 30
0.0
 10
-8.08341
 20
0.39064
 30
0.0
 10
-8.08341
 20
0.39064
 30
0.0
 10
-7.55068
 20
0.46483
 30
0.0
 10
-7.55068
 20
0.46483
 30
0.0
 10
-7.55068
 20
0.46483
 30
0.0
 10
-7.55068
 20
0.46483
 30
0.0
 10
-7.5249
 20
0.27973
 30
0.0
 10
-7.5249
 20
0.27973
 30
0.0
 10
-7.5249
 20
0.27973
 30
0.0
 10
-7.5249
 20
0.27973
 30
0.0
 10
-8.74066
 20
0.11039
 30
0.0
 10
-8.74066
 20
0.11039
 30
0.0
 10
-8.74066
 20
0.11039
 30
0.0
 10
-8.74066
 20
0.11039
 30
0.0
 10
-8.76645
 20
0.29549
 30
0.0
 10
-8.76645
 20
0.29549
 30
0.0
 10
-8.76645
 20
0.29549
 30
0.0
 10
-8.76645
 20
0.29549
 30
0.0
 10
-8.2321
 20
0.37183
 30
0.0
 10
-8.2321
 20
0.37183
 30
0.0
 10
-8.2321
 20
0.37183
 30
0.0
 10
-8.2321
 20
0.37183
 30
0.0
 10
-8.28719
 20
0.40629
 30
0.0
 10
-8.28719
 20
0.40629
 30
0.0
 10
-8.28719
 20
0.40629
 30
0.0
 10
-8.3058
 20
0.41839
 30
0.0
 10
-8.32099
 20
0.42776
 30
0.0
 10
-8.33277
 20
0.43442
 30
0.0
 10
-8.33277
 20
0.43442
 30
0.0
 10
-8.33277
 20
0.43442
 30
0.0
 10
-8.83095
 20
0.75867
 30
0.0
 10
-8.83095
 20
0.75867
 30
0.0
 10
-8.83095
 20
0.75867
 30
0.0
 10
-8.83095
 20
0.75867
 30
0.0
 10
-8.8621
 20
0.98228
 30
0.0
 10
-8.8621
 20
0.98228
 30
0.0
 10
-8.8621
 20
0.98228
 30
0.0
 10
-8.8621
 20
0.98228
 30
0.0
 10
-8.18968
 20
0.5348
 30
0.0
 10
-8.18968
 20
0.5348
 30
0.0
 10
-8.18968
 20
0.5348
 30
0.0
 10
-8.18968
 20
0.5348
 30
0.0
 10
-7.6525
 20
1.19578
 30
0.0
 10
-7.6525
 20
1.19578
 30
0.0
 10
-7.6525
 20
1.19578
 30
0.0
 10
-7.6525
 20
1.19578
 30
0.0
 10
-7.61925
 20
0.95715
 30
0.0
 10
-7.61925
 20
0.95715
 30
0.0
  0
SPLINE
  5
61
330
1F
100
AcDbEntity
  8
Layer 1
 62
   250
100
AcDbSpline
210
0.0
220
0.0
230
1.0
 70
    11
 71
     3
 72
   152
 73
   148
 74
     0
 42
0.0000000001
 43
0.0000000001
 40
0.0
 40
0.0
 40
0.0
 40
0.0
 40
0.027027027027027
 40
0.027027027027027
 40
0.027027027027027
 40
0.027027027027027
 40
0.0540540540540541
 40
0.0540540540540541
 40
0.0540540540540541
 40
0.0540540540540541
 40
0.0810810810810811
 40
0.0810810810810811
 40
0.0810810810810811
 40
0.0810810810810811
 40
0.1081081081081081
 40
0.1081081081081081
 40
0.1081081081081081
 40
0.1081081081081081
 40
0.1351351351351351
 40
0.1351351351351351
 40
0.1351351351351351
 40
0.1351351351351351
 40
0.1621621621621622
 40
0.1621621621621622
 40
0.1621621621621622
 40
0.1621621621621622
 40
0.1891891891891892
 40
0.1891891891891892
 40
0.1891891891891892
 40
0.1891891891891892
 40
0.2162162162162162
 40
0.2162162162162162
 40
0.2162162162162162
 40
0.2162162162162162
 40
0.2432432432432433
 40
0.2432432432432433
 40
0.2432432432432433
 40
0.2432432432432433
 40
0.2702702702702703
 40
0.2702702702702703
 40
0.2702702702702703
 40
0.2702702702702703
 40
0.2972972972972973
 40
0.2972972972972973
 40
0.2972972972972973
 40
0.2972972972972973
 40
0.3243243243243243
 40
0.3243243243243243
 40
0.3243243243243243
 40
0.3243243243243243
 40
0.3513513513513514
 40
0.3513513513513514
 40
0.3513513513513514
 40
0.3513513513513514
 40
0.3783783783783784
 40
0.3783783783783784
 40
0.3783783783783784
 40
0.3783783783783784
 40
0.4054054054054054
 40
0.4054054054054054
 40
0.4054054054054054
 40
0.4054054054054054
 40
0.4324324324324325
 40
0.4324324324324325
 40
0.4324324324324325
 40
0.4324324324324325
 40
0.4594594594594595
 40
0.4594594594594595
 40
0.4594594594594595
 40
0.4594594594594595
 40
0.4864864864864865
 40
0.4864864864864865
 40
0.4864864864864865
 40
0.4864864864864865
 40
0.5135135135135136
 40
0.5135135135135136
 40
0.5135135135135136
 40
0.5135135135135136
 40
0.5405405405405406
 40
0.5405405405405406
 40
0.5405405405405406
 40
0.5405405405405406
 40
0.5675675675675675
 40
0.5675675675675675
 40
0.5675675675675675
 40
0.5675675675675675
 40
0.5945945945945945
 40
0.5945945945945945
 40
0.5945945945945945
 40
0.5945945945945945
 40
0.6216216216216215
 40
0.6216216216216215
 40
0.6216216216216215
 40
0.6216216216216215
 40
0.6486486486486485
 40
0.6486486486486485
 40
0.6486486486486485
 40
0.6486486486486485
 40
0.6756756756756754
 40
0.6756756756756754
 40
0.6756756756756754
 40
0.6756756756756754
 40
0.7027027027027024
 40
0.7027027027027024
 40
0.7027027027027024
 40
0.7027027027027024
 40
0.7297297297297294
 40
0.7297297297297294
 40
0.7297297297297294
 40
0.7297297297297294
 40
0.7567567567567564
 40
0.7567567567567564
 40
0.7567567567567564
 40
0.7567567567567564
 40
0.7837837837837833
 40
0.7837837837837833
 40
0.7837837837837833
 40
0.7837837837837833
 40
0.8108108108108103
 40
0.8108108108108103
 40
0.8108108108108103
 40
0.8108108108108103
 40
0.8378378378378373
 40
0.8378378378378373
 40
0.8378378378378373
 40
0.8378378378378373
 40
0.8648648648648642
 40
0.8648648648648642
 40
0.8648648648648642
 40
0.8648648648648642
 40
0.8918918918918912
 40
0.8918918918918912
 40
0.8918918918918912
 40
0.8918918918918912
 40
0.9189189189189182
 40
0.9189189189189182
 40
0.9189189189189182
 40
0.9189189189189182
 40
0.9459459459459452
 40
0.9459459459459452
 40
0.9459459459459452
 40
0.9459459459459452
 40
0.9729729729729721
 40
0.9729729729729721
 40
0.9729729729729721
 40
0.9729729729729721
 40
1.0
 40
1.0
 40
1.0
 40
1.0
 10
-7.48213
 20
3.36649
 30
0.0
 10
-7.48213
 20
3.36649
 30
0.0
 10
-8.28084
 20
3.4528
 30
0.0
 10
-8.28084
 20
3.4528
 30
0.0
 10
-8.28084
 20
3.4528
 30
0.0
 10
-8.28843
 20
3.45335
 30
0.0
 10
-8.29882
 20
3.45449
 30
0.0
 10
-8.31198
 20
3.45625
 30
0.0
 10
-8.31198
 20
3.45625
 30
0.0
 10
-8.32515
 20
3.458
 30
0.0
 10
-8.3391
 20
3.45988
 30
0.0
 10
-8.35382
 20
3.46188
 30
0.0
 10
-8.35382
 20
3.46188
 30
0.0
 10
-8.35382
 20
3.46188
 30
0.0
 10
-8.39753
 20
3.46779
 30
0.0
 10
-8.39753
 20
3.46779
 30
0.0
 10
-8.39753
 20
3.46779
 30
0.0
 10
-8.41195
 20
3.46974
 30
0.0
 10
-8.42386
 20
3.47146
 30
0.0
 10
-8.43322
 20
3.47293
 30
0.0
 10
-8.43322
 20
3.47293
 30
0.0
 10
-8.41945
 20
3.46691
 30
0.0
 10
-8.40496
 20
3.46031
 30
0.0
 10
-8.38977
 20
3.45312
 30
0.0
 10
-8.38977
 20
3.45312
 30
0.0
 10
-8.38977
 20
3.45312
 30
0.0
 10
-8.34693
 20
3.43247
 30
0.0
 10
-8.34693
 20
3.43247
 30
0.0
 10
-8.34693
 20
3.43247
 30
0.0
 10
-8.34693
 20
3.43247
 30
0.0
 10
-8.3113
 20
3.41486
 30
0.0
 10
-8.3113
 20
3.41486
 30
0.0
 10
-8.3113
 20
3.41486
 30
0.0
 10
-8.30091
 20
3.40969
 30
0.0
 10
-8.29336
 20
3.4058
 30
0.0
 10
-8.28866
 20
3.40313
 30
0.0
 10
-8.28866
 20
3.40313
 30
0.0
 10
-8.28866
 20
3.40313
 30
0.0
 10
-7.54405
 20
2.97296
 30
0.0
 10
-7.54405
 20
2.97296
 30
0.0
 10
-7.54405
 20
2.97296
 30
0.0
 10
-7.54405
 20
2.97296
 30
0.0
 10
-7.57
 20
2.80805
 30
0.0
 10
-7.57
 20
2.80805
 30
0.0
 10
-7.57
 20
2.80805
 30
0.0
 10
-7.57
 20
2.80805
 30
0.0
 10
-8.41161
 20
2.62172
 30
0.0
 10
-8.41161
 20
2.62172
 30
0.0
 10
-8.41161
 20
2.62172
 30
0.0
 10
-8.41161
 20
2.62172
 30
0.0
 10
-8.43891
 20
2.61593
 30
0.0
 10
-8.43891
 20
2.61593
 30
0.0
 10
-8.43891
 20
2.61593
 30
0.0
 10
-8.45049
 20
2.61359
 30
0.0
 10
-8.46364
 20
2.61134
 30
0.0
 10
-8.4784
 20
2.60918
 30
0.0
 10
-8.4784
 20
2.60918
 30
0.0
 10
-8.4784
 20
2.60918
 30
0.0
 10
-8.52457
 20
2.60251
 30
0.0
 10
-8.52457
 20
2.60251
 30
0.0
 10
-8.52457
 20
2.60251
 30
0.0
 10
-8.5406
 20
2.60023
 30
0.0
 10
-8.55605
 20
2.59867
 30
0.0
 10
-8.57091
 20
2.5978
 30
0.0
 10
-8.57091
 20
2.5978
 30
0.0
 10
-8.56028
 20
2.59614
 30
0.0
 10
-8.54799
 20
2.59404
 30
0.0
 10
-8.53398
 20
2.59151
 30
0.0
 10
-8.53398
 20
2.59151
 30
0.0
 10
-8.51997
 20
2.58899
 30
0.0
 10
-8.50552
 20
2.58625
 30
0.0
 10
-8.49063
 20
2.58325
 30
0.0
 10
-8.49063
 20
2.58325
 30
0.0
 10
-8.49063
 20
2.58325
 30
0.0
 10
-8.44736
 20
2.57452
 30
0.0
 10
-8.44736
 20
2.57452
 30
0.0
 10
-8.44736
 20
2.57452
 30
0.0
 10
-8.4334
 20
2.57169
 30
0.0
 10
-8.42117
 20
2.56913
 30
0.0
 10
-8.41065
 20
2.56683
 30
0.0
 10
-8.41065
 20
2.56683
 30
0.0
 10
-8.41065
 20
2.56683
 30
0.0
 10
-7.6353
 20
2.39298
 30
0.0
 10
-7.6353
 20
2.39298
 30
0.0
 10
-7.6353
 20
2.39298
 30
0.0
 10
-7.6353
 20
2.39298
 30
0.0
 10
-7.66214
 20
2.22247
 30
0.0
 10
-7.66214
 20
2.22247
 30
0.0
 10
-7.66214
 20
2.22247
 30
0.0
 10
-7.66214
 20
2.22247
 30
0.0
 10
-8.86129
 20
2.49755
 30
0.0
 10
-8.86129
 20
2.49755
 30
0.0
 10
-8.86129
 20
2.49755
 30
0.0
 10
-8.86129
 20
2.49755
 30
0.0
 10
-8.83018
 20
2.69525
 30
0.0
 10
-8.83018
 20
2.69525
 30
0.0
 10
-8.83018
 20
2.69525
 30
0.0
 10
-8.83018
 20
2.69525
 30
0.0
 10
-7.88134
 20
2.90409
 30
0.0
 10
-7.88134
 20
2.90409
 30
0.0
 10
-7.88134
 20
2.90409
 30
0.0
 10
-7.8721
 20
2.90584
 30
0.0
 10
-7.86141
 20
2.90768
 30
0.0
 10
-7.84927
 20
2.90961
 30
0.0
 10
-7.84927
 20
2.90961
 30
0.0
 10
-7.83713
 20
2.91154
 30
0.0
 10
-7.82457
 20
2.91309
 30
0.0
 10
-7.81157
 20
2.91424
 30
0.0
 10
-7.81157
 20
2.91424
 30
0.0
 10
-7.79858
 20
2.91541
 30
0.0
 10
-7.78563
 20
2.9164
 30
0.0
 10
-7.77269
 20
2.91725
 30
0.0
 10
-7.77269
 20
2.91725
 30
0.0
 10
-7.75976
 20
2.91809
 30
0.0
 10
-7.74814
 20
2.91867
 30
0.0
 10
-7.73786
 20
2.91897
 30
0.0
 10
-7.73786
 20
2.91897
 30
0.0
 10
-7.74756
 20
2.92241
 30
0.0
 10
-7.75871
 20
2.92673
 30
0.0
 10
-7.77134
 20
2.93192
 30
0.0
 10
-7.77134
 20
2.93192
 30
0.0
 10
-7.77134
 20
2.93192
 30
0.0
 10
-7.80916
 20
2.94794
 30
0.0
 10
-7.80916
 20
2.94794
 30
0.0
 10
-7.80916
 20
2.94794
 30
0.0
 10
-7.82172
 20
2.95345
 30
0.0
 10
-7.83364
 20
2.95901
 30
0.0
 10
-7.84492
 20
2.96462
 30
0.0
 10
-7.84492
 20
2.96462
 30
0.0
 10
-7.8562
 20
2.97023
 30
0.0
 10
-7.86566
 20
2.97524
 30
0.0
 10
-7.87328
 20
2.97964
 30
0.0
 10
-7.87328
 20
2.97964
 30
0.0
 10
-7.87328
 20
2.97964
 30
0.0
 10
-8.7087
 20
3.4673
 30
0.0
 10
-8.7087
 20
3.4673
 30
0.0
 10
-8.7087
 20
3.4673
 30
0.0
 10
-8.7087
 20
3.4673
 30
0.0
 10
-8.67642
 20
3.6725
 30
0.0
 10
-8.67642
 20
3.6725
 30
0.0
 10
-8.67642
 20
3.6725
 30
0.0
 10
-8.67642
 20
3.6725
 30
0.0
 10
-7.4553
 20
3.53701
 30
0.0
 10
-7.4553
 20
3.53701
 30
0.0
 10
-7.4553
 20
3.53701
 30
0.0
 10
-7.4553
 20
3.53701
 30
0.0
 10
-7.48213
 20
3.36649
 30
0.0
 10
-7.48213
 20
3.36649
 30
0.0
  0
SPLINE
  5
62
330
1F
100
AcDbEntity
  8
Layer 1
 62
   250
100
AcDbSpline
210
0.0
220
0.0
230
1.0
 70
    11
 71
     3
 72
    36
 73
    32
 74
     0
 42
0.0000000001
 43
0.0000000001
 40
0.0
 40
0.0
 40
0.0
 40
0.0
 40
0.125
 40
0.125
 40
0.125
 40
0.125
 40
0.25
 40
0.25
 40
0.25
 40
0.25
 40
0.375
 40
0.375
 40
0.375
 40
0.375
 40
0.5
 40
0.5
 40
0.5
 40
0.5
 40
0.625
 40
0.625
 40
0.625
 40
0.625
 40
0.75
 40
0.75
 40
0.75
 40
0.75
 40
0.875
 40
0.875
 40
0.875
 40
0.875
 40
1.0
 40
1.0
 40
1.0
 40
1.0
 10
-8.04809
 20
4.79203
 30
0.0
 10
-8.06543
 20
4.79358
 30
0.0
 10
-8.08323
 20
4.79615
 30
0.0
 10
-8.10149
 20
4.79976
 30
0.0
 10
-8.10149
 20
4.79976
 30
0.0
 10
-8.10149
 20
4.79976
 30
0.0
 10
-8.10285
 20
4.7962
 30
0.0
 10
-8.10285
 20
4.7962
 30
0.0
 10
-8.10285
 20
4.7962
 30
0.0
 10
-8.08566
 20
4.78625
 30
0.0
 10
-8.07009
 20
4.77607
 30
0.0
 10
-8.05614
 20
4.76566
 30
0.0
 10
-8.05614
 20
4.76566
 30
0.0
 10
-8.04217
 20
4.75525
 30
0.0
 10
-8.03068
 20
4.74593
 30
0.0
 10
-8.02162
 20
4.73774
 30
0.0
 10
-8.02162
 20
4.73774
 30
0.0
 10
-8.02162
 20
4.73774
 30
0.0
 10
-7.69026
 20
4.45167
 30
0.0
 10
-7.69026
 20
4.45167
 30
0.0
 10
-7.69026
 20
4.45167
 30
0.0
 10
-7.69026
 20
4.45167
 30
0.0
 10
-7.56259
 20
4.78569
 30
0.0
 10
-7.56259
 20
4.78569
 30
0.0
 10
-7.56259
 20
4.78569
 30
0.0
 10
-7.56259
 20
4.78569
 30
0.0
 10
-8.00797
 20
4.78939
 30
0.0
 10
-8.00797
 20
4.78939
 30
0.0
 10
-8.00797
 20
4.78939
 30
0.0
 10
-8.01737
 20
4.7896
 30
0.0
 10
-8.03074
 20
4.79047
 30
0.0
 10
-8.04809
 20
4.79203
 30
0.0
  0
SPLINE
  5
63
330
1F
100
AcDbEntity
  8
Layer 1
 62
   250
100
AcDbSpline
210
0.0
220
0.0
230
1.0
 70
    11
 71
     3
 72
    36
 73
    32
 74
     0
 42
0.0000000001
 43
0.0000000001
 40
0.0
 40
0.0
 40
0.0
 40
0.0
 40
0.125
 40
0.125
 40
0.125
 40
0.125
 40
0.25
 40
0.25
 40
0.25
 40
0.25
 40
0.375
 40
0.375
 40
0.375
 40
0.375
 40
0.5
 40
0.5
 40
0.5
 40
0.5
 40
0.625
 40
0.625
 40
0.625
 40
0.625
 40
0.75
 40
0.75
 40
0.75
 40
0.75
 40
0.875
 40
0.875
 40
0.875
 40
0.875
 40
1.0
 40
1.0
 40
1.0
 40
1.0
 10
-7.0124
 20
4.78256
 30
0.0
 10
-7.0124
 20
4.78256
 30
0.0
 10
-7.39022
 20
4.77973
 30
0.0
 10
-7.39022
 20
4.77973
 30
0.0
 10
-7.39022
 20
4.77973
 30
0.0
 10
-7.39022
 20
4.77973
 30
0.0
 10
-7.55886
 20
4.3385
 30
0.0
 10
-7.55886
 20
4.3385
 30
0.0
 10
-7.55886
 20
4.3385
 30
0.0
 10
-7.55886
 20
4.3385
 30
0.0
 10
-7.27586
 20
4.09324
 30
0.0
 10
-7.27586
 20
4.09324
 30
0.0
 10
-7.27586
 20
4.09324
 30
0.0
 10
-7.27586
 20
4.09324
 30
0.0
 10
-7.34731
 20
3.90631
 30
0.0
 10
-7.34731
 20
3.90631
 30
0.0
 10
-7.34731
 20
3.90631
 30
0.0
 10
-7.34731
 20
3.90631
 30
0.0
 10
-8.32383
 20
4.78928
 30
0.0
 10
-8.32383
 20
4.78928
 30
0.0
 10
-8.32383
 20
4.78928
 30
0.0
 10
-8.32383
 20
4.78928
 30
0.0
 10
-8.25948
 20
4.95762
 30
0.0
 10
-8.25948
 20
4.95762
 30
0.0
 10
-8.25948
 20
4.95762
 30
0.0
 10
-8.25948
 20
4.95762
 30
0.0
 10
-6.94096
 20
4.96951
 30
0.0
 10
-6.94096
 20
4.96951
 30
0.0
 10
-6.94096
 20
4.96951
 30
0.0
 10
-6.94096
 20
4.96951
 30
0.0
 10
-7.0124
 20
4.78256
 30
0.0
 10
-7.0124
 20
4.78256
 30
0.0
  0
SPLINE
  5
64
330
1F
100
AcDbEntity
  8
Layer 1
 62
   250
100
AcDbSpline
210
0.0
220
0.0
230
1.0
 70
    11
 71
     3
 72
    64
 73
    60
 74
     0
 42
0.0000000001
 43
0.0000000001
 40
0.0
 40
0.0
 40
0.0
 40
0.0
 40
0.0666666666666667
 40
0.0666666666666667
 40
0.0666666666666667
 40
0.0666666666666667
 40
0.1333333333333333
 40
0.1333333333333333
 40
0.1333333333333333
 40
0.1333333333333333
 40
0.2
 40
0.2
 40
0.2
 40
0.2
 40
0.2666666666666667
 40
0.2666666666666667
 40
0.2666666666666667
 40
0.2666666666666667
 40
0.3333333333333333
 40
0.3333333333333333
 40
0.3333333333333333
 40
0.3333333333333333
 40
0.4
 40
0.4
 40
0.4
 40
0.4
 40
0.4666666666666666
 40
0.4666666666666666
 40
0.4666666666666666
 40
0.4666666666666666
 40
0.5333333333333333
 40
0.5333333333333333
 40
0.5333333333333333
 40
0.5333333333333333
 40
0.6
 40
0.6
 40
0.6
 40
0.6
 40
0.6666666666666666
 40
0.6666666666666666
 40
0.6666666666666666
 40
0.6666666666666666
 40
0.7333333333333333
 40
0.7333333333333333
 40
0.7333333333333333
 40
0.7333333333333333
 40
0.7999999999999999
 40
0.7999999999999999
 40
0.7999999999999999
 40
0.7999999999999999
 40
0.8666666666666666
 40
0.8666666666666666
 40
0.8666666666666666
 40
0.8666666666666666
 40
0.9333333333333332
 40
0.9333333333333332
 40
0.9333333333333332
 40
0.9333333333333332
 40
1.0
 40
1.0
 40
1.0
 40
1.0
 10
-6.39488
 20
5.91524
 30
0.0
 10
-6.39488
 20
5.91524
 30
0.0
 10
-7.02508
 20
5.78392
 30
0.0
 10
-7.02508
 20
5.78392
 30
0.0
 10
-7.02508
 20
5.78392
 30
0.0
 10
-7.02508
 20
5.78392
 30
0.0
 10
-7.06664
 20
5.7746
 30
0.0
 10
-7.06664
 20
5.7746
 30
0.0
 10
-7.06664
 20
5.7746
 30
0.0
 10
-7.08222
 20
5.77141
 30
0.0
 10
-7.09732
 20
5.76869
 30
0.0
 10
-7.11196
 20
5.76642
 30
0.0
 10
-7.11196
 20
5.76642
 30
0.0
 10
-7.11196
 20
5.76642
 30
0.0
 10
-6.65102
 20
5.48926
 30
0.0
 10
-6.65102
 20
5.48926
 30
0.0
 10
-6.65102
 20
5.48926
 30
0.0
 10
-6.65102
 20
5.48926
 30
0.0
 10
-6.74731
 20
5.32911
 30
0.0
 10
-6.74731
 20
5.32911
 30
0.0
 10
-6.74731
 20
5.32911
 30
0.0
 10
-6.74731
 20
5.32911
 30
0.0
 10
-7.79927
 20
5.96164
 30
0.0
 10
-7.79927
 20
5.96164
 30
0.0
 10
-7.79927
 20
5.96164
 30
0.0
 10
-7.79927
 20
5.96164
 30
0.0
 10
-7.70298
 20
6.1218
 30
0.0
 10
-7.70298
 20
6.1218
 30
0.0
 10
-7.70298
 20
6.1218
 30
0.0
 10
-7.70298
 20
6.1218
 30
0.0
 10
-7.23943
 20
5.84529
 30
0.0
 10
-7.23943
 20
5.84529
 30
0.0
 10
-7.23943
 20
5.84529
 30
0.0
 10
-7.23943
 20
5.84529
 30
0.0
 10
-7.2606
 20
5.90672
 30
0.0
 10
-7.2606
 20
5.90672
 30
0.0
 10
-7.2606
 20
5.90672
 30
0.0
 10
-7.26748
 20
5.92782
 30
0.0
 10
-7.27339
 20
5.94466
 30
0.0
 10
-7.27837
 20
5.95725
 30
0.0
 10
-7.27837
 20
5.95725
 30
0.0
 10
-7.27837
 20
5.95725
 30
0.0
 10
-7.46199
 20
6.52258
 30
0.0
 10
-7.46199
 20
6.52258
 30
0.0
 10
-7.46199
 20
6.52258
 30
0.0
 10
-7.46199
 20
6.52258
 30
0.0
 10
-7.34565
 20
6.71606
 30
0.0
 10
-7.34565
 20
6.71606
 30
0.0
 10
-7.34565
 20
6.71606
 30
0.0
 10
-7.34565
 20
6.71606
 30
0.0
 10
-7.10398
 20
5.94537
 30
0.0
 10
-7.10398
 20
5.94537
 30
0.0
 10
-7.10398
 20
5.94537
 30
0.0
 10
-7.10398
 20
5.94537
 30
0.0
 10
-6.27071
 20
6.12175
 30
0.0
 10
-6.27071
 20
6.12175
 30
0.0
 10
-6.27071
 20
6.12175
 30
0.0
 10
-6.27071
 20
6.12175
 30
0.0
 10
-6.39488
 20
5.91524
 30
0.0
 10
-6.39488
 20
5.91524
 30
0.0
  0
SPLINE
  5
65
330
1F
100
AcDbEntity
  8
Layer 1
 62
   250
100
AcDbSpline
210
0.0
220
0.0
230
1.0
 70
    11
 71
     3
 72
    52
 73
    48
 74
     0
 42
0.0000000001
 43
0.0000000001
 40
0.0
 40
0.0
 40
0.0
 40
0.0
 40
0.0833333333333333
 40
0.0833333333333333
 40
0.0833333333333333
 40
0.0833333333333333
 40
0.1666666666666667
 40
0.1666666666666667
 40
0.1666666666666667
 40
0.1666666666666667
 40
0.25
 40
0.25
 40
0.25
 40
0.25
 40
0.3333333333333333
 40
0.3333333333333333
 40
0.3333333333333333
 40
0.3333333333333333
 40
0.4166666666666666
 40
0.4166666666666666
 40
0.4166666666666666
 40
0.4166666666666666
 40
0.4999999999999999
 40
0.4999999999999999
 40
0.4999999999999999
 40
0.4999999999999999
 40
0.5833333333333333
 40
0.5833333333333333
 40
0.5833333333333333
 40
0.5833333333333333
 40
0.6666666666666666
 40
0.6666666666666666
 40
0.6666666666666666
 40
0.6666666666666666
 40
0.75
 40
0.75
 40
0.75
 40
0.75
 40
0.8333333333333334
 40
0.8333333333333334
 40
0.8333333333333334
 40
0.8333333333333334
 40
0.9166666666666667
 40
0.9166666666666667
 40
0.9166666666666667
 40
0.9166666666666667
 40
1.0
 40
1.0
 40
1.0
 40
1.0
 10
-6.01447
 20
6.4429
 30
0.0
 10
-6.01447
 20
6.4429
 30
0.0
 10
-6.95079
 20
7.23665
 30
0.0
 10
-6.95079
 20
7.23665
 30
0.0
 10
-6.95079
 20
7.23665
 30
0.0
 10
-6.95079
 20
7.23665
 30
0.0
 10
-6.55514
 20
7.70336
 30
0.0
 10
-6.55514
 20
7.70336
 30
0.0
 10
-6.55514
 20
7.70336
 30
0.0
 10
-6.55514
 20
7.70336
 30
0.0
 10
-6.43358
 20
7.6003
 30
0.0
 10
-6.43358
 20
7.6003
 30
0.0
 10
-6.43358
 20
7.6003
 30
0.0
 10
-6.43358
 20
7.6003
 30
0.0
 10
-6.70961
 20
7.27469
 30
0.0
 10
-6.70961
 20
7.27469
 30
0.0
 10
-6.70961
 20
7.27469
 30
0.0
 10
-6.70961
 20
7.27469
 30
0.0
 10
-6.42525
 20
7.03362
 30
0.0
 10
-6.42525
 20
7.03362
 30
0.0
 10
-6.42525
 20
7.03362
 30
0.0
 10
-6.42525
 20
7.03362
 30
0.0
 10
-6.14799
 20
7.36069
 30
0.0
 10
-6.14799
 20
7.36069
 30
0.0
 10
-6.14799
 20
7.36069
 30
0.0
 10
-6.14799
 20
7.36069
 30
0.0
 10
-6.02787
 20
7.25886
 30
0.0
 10
-6.02787
 20
7.25886
 30
0.0
 10
-6.02787
 20
7.25886
 30
0.0
 10
-6.02787
 20
7.25886
 30
0.0
 10
-6.30514
 20
6.9318
 30
0.0
 10
-6.30514
 20
6.9318
 30
0.0
 10
-6.30514
 20
6.9318
 30
0.0
 10
-6.30514
 20
6.9318
 30
0.0
 10
-6.01498
 20
6.68583
 30
0.0
 10
-6.01498
 20
6.68583
 30
0.0
 10
-6.01498
 20
6.68583
 30
0.0
 10
-6.01498
 20
6.68583
 30
0.0
 10
-5.73772
 20
7.01287
 30
0.0
 10
-5.73772
 20
7.01287
 30
0.0
 10
-5.73772
 20
7.01287
 30
0.0
 10
-5.73772
 20
7.01287
 30
0.0
 10
-5.61761
 20
6.91106
 30
0.0
 10
-5.61761
 20
6.91106
 30
0.0
 10
-5.61761
 20
6.91106
 30
0.0
 10
-5.61761
 20
6.91106
 30
0.0
 10
-6.01447
 20
6.4429
 30
0.0
 10
-6.01447
 20
6.4429
 30
0.0
  0
SPLINE
  5
66
330
1F
100
AcDbEntity
  8
Layer 1
 62
   250
100
AcDbSpline
210
0.0
220
0.0
230
1.0
 70
    11
 71
     3
 72
    32
 73
    28
 74
     0
 42
0.0000000001
 43
0.0000000001
 40
0.0
 40
0.0
 40
0.0
 40
0.0
 40
0.1428571428571428
 40
0.1428571428571428
 40
0.1428571428571428
 40
0.1428571428571428
 40
0.2857142857142857
 40
0.2857142857142857
 40
0.2857142857142857
 40
0.2857142857142857
 40
0.4285714285714285
 40
0.4285714285714285
 40
0.4285714285714285
 40
0.4285714285714285
 40
0.5714285714285714
 40
0.5714285714285714
 40
0.5714285714285714
 40
0.5714285714285714
 40
0.7142857142857142
 40
0.7142857142857142
 40
0.7142857142857142
 40
0.7142857142857142
 40
0.857142857142857
 40
0.857142857142857
 40
0.857142857142857
 40
0.857142857142857
 40
1.0
 40
1.0
 40
1.0
 40
1.0
 10
-5.54575
 20
8.38357
 30
0.0
 10
-5.59515
 20
8.37661
 30
0.0
 10
-5.653
 20
8.34475
 30
0.0
 10
-5.71927
 20
8.28797
 30
0.0
 10
-5.71927
 20
8.28797
 30
0.0
 10
-5.71927
 20
8.28797
 30
0.0
 10
-5.7956
 20
8.22256
 30
0.0
 10
-5.7956
 20
8.22256
 30
0.0
 10
-5.7956
 20
8.22256
 30
0.0
 10
-5.7956
 20
8.22256
 30
0.0
 10
-5.55182
 20
7.93805
 30
0.0
 10
-5.55182
 20
7.93805
 30
0.0
 10
-5.55182
 20
7.93805
 30
0.0
 10
-5.55182
 20
7.93805
 30
0.0
 10
-5.48269
 20
7.9973
 30
0.0
 10
-5.48269
 20
7.9973
 30
0.0
 10
-5.48269
 20
7.9973
 30
0.0
 10
-5.41738
 20
8.05326
 30
0.0
 10
-5.37915
 20
8.10995
 30
0.0
 10
-5.36799
 20
8.16739
 30
0.0
 10
-5.36799
 20
8.16739
 30
0.0
 10
-5.35684
 20
8.22484
 30
0.0
 10
-5.37226
 20
8.27804
 30
0.0
 10
-5.41422
 20
8.32702
 30
0.0
 10
-5.41422
 20
8.32702
 30
0.0
 10
-5.45249
 20
8.37167
 30
0.0
 10
-5.49633
 20
8.39054
 30
0.0
 10
-5.54575
 20
8.38357
 30
0.0
  0
SPLINE
  5
67
330
1F
100
AcDbEntity
  8
Layer 1
 62
   250
100
AcDbSpline
210
0.0
220
0.0
230
1.0
 70
    11
 71
     3
 72
    68
 73
    64
 74
     0
 42
0.0000000001
 43
0.0000000001
 40
0.0
 40
0.0
 40
0.0
 40
0.0
 40
0.0625
 40
0.0625
 40
0.0625
 40
0.0625
 40
0.125
 40
0.125
 40
0.125
 40
0.125
 40
0.1875
 40
0.1875
 40
0.1875
 40
0.1875
 40
0.25
 40
0.25
 40
0.25
 40
0.25
 40
0.3125
 40
0.3125
 40
0.3125
 40
0.3125
 40
0.375
 40
0.375
 40
0.375
 40
0.375
 40
0.4375
 40
0.4375
 40
0.4375
 40
0.4375
 40
0.5
 40
0.5
 40
0.5
 40
0.5
 40
0.5625
 40
0.5625
 40
0.5625
 40
0.5625
 40
0.625
 40
0.625
 40
0.625
 40
0.625
 40
0.6875
 40
0.6875
 40
0.6875
 40
0.6875
 40
0.75
 40
0.75
 40
0.75
 40
0.75
 40
0.8125
 40
0.8125
 40
0.8125
 40
0.8125
 40
0.875
 40
0.875
 40
0.875
 40
0.875
 40
0.9375
 40
0.9375
 40
0.9375
 40
0.9375
 40
1.0
 40
1.0
 40
1.0
 40
1.0
 10
-4.77656
 20
7.68927
 30
0.0
 10
-4.77656
 20
7.68927
 30
0.0
 10
-5.38826
 20
7.87835
 30
0.0
 10
-5.38826
 20
7.87835
 30
0.0
 10
-5.38826
 20
7.87835
 30
0.0
 10
-5.38826
 20
7.87835
 30
0.0
 10
-5.45308
 20
7.82281
 30
0.0
 10
-5.45308
 20
7.82281
 30
0.0
 10
-5.45308
 20
7.82281
 30
0.0
 10
-5.45308
 20
7.82281
 30
0.0
 10
-5.10068
 20
7.41154
 30
0.0
 10
-5.10068
 20
7.41154
 30
0.0
 10
-5.10068
 20
7.41154
 30
0.0
 10
-5.10068
 20
7.41154
 30
0.0
 10
-5.24256
 20
7.28995
 30
0.0
 10
-5.24256
 20
7.28995
 30
0.0
 10
-5.24256
 20
7.28995
 30
0.0
 10
-5.24256
 20
7.28995
 30
0.0
 10
-6.04119
 20
8.22196
 30
0.0
 10
-6.04119
 20
8.22196
 30
0.0
 10
-6.04119
 20
8.22196
 30
0.0
 10
-6.04119
 20
8.22196
 30
0.0
 10
-5.83016
 20
8.40281
 30
0.0
 10
-5.83016
 20
8.40281
 30
0.0
 10
-5.83016
 20
8.40281
 30
0.0
 10
-5.7807
 20
8.44518
 30
0.0
 10
-5.73122
 20
8.48072
 30
0.0
 10
-5.68169
 20
8.50941
 30
0.0
 10
-5.68169
 20
8.50941
 30
0.0
 10
-5.63216
 20
8.5381
 30
0.0
 10
-5.58355
 20
8.55646
 30
0.0
 10
-5.53584
 20
8.56443
 30
0.0
 10
-5.53584
 20
8.56443
 30
0.0
 10
-5.48813
 20
8.57241
 30
0.0
 10
-5.44191
 20
8.56853
 30
0.0
 10
-5.39715
 20
8.55274
 30
0.0
 10
-5.39715
 20
8.55274
 30
0.0
 10
-5.35241
 20
8.53696
 30
0.0
 10
-5.30989
 20
8.50553
 30
0.0
 10
-5.26955
 20
8.45847
 30
0.0
 10
-5.26955
 20
8.45847
 30
0.0
 10
-5.23993
 20
8.4239
 30
0.0
 10
-5.2191
 20
8.38721
 30
0.0
 10
-5.20706
 20
8.34839
 30
0.0
 10
-5.20706
 20
8.34839
 30
0.0
 10
-5.19504
 20
8.30957
 30
0.0
 10
-5.18993
 20
8.27105
 30
0.0
 10
-5.19175
 20
8.23284
 30
0.0
 10
-5.19175
 20
8.23284
 30
0.0
 10
-5.19358
 20
8.19464
 30
0.0
 10
-5.20139
 20
8.15735
 30
0.0
 10
-5.21518
 20
8.12097
 30
0.0
 10
-5.21518
 20
8.12097
 30
0.0
 10
-5.22896
 20
8.08459
 30
0.0
 10
-5.24688
 20
8.05154
 30
0.0
 10
-5.26891
 20
8.02185
 30
0.0
 10
-5.26891
 20
8.02185
 30
0.0
 10
-5.26891
 20
8.02185
 30
0.0
 10
-4.60946
 20
7.83245
 30
0.0
 10
-4.60946
 20
7.83245
 30
0.0
 10
-4.60946
 20
7.83245
 30
0.0
 10
-4.60946
 20
7.83245
 30
0.0
 10
-4.77656
 20
7.68927
 30
0.0
 10
-4.77656
 20
7.68927
 30
0.0
  0
SPLINE
  5
68
330
1F
100
AcDbEntity
  8
Layer 1
 62
   250
100
AcDbSpline
210
0.0
220
0.0
230
1.0
 70
    11
 71
     3
 72
    36
 73
    32
 74
     0
 42
0.0000000001
 43
0.0000000001
 40
0.0
 40
0.0
 40
0.0
 40
0.0
 40
0.125
 40
0.125
 40
0.125
 40
0.125
 40
0.25
 40
0.25
 40
0.25
 40
0.25
 40
0.375
 40
0.375
 40
0.375
 40
0.375
 40
0.5
 40
0.5
 40
0.5
 40
0.5
 40
0.625
 40
0.625
 40
0.625
 40
0.625
 40
0.75
 40
0.75
 40
0.75
 40
0.75
 40
0.875
 40
0.875
 40
0.875
 40
0.875
 40
1.0
 40
1.0
 40
1.0
 40
1.0
 10
-3.43762
 20
9.10666
 30
0.0
 10
-3.49185
 20
9.11527
 30
0.0
 10
-3.55843
 20
9.10022
 30
0.0
 10
-3.63735
 20
9.0615
 30
0.0
 10
-3.63735
 20
9.0615
 30
0.0
 10
-3.63735
 20
9.0615
 30
0.0
 10
-3.75402
 20
9.00425
 30
0.0
 10
-3.75402
 20
9.00425
 30
0.0
 10
-3.75402
 20
9.00425
 30
0.0
 10
-3.75402
 20
9.00425
 30
0.0
 10
-3.57519
 20
8.63975
 30
0.0
 10
-3.57519
 20
8.63975
 30
0.0
 10
-3.57519
 20
8.63975
 30
0.0
 10
-3.55618
 20
8.64697
 30
0.0
 10
-3.53584
 20
8.65537
 30
0.0
 10
-3.51413
 20
8.66497
 30
0.0
 10
-3.51413
 20
8.66497
 30
0.0
 10
-3.49241
 20
8.67455
 30
0.0
 10
-3.46851
 20
8.68576
 30
0.0
 10
-3.44239
 20
8.69856
 30
0.0
 10
-3.44239
 20
8.69856
 30
0.0
 10
-3.37142
 20
8.73339
 30
0.0
 10
-3.3245
 20
8.77773
 30
0.0
 10
-3.3016
 20
8.83158
 30
0.0
 10
-3.3016
 20
8.83158
 30
0.0
 10
-3.27871
 20
8.88543
 30
0.0
 10
-3.28229
 20
8.943
 30
0.0
 10
-3.31238
 20
9.00433
 30
0.0
 10
-3.31238
 20
9.00433
 30
0.0
 10
-3.34163
 20
9.06393
 30
0.0
 10
-3.38338
 20
9.09805
 30
0.0
 10
-3.43762
 20
9.10666
 30
0.0
  0
SPLINE
  5
69
330
1F
100
AcDbEntity
  8
Layer 1
 62
   250
100
AcDbSpline
210
0.0
220
0.0
230
1.0
 70
    11
 71
     3
 72
    44
 73
    40
 74
     0
 42
0.0000000001
 43
0.0000000001
 40
0.0
 40
0.0
 40
0.0
 40
0.0
 40
0.1
 40
0.1
 40
0.1
 40
0.1
 40
0.2
 40
0.2
 40
0.2
 40
0.2
 40
0.3
 40
0.3
 40
0.3
 40
0.3
 40
0.4
 40
0.4
 40
0.4
 40
0.4
 40
0.5
 40
0.5
 40
0.5
 40
0.5
 40
0.6
 40
0.6
 40
0.6
 40
0.6
 40
0.7
 40
0.7
 40
0.7
 40
0.7
 40
0.7999999999999999
 40
0.7999999999999999
 40
0.7999999999999999
 40
0.7999999999999999
 40
0.8999999999999999
 40
0.8999999999999999
 40
0.8999999999999999
 40
0.8999999999999999
 40
1.0
 40
1.0
 40
1.0
 40
1.0
 10
-3.65319
 20
9.52235
 30
0.0
 10
-3.66904
 20
9.53746
 30
0.0
 10
-3.68827
 20
9.54827
 30
0.0
 10
-3.71085
 20
9.55481
 30
0.0
 10
-3.71085
 20
9.55481
 30
0.0
 10
-3.73342
 20
9.56134
 30
0.0
 10
-3.75908
 20
9.56267
 30
0.0
 10
-3.78781
 20
9.55878
 30
0.0
 10
-3.78781
 20
9.55878
 30
0.0
 10
-3.81655
 20
9.5549
 30
0.0
 10
-3.84881
 20
9.54418
 30
0.0
 10
-3.88457
 20
9.52663
 30
0.0
 10
-3.88457
 20
9.52663
 30
0.0
 10
-3.90673
 20
9.51576
 30
0.0
 10
-3.92574
 20
9.50608
 30
0.0
 10
-3.94165
 20
9.49758
 30
0.0
 10
-3.94165
 20
9.49758
 30
0.0
 10
-3.95755
 20
9.48907
 30
0.0
 10
-3.97175
 20
9.48104
 30
0.0
 10
-3.98425
 20
9.4735
 30
0.0
 10
-3.98425
 20
9.4735
 30
0.0
 10
-3.98425
 20
9.4735
 30
0.0
 10
-3.81963
 20
9.13796
 30
0.0
 10
-3.81963
 20
9.13796
 30
0.0
 10
-3.81963
 20
9.13796
 30
0.0
 10
-3.81963
 20
9.13796
 30
0.0
 10
-3.74979
 20
9.17223
 30
0.0
 10
-3.74979
 20
9.17223
 30
0.0
 10
-3.74979
 20
9.17223
 30
0.0
 10
-3.67599
 20
9.20844
 30
0.0
 10
-3.62758
 20
9.25191
 30
0.0
 10
-3.60457
 20
9.30264
 30
0.0
 10
-3.60457
 20
9.30264
 30
0.0
 10
-3.58156
 20
9.35338
 30
0.0
 10
-3.58482
 20
9.40884
 30
0.0
 10
-3.61435
 20
9.46902
 30
0.0
 10
-3.61435
 20
9.46902
 30
0.0
 10
-3.62438
 20
9.48946
 30
0.0
 10
-3.63732
 20
9.50724
 30
0.0
 10
-3.65319
 20
9.52235
 30
0.0
  0
SPLINE
  5
6A
330
1F
100
AcDbEntity
  8
Layer 1
 62
   250
100
AcDbSpline
210
0.0
220
0.0
230
1.0
 70
    11
 71
     3
 72
    96
 73
    92
 74
     0
 42
0.0000000001
 43
0.0000000001
 40
0.0
 40
0.0
 40
0.0
 40
0.0
 40
0.0434782608695652
 40
0.0434782608695652
 40
0.0434782608695652
 40
0.0434782608695652
 40
0.0869565217391304
 40
0.0869565217391304
 40
0.0869565217391304
 40
0.0869565217391304
 40
0.1304347826086956
 40
0.1304347826086956
 40
0.1304347826086956
 40
0.1304347826086956
 40
0.1739130434782609
 40
0.1739130434782609
 40
0.1739130434782609
 40
0.1739130434782609
 40
0.2173913043478261
 40
0.2173913043478261
 40
0.2173913043478261
 40
0.2173913043478261
 40
0.2608695652173913
 40
0.2608695652173913
 40
0.2608695652173913
 40
0.2608695652173913
 40
0.3043478260869565
 40
0.3043478260869565
 40
0.3043478260869565
 40
0.3043478260869565
 40
0.3478260869565217
 40
0.3478260869565217
 40
0.3478260869565217
 40
0.3478260869565217
 40
0.3913043478260869
 40
0.3913043478260869
 40
0.3913043478260869
 40
0.3913043478260869
 40
0.4347826086956521
 40
0.4347826086956521
 40
0.4347826086956521
 40
0.4347826086956521
 40
0.4782608695652173
 40
0.4782608695652173
 40
0.4782608695652173
 40
0.4782608695652173
 40
0.5217391304347825
 40
0.5217391304347825
 40
0.5217391304347825
 40
0.5217391304347825
 40
0.5652173913043477
 40
0.5652173913043477
 40
0.5652173913043477
 40
0.5652173913043477
 40
0.6086956521739129
 40
0.6086956521739129
 40
0.6086956521739129
 40
0.6086956521739129
 40
0.652173913043478
 40
0.652173913043478
 40
0.652173913043478
 40
0.652173913043478
 40
0.6956521739130432
 40
0.6956521739130432
 40
0.6956521739130432
 40
0.6956521739130432
 40
0.7391304347826084
 40
0.7391304347826084
 40
0.7391304347826084
 40
0.7391304347826084
 40
0.7826086956521736
 40
0.7826086956521736
 40
0.7826086956521736
 40
0.7826086956521736
 40
0.8260869565217388
 40
0.8260869565217388
 40
0.8260869565217388
 40
0.8260869565217388
 40
0.869565217391304
 40
0.869565217391304
 40
0.869565217391304
 40
0.869565217391304
 40
0.9130434782608692
 40
0.9130434782608692
 40
0.9130434782608692
 40
0.9130434782608692
 40
0.9565217391304344
 40
0.9565217391304344
 40
0.9565217391304344
 40
0.9565217391304344
 40
1.0
 40
1.0
 40
1.0
 40
1.0
 10
-3.1024
 20
8.94568
 30
0.0
 10
-3.09853
 20
8.89686
 30
0.0
 10
-3.10652
 20
8.84927
 30
0.0
 10
-3.12639
 20
8.8029
 30
0.0
 10
-3.12639
 20
8.8029
 30
0.0
 10
-3.14625
 20
8.75652
 30
0.0
 10
-3.17869
 20
8.71206
 30
0.0
 10
-3.22371
 20
8.66956
 30
0.0
 10
-3.22371
 20
8.66956
 30
0.0
 10
-3.2687
 20
8.62705
 30
0.0
 10
-3.32812
 20
8.58769
 30
0.0
 10
-3.40192
 20
8.55148
 30
0.0
 10
-3.40192
 20
8.55148
 30
0.0
 10
-3.42066
 20
8.54229
 30
0.0
 10
-3.44258
 20
8.53206
 30
0.0
 10
-3.46769
 20
8.5208
 30
0.0
 10
-3.46769
 20
8.5208
 30
0.0
 10
-3.49281
 20
8.50953
 30
0.0
 10
-3.51834
 20
8.49842
 30
0.0
 10
-3.54431
 20
8.48743
 30
0.0
 10
-3.54431
 20
8.48743
 30
0.0
 10
-3.57028
 20
8.47645
 30
0.0
 10
-3.59545
 20
8.46639
 30
0.0
 10
-3.61984
 20
8.45724
 30
0.0
 10
-3.61984
 20
8.45724
 30
0.0
 10
-3.64424
 20
8.44809
 30
0.0
 10
-3.66522
 20
8.44061
 30
0.0
 10
-3.6828
 20
8.4348
 30
0.0
 10
-3.6828
 20
8.4348
 30
0.0
 10
-3.6828
 20
8.4348
 30
0.0
 10
-4.21512
 20
9.51979
 30
0.0
 10
-4.21512
 20
9.51979
 30
0.0
 10
-4.21512
 20
9.51979
 30
0.0
 10
-4.183
 20
9.53906
 30
0.0
 10
-4.1436
 20
9.56105
 30
0.0
 10
-4.09689
 20
9.58572
 30
0.0
 10
-4.09689
 20
9.58572
 30
0.0
 10
-4.05018
 20
9.61039
 30
0.0
 10
-4.00184
 20
9.63499
 30
0.0
 10
-3.95188
 20
9.65951
 30
0.0
 10
-3.95188
 20
9.65951
 30
0.0
 10
-3.89397
 20
9.68791
 30
0.0
 10
-3.83916
 20
9.70722
 30
0.0
 10
-3.78748
 20
9.71746
 30
0.0
 10
-3.78748
 20
9.71746
 30
0.0
 10
-3.73578
 20
9.72766
 30
0.0
 10
-3.68847
 20
9.72886
 30
0.0
 10
-3.64555
 20
9.72105
 30
0.0
 10
-3.64555
 20
9.72105
 30
0.0
 10
-3.6026
 20
9.71322
 30
0.0
 10
-3.56455
 20
9.69632
 30
0.0
 10
-3.53138
 20
9.67035
 30
0.0
 10
-3.53138
 20
9.67035
 30
0.0
 10
-3.4982
 20
9.64435
 30
0.0
 10
-3.47074
 20
9.60922
 30
0.0
 10
-3.44901
 20
9.56493
 30
0.0
 10
-3.44901
 20
9.56493
 30
0.0
 10
-3.43481
 20
9.53597
 30
0.0
 10
-3.42549
 20
9.50691
 30
0.0
 10
-3.42104
 20
9.47775
 30
0.0
 10
-3.42104
 20
9.47775
 30
0.0
 10
-3.41659
 20
9.44859
 30
0.0
 10
-3.41617
 20
9.42009
 30
0.0
 10
-3.41978
 20
9.39224
 30
0.0
 10
-3.41978
 20
9.39224
 30
0.0
 10
-3.42338
 20
9.36442
 30
0.0
 10
-3.43078
 20
9.33755
 30
0.0
 10
-3.44201
 20
9.3116
 30
0.0
 10
-3.44201
 20
9.3116
 30
0.0
 10
-3.45323
 20
9.28567
 30
0.0
 10
-3.46755
 20
9.26174
 30
0.0
 10
-3.48497
 20
9.2398
 30
0.0
 10
-3.48497
 20
9.2398
 30
0.0
 10
-3.45127
 20
9.24719
 30
0.0
 10
-3.41766
 20
9.25012
 30
0.0
 10
-3.38415
 20
9.2486
 30
0.0
 10
-3.38415
 20
9.2486
 30
0.0
 10
-3.35064
 20
9.24706
 30
0.0
 10
-3.31889
 20
9.24046
 30
0.0
 10
-3.28885
 20
9.22878
 30
0.0
 10
-3.28885
 20
9.22878
 30
0.0
 10
-3.25882
 20
9.2171
 30
0.0
 10
-3.23144
 20
9.20007
 30
0.0
 10
-3.20672
 20
9.17768
 30
0.0
 10
-3.20672
 20
9.17768
 30
0.0
 10
-3.182
 20
9.15529
 30
0.0
 10
-3.16128
 20
9.12706
 30
0.0
 10
-3.14458
 20
9.093
 30
0.0
 10
-3.14458
 20
9.093
 30
0.0
 10
-3.12034
 20
9.0436
 30
0.0
 10
-3.10629
 20
8.9945
 30
0.0
 10
-3.1024
 20
8.94568
 30
0.0
  0
SPLINE
  5
6B
330
1F
100
AcDbEntity
  8
Layer 1
 62
   250
100
AcDbSpline
210
0.0
220
0.0
230
1.0
 70
    11
 71
     3
 72
    52
 73
    48
 74
     0
 42
0.0000000001
 43
0.0000000001
 40
0.0
 40
0.0
 40
0.0
 40
0.0
 40
0.0833333333333333
 40
0.0833333333333333
 40
0.0833333333333333
 40
0.0833333333333333
 40
0.1666666666666667
 40
0.1666666666666667
 40
0.1666666666666667
 40
0.1666666666666667
 40
0.25
 40
0.25
 40
0.25
 40
0.25
 40
0.3333333333333333
 40
0.3333333333333333
 40
0.3333333333333333
 40
0.3333333333333333
 40
0.4166666666666666
 40
0.4166666666666666
 40
0.4166666666666666
 40
0.4166666666666666
 40
0.4999999999999999
 40
0.4999999999999999
 40
0.4999999999999999
 40
0.4999999999999999
 40
0.5833333333333333
 40
0.5833333333333333
 40
0.5833333333333333
 40
0.5833333333333333
 40
0.6666666666666666
 40
0.6666666666666666
 40
0.6666666666666666
 40
0.6666666666666666
 40
0.75
 40
0.75
 40
0.75
 40
0.75
 40
0.8333333333333334
 40
0.8333333333333334
 40
0.8333333333333334
 40
0.8333333333333334
 40
0.9166666666666667
 40
0.9166666666666667
 40
0.9166666666666667
 40
0.9166666666666667
 40
1.0
 40
1.0
 40
1.0
 40
1.0
 10
-2.53042
 20
8.93102
 30
0.0
 10
-2.53042
 20
8.93102
 30
0.0
 10
-2.89454
 20
10.10313
 30
0.0
 10
-2.89454
 20
10.10313
 30
0.0
 10
-2.89454
 20
10.10313
 30
0.0
 10
-2.89454
 20
10.10313
 30
0.0
 10
-2.31029
 20
10.28463
 30
0.0
 10
-2.31029
 20
10.28463
 30
0.0
 10
-2.31029
 20
10.28463
 30
0.0
 10
-2.31029
 20
10.28463
 30
0.0
 10
-2.26301
 20
10.13247
 30
0.0
 10
-2.26301
 20
10.13247
 30
0.0
 10
-2.26301
 20
10.13247
 30
0.0
 10
-2.26301
 20
10.13247
 30
0.0
 10
-2.67062
 20
10.00584
 30
0.0
 10
-2.67062
 20
10.00584
 30
0.0
 10
-2.67062
 20
10.00584
 30
0.0
 10
-2.67062
 20
10.00584
 30
0.0
 10
-2.56004
 20
9.64984
 30
0.0
 10
-2.56004
 20
9.64984
 30
0.0
 10
-2.56004
 20
9.64984
 30
0.0
 10
-2.56004
 20
9.64984
 30
0.0
 10
-2.15061
 20
9.77704
 30
0.0
 10
-2.15061
 20
9.77704
 30
0.0
 10
-2.15061
 20
9.77704
 30
0.0
 10
-2.15061
 20
9.77704
 30
0.0
 10
-2.1039
 20
9.62667
 30
0.0
 10
-2.1039
 20
9.62667
 30
0.0
 10
-2.1039
 20
9.62667
 30
0.0
 10
-2.1039
 20
9.62667
 30
0.0
 10
-2.51333
 20
9.49948
 30
0.0
 10
-2.51333
 20
9.49948
 30
0.0
 10
-2.51333
 20
9.49948
 30
0.0
 10
-2.51333
 20
9.49948
 30
0.0
 10
-2.40049
 20
9.13626
 30
0.0
 10
-2.40049
 20
9.13626
 30
0.0
 10
-2.40049
 20
9.13626
 30
0.0
 10
-2.40049
 20
9.13626
 30
0.0
 10
-1.99106
 20
9.26345
 30
0.0
 10
-1.99106
 20
9.26345
 30
0.0
 10
-1.99106
 20
9.26345
 30
0.0
 10
-1.99106
 20
9.26345
 30
0.0
 10
-1.94435
 20
9.11308
 30
0.0
 10
-1.94435
 20
9.11308
 30
0.0
 10
-1.94435
 20
9.11308
 30
0.0
 10
-1.94435
 20
9.11308
 30
0.0
 10
-2.53042
 20
8.93102
 30
0.0
 10
-2.53042
 20
8.93102
 30
0.0
  0
SPLINE
  5
6C
330
1F
100
AcDbEntity
  8
Layer 1
 62
   250
100
AcDbSpline
210
0.0
220
0.0
230
1.0
 70
    11
 71
     3
 72
    28
 73
    24
 74
     0
 42
0.0000000001
 43
0.0000000001
 40
0.0
 40
0.0
 40
0.0
 40
0.0
 40
0.1666666666666667
 40
0.1666666666666667
 40
0.1666666666666667
 40
0.1666666666666667
 40
0.3333333333333333
 40
0.3333333333333333
 40
0.3333333333333333
 40
0.3333333333333333
 40
0.5
 40
0.5
 40
0.5
 40
0.5
 40
0.6666666666666666
 40
0.6666666666666666
 40
0.6666666666666666
 40
0.6666666666666666
 40
0.8333333333333333
 40
0.8333333333333333
 40
0.8333333333333333
 40
0.8333333333333333
 40
1.0
 40
1.0
 40
1.0
 40
1.0
 10
-1.41988
 20
9.22856
 30
0.0
 10
-1.41988
 20
9.22856
 30
0.0
 10
-1.6101
 20
10.44107
 30
0.0
 10
-1.6101
 20
10.44107
 30
0.0
 10
-1.6101
 20
10.44107
 30
0.0
 10
-1.6101
 20
10.44107
 30
0.0
 10
-1.42551
 20
10.47002
 30
0.0
 10
-1.42551
 20
10.47002
 30
0.0
 10
-1.42551
 20
10.47002
 30
0.0
 10
-1.42551
 20
10.47002
 30
0.0
 10
-1.25968
 20
9.41307
 30
0.0
 10
-1.25968
 20
9.41307
 30
0.0
 10
-1.25968
 20
9.41307
 30
0.0
 10
-1.25968
 20
9.41307
 30
0.0
 10
-0.8624
 20
9.4754
 30
0.0
 10
-0.8624
 20
9.4754
 30
0.0
 10
-0.8624
 20
9.4754
 30
0.0
 10
-0.8624
 20
9.4754
 30
0.0
 10
-0.838
 20
9.31986
 30
0.0
 10
-0.838
 20
9.31986
 30
0.0
 10
-0.838
 20
9.31986
 30
0.0
 10
-0.838
 20
9.31986
 30
0.0
 10
-1.41988
 20
9.22856
 30
0.0
 10
-1.41988
 20
9.22856
 30
0.0
  0
SPLINE
  5
6D
330
1F
100
AcDbEntity
  8
Layer 1
 62
   250
100
AcDbSpline
210
0.0
220
0.0
230
1.0
 70
    11
 71
     3
 72
    36
 73
    32
 74
     0
 42
0.0000000001
 43
0.0000000001
 40
0.0
 40
0.0
 40
0.0
 40
0.0
 40
0.125
 40
0.125
 40
0.125
 40
0.125
 40
0.25
 40
0.25
 40
0.25
 40
0.25
 40
0.375
 40
0.375
 40
0.375
 40
0.375
 40
0.5
 40
0.5
 40
0.5
 40
0.5
 40
0.625
 40
0.625
 40
0.625
 40
0.625
 40
0.75
 40
0.75
 40
0.75
 40
0.75
 40
0.875
 40
0.875
 40
0.875
 40
0.875
 40
1.0
 40
1.0
 40
1.0
 40
1.0
 10
0.03496
 20
10.42647
 30
0.0
 10
0.03496
 20
10.42647
 30
0.0
 10
0.04182
 20
9.35832
 30
0.0
 10
0.04182
 20
9.35832
 30
0.0
 10
0.04182
 20
9.35832
 30
0.0
 10
0.04182
 20
9.35832
 30
0.0
 10
-0.14411
 20
9.35714
 30
0.0
 10
-0.14411
 20
9.35714
 30
0.0
 10
-0.14411
 20
9.35714
 30
0.0
 10
-0.14411
 20
9.35714
 30
0.0
 10
-0.15098
 20
10.42527
 30
0.0
 10
-0.15098
 20
10.42527
 30
0.0
 10
-0.15098
 20
10.42527
 30
0.0
 10
-0.15098
 20
10.42527
 30
0.0
 10
-0.46213
 20
10.42328
 30
0.0
 10
-0.46213
 20
10.42328
 30
0.0
 10
-0.46213
 20
10.42328
 30
0.0
 10
-0.46213
 20
10.42328
 30
0.0
 10
-0.46314
 20
10.58264
 30
0.0
 10
-0.46314
 20
10.58264
 30
0.0
 10
-0.46314
 20
10.58264
 30
0.0
 10
-0.46314
 20
10.58264
 30
0.0
 10
0.34318
 20
10.58782
 30
0.0
 10
0.34318
 20
10.58782
 30
0.0
 10
0.34318
 20
10.58782
 30
0.0
 10
0.34318
 20
10.58782
 30
0.0
 10
0.34419
 20
10.42846
 30
0.0
 10
0.34419
 20
10.42846
 30
0.0
 10
0.34419
 20
10.42846
 30
0.0
 10
0.34419
 20
10.42846
 30
0.0
 10
0.03496
 20
10.42647
 30
0.0
 10
0.03496
 20
10.42647
 30
0.0
  0
SPLINE
  5
6E
330
1F
100
AcDbEntity
  8
Layer 1
 62
   250
100
AcDbSpline
210
0.0
220
0.0
230
1.0
 70
    11
 71
     3
 72
    36
 73
    32
 74
     0
 42
0.0000000001
 43
0.0000000001
 40
0.0
 40
0.0
 40
0.0
 40
0.0
 40
0.125
 40
0.125
 40
0.125
 40
0.125
 40
0.25
 40
0.25
 40
0.25
 40
0.25
 40
0.375
 40
0.375
 40
0.375
 40
0.375
 40
0.5
 40
0.5
 40
0.5
 40
0.5
 40
0.625
 40
0.625
 40
0.625
 40
0.625
 40
0.75
 40
0.75
 40
0.75
 40
0.75
 40
0.875
 40
0.875
 40
0.875
 40
0.875
 40
1.0
 40
1.0
 40
1.0
 40
1.0
 10
2.13163
 20
10.05945
 30
0.0
 10
2.13117
 20
10.07686
 30
0.0
 10
2.13168
 20
10.09484
 30
0.0
 10
2.13315
 20
10.11339
 30
0.0
 10
2.13315
 20
10.11339
 30
0.0
 10
2.13315
 20
10.11339
 30
0.0
 10
2.12947
 20
10.11432
 30
0.0
 10
2.12947
 20
10.11432
 30
0.0
 10
2.12947
 20
10.11432
 30
0.0
 10
2.12155
 20
10.09611
 30
0.0
 10
2.11325
 20
10.07947
 30
0.0
 10
2.10451
 20
10.0644
 30
0.0
 10
2.10451
 20
10.0644
 30
0.0
 10
2.09577
 20
10.04933
 30
0.0
 10
2.08784
 20
10.03684
 30
0.0
 10
2.08075
 20
10.0269
 30
0.0
 10
2.08075
 20
10.0269
 30
0.0
 10
2.08075
 20
10.0269
 30
0.0
 10
1.83475
 20
9.66475
 30
0.0
 10
1.83475
 20
9.66475
 30
0.0
 10
1.83475
 20
9.66475
 30
0.0
 10
1.83475
 20
9.66475
 30
0.0
 10
2.18129
 20
9.57643
 30
0.0
 10
2.18129
 20
9.57643
 30
0.0
 10
2.18129
 20
9.57643
 30
0.0
 10
2.18129
 20
9.57643
 30
0.0
 10
2.13362
 20
10.01929
 30
0.0
 10
2.13362
 20
10.01929
 30
0.0
 10
2.13362
 20
10.01929
 30
0.0
 10
2.13275
 20
10.02866
 30
0.0
 10
2.13208
 20
10.04204
 30
0.0
 10
2.13163
 20
10.05945
 30
0.0
  0
SPLINE
  5
6F
330
1F
100
AcDbEntity
  8
Layer 1
 62
   250
100
AcDbSpline
210
0.0
220
0.0
230
1.0
 70
    11
 71
     3
 72
    36
 73
    32
 74
     0
 42
0.0000000001
 43
0.0000000001
 40
0.0
 40
0.0
 40
0.0
 40
0.0
 40
0.125
 40
0.125
 40
0.125
 40
0.125
 40
0.25
 40
0.25
 40
0.25
 40
0.25
 40
0.375
 40
0.375
 40
0.375
 40
0.375
 40
0.5
 40
0.5
 40
0.5
 40
0.5
 40
0.625
 40
0.625
 40
0.625
 40
0.625
 40
0.75
 40
0.75
 40
0.75
 40
0.75
 40
0.875
 40
0.875
 40
0.875
 40
0.875
 40
1.0
 40
1.0
 40
1.0
 40
1.0
 10
2.24157
 20
9.0295
 30
0.0
 10
2.24157
 20
9.0295
 30
0.0
 10
2.19522
 20
9.4045
 30
0.0
 10
2.19522
 20
9.4045
 30
0.0
 10
2.19522
 20
9.4045
 30
0.0
 10
2.19522
 20
9.4045
 30
0.0
 10
1.73747
 20
9.52118
 30
0.0
 10
1.73747
 20
9.52118
 30
0.0
 10
1.73747
 20
9.52118
 30
0.0
 10
1.73747
 20
9.52118
 30
0.0
 10
1.52645
 20
9.21179
 30
0.0
 10
1.52645
 20
9.21179
 30
0.0
 10
1.52645
 20
9.21179
 30
0.0
 10
1.52645
 20
9.21179
 30
0.0
 10
1.33249
 20
9.26124
 30
0.0
 10
1.33249
 20
9.26124
 30
0.0
 10
1.33249
 20
9.26124
 30
0.0
 10
1.33249
 20
9.26124
 30
0.0
 10
2.09711
 20
10.33304
 30
0.0
 10
2.09711
 20
10.33304
 30
0.0
 10
2.09711
 20
10.33304
 30
0.0
 10
2.09711
 20
10.33304
 30
0.0
 10
2.27176
 20
10.28853
 30
0.0
 10
2.27176
 20
10.28853
 30
0.0
 10
2.27176
 20
10.28853
 30
0.0
 10
2.27176
 20
10.28853
 30
0.0
 10
2.43551
 20
8.98006
 30
0.0
 10
2.43551
 20
8.98006
 30
0.0
 10
2.43551
 20
8.98006
 30
0.0
 10
2.43551
 20
8.98006
 30
0.0
 10
2.24157
 20
9.0295
 30
0.0
 10
2.24157
 20
9.0295
 30
0.0
  0
SPLINE
  5
70
330
1F
100
AcDbEntity
  8
Layer 1
 62
   250
100
AcDbSpline
210
0.0
220
0.0
230
1.0
 70
    11
 71
     3
 72
   196
 73
   192
 74
     0
 42
0.0000000001
 43
0.0000000001
 40
0.0
 40
0.0
 40
0.0
 40
0.0
 40
0.0208333333333333
 40
0.0208333333333333
 40
0.0208333333333333
 40
0.0208333333333333
 40
0.0416666666666667
 40
0.0416666666666667
 40
0.0416666666666667
 40
0.0416666666666667
 40
0.0625
 40
0.0625
 40
0.0625
 40
0.0625
 40
0.0833333333333333
 40
0.0833333333333333
 40
0.0833333333333333
 40
0.0833333333333333
 40
0.1041666666666667
 40
0.1041666666666667
 40
0.1041666666666667
 40
0.1041666666666667
 40
0.125
 40
0.125
 40
0.125
 40
0.125
 40
0.1458333333333333
 40
0.1458333333333333
 40
0.1458333333333333
 40
0.1458333333333333
 40
0.1666666666666667
 40
0.1666666666666667
 40
0.1666666666666667
 40
0.1666666666666667
 40
0.1875
 40
0.1875
 40
0.1875
 40
0.1875
 40
0.2083333333333333
 40
0.2083333333333333
 40
0.2083333333333333
 40
0.2083333333333333
 40
0.2291666666666667
 40
0.2291666666666667
 40
0.2291666666666667
 40
0.2291666666666667
 40
0.25
 40
0.25
 40
0.25
 40
0.25
 40
0.2708333333333333
 40
0.2708333333333333
 40
0.2708333333333333
 40
0.2708333333333333
 40
0.2916666666666666
 40
0.2916666666666666
 40
0.2916666666666666
 40
0.2916666666666666
 40
0.3124999999999999
 40
0.3124999999999999
 40
0.3124999999999999
 40
0.3124999999999999
 40
0.3333333333333333
 40
0.3333333333333333
 40
0.3333333333333333
 40
0.3333333333333333
 40
0.3541666666666666
 40
0.3541666666666666
 40
0.3541666666666666
 40
0.3541666666666666
 40
0.3749999999999999
 40
0.3749999999999999
 40
0.3749999999999999
 40
0.3749999999999999
 40
0.3958333333333332
 40
0.3958333333333332
 40
0.3958333333333332
 40
0.3958333333333332
 40
0.4166666666666665
 40
0.4166666666666665
 40
0.4166666666666665
 40
0.4166666666666665
 40
0.4374999999999998
 40
0.4374999999999998
 40
0.4374999999999998
 40
0.4374999999999998
 40
0.4583333333333331
 40
0.4583333333333331
 40
0.4583333333333331
 40
0.4583333333333331
 40
0.4791666666666665
 40
0.4791666666666665
 40
0.4791666666666665
 40
0.4791666666666665
 40
0.4999999999999998
 40
0.4999999999999998
 40
0.4999999999999998
 40
0.4999999999999998
 40
0.5208333333333331
 40
0.5208333333333331
 40
0.5208333333333331
 40
0.5208333333333331
 40
0.5416666666666665
 40
0.5416666666666665
 40
0.5416666666666665
 40
0.5416666666666665
 40
0.5624999999999999
 40
0.5624999999999999
 40
0.5624999999999999
 40
0.5624999999999999
 40
0.5833333333333333
 40
0.5833333333333333
 40
0.5833333333333333
 40
0.5833333333333333
 40
0.6041666666666666
 40
0.6041666666666666
 40
0.6041666666666666
 40
0.6041666666666666
 40
0.625
 40
0.625
 40
0.625
 40
0.625
 40
0.6458333333333334
 40
0.6458333333333334
 40
0.6458333333333334
 40
0.6458333333333334
 40
0.6666666666666667
 40
0.6666666666666667
 40
0.6666666666666667
 40
0.6666666666666667
 40
0.6875000000000001
 40
0.6875000000000001
 40
0.6875000000000001
 40
0.6875000000000001
 40
0.7083333333333335
 40
0.7083333333333335
 40
0.7083333333333335
 40
0.7083333333333335
 40
0.7291666666666669
 40
0.7291666666666669
 40
0.7291666666666669
 40
0.7291666666666669
 40
0.7500000000000002
 40
0.7500000000000002
 40
0.7500000000000002
 40
0.7500000000000002
 40
0.7708333333333336
 40
0.7708333333333336
 40
0.7708333333333336
 40
0.7708333333333336
 40
0.791666666666667
 40
0.791666666666667
 40
0.791666666666667
 40
0.791666666666667
 40
0.8125000000000003
 40
0.8125000000000003
 40
0.8125000000000003
 40
0.8125000000000003
 40
0.8333333333333337
 40
0.8333333333333337
 40
0.8333333333333337
 40
0.8333333333333337
 40
0.8541666666666671
 40
0.8541666666666671
 40
0.8541666666666671
 40
0.8541666666666671
 40
0.8750000000000004
 40
0.8750000000000004
 40
0.8750000000000004
 40
0.8750000000000004
 40
0.8958333333333338
 40
0.8958333333333338
 40
0.8958333333333338
 40
0.8958333333333338
 40
0.9166666666666672
 40
0.9166666666666672
 40
0.9166666666666672
 40
0.9166666666666672
 40
0.9375000000000006
 40
0.9375000000000006
 40
0.9375000000000006
 40
0.9375000000000006
 40
0.9583333333333339
 40
0.9583333333333339
 40
0.9583333333333339
 40
0.9583333333333339
 40
0.9791666666666673
 40
0.9791666666666673
 40
0.9791666666666673
 40
0.9791666666666673
 40
1.0
 40
1.0
 40
1.0
 40
1.0
 10
3.50002
 20
8.74426
 30
0.0
 10
3.46634
 20
8.7111
 30
0.0
 10
3.42745
 20
8.68646
 30
0.0
 10
3.38334
 20
8.67034
 30
0.0
 10
3.38334
 20
8.67034
 30
0.0
 10
3.33923
 20
8.65423
 30
0.0
 10
3.29042
 20
8.64781
 30
0.0
 10
3.2369
 20
8.65107
 30
0.0
 10
3.2369
 20
8.65107
 30
0.0
 10
3.18338
 20
8.65433
 30
0.0
 10
3.12624
 20
8.66938
 30
0.0
 10
3.06551
 20
8.69621
 30
0.0
 10
3.06551
 20
8.69621
 30
0.0
 10
3.03602
 20
8.70925
 30
0.0
 10
3.00749
 20
8.7241
 30
0.0
 10
2.97995
 20
8.74078
 30
0.0
 10
2.97995
 20
8.74078
 30
0.0
 10
2.95241
 20
8.75744
 30
0.0
 10
2.92708
 20
8.77521
 30
0.0
 10
2.90396
 20
8.79407
 30
0.0
 10
2.90396
 20
8.79407
 30
0.0
 10
2.88083
 20
8.81294
 30
0.0
 10
2.8601
 20
8.83211
 30
0.0
 10
2.84176
 20
8.85164
 30
0.0
 10
2.84176
 20
8.85164
 30
0.0
 10
2.82343
 20
8.87114
 30
0.0
 10
2.8083
 20
8.8901
 30
0.0
 10
2.79639
 20
8.90851
 30
0.0
 10
2.79639
 20
8.90851
 30
0.0
 10
2.79639
 20
8.90851
 30
0.0
 10
2.87306
 20
9.08202
 30
0.0
 10
2.87306
 20
9.08202
 30
0.0
 10
2.87306
 20
9.08202
 30
0.0
 10
2.8857
 20
9.06054
 30
0.0
 10
2.90171
 20
9.03773
 30
0.0
 10
2.92111
 20
9.01359
 30
0.0
 10
2.92111
 20
9.01359
 30
0.0
 10
2.94052
 20
8.98946
 30
0.0
 10
2.96188
 20
8.9662
 30
0.0
 10
2.98518
 20
8.94381
 30
0.0
 10
2.98518
 20
8.94381
 30
0.0
 10
3.00847
 20
8.92142
 30
0.0
 10
3.03244
 20
8.90097
 30
0.0
 10
3.0571
 20
8.88247
 30
0.0
 10
3.0571
 20
8.88247
 30
0.0
 10
3.08176
 20
8.86396
 30
0.0
 10
3.10507
 20
8.84985
 30
0.0
 10
3.12705
 20
8.84013
 30
0.0
 10
3.12705
 20
8.84013
 30
0.0
 10
3.1606
 20
8.8253
 30
0.0
 10
3.19181
 20
8.81653
 30
0.0
 10
3.22067
 20
8.8138
 30
0.0
 10
3.22067
 20
8.8138
 30
0.0
 10
3.24954
 20
8.81106
 30
0.0
 10
3.27595
 20
8.81373
 30
0.0
 10
3.29992
 20
8.82181
 30
0.0
 10
3.29992
 20
8.82181
 30
0.0
 10
3.32389
 20
8.82988
 30
0.0
 10
3.34484
 20
8.84292
 30
0.0
 10
3.36283
 20
8.8609
 30
0.0
 10
3.36283
 20
8.8609
 30
0.0
 10
3.38079
 20
8.87888
 30
0.0
 10
3.39553
 20
8.90088
 30
0.0
 10
3.40703
 20
8.9269
 30
0.0
 10
3.40703
 20
8.9269
 30
0.0
 10
3.42007
 20
8.95641
 30
0.0
 10
3.42571
 20
8.98364
 30
0.0
 10
3.42396
 20
9.00862
 30
0.0
 10
3.42396
 20
9.00862
 30
0.0
 10
3.42221
 20
9.03359
 30
0.0
 10
3.4148
 20
9.05794
 30
0.0
 10
3.4018
 20
9.08167
 30
0.0
 10
3.4018
 20
9.08167
 30
0.0
 10
3.38878
 20
9.10539
 30
0.0
 10
3.37108
 20
9.12947
 30
0.0
 10
3.34869
 20
9.1539
 30
0.0
 10
3.34869
 20
9.1539
 30
0.0
 10
3.32628
 20
9.1783
 30
0.0
 10
3.30097
 20
9.2047
 30
0.0
 10
3.27271
 20
9.23308
 30
0.0
 10
3.27271
 20
9.23308
 30
0.0
 10
3.23405
 20
9.2723
 30
0.0
 10
3.20066
 20
9.30935
 30
0.0
 10
3.17252
 20
9.34426
 30
0.0
 10
3.17252
 20
9.34426
 30
0.0
 10
3.1444
 20
9.37917
 30
0.0
 10
3.1232
 20
9.41411
 30
0.0
 10
3.10894
 20
9.4491
 30
0.0
 10
3.10894
 20
9.4491
 30
0.0
 10
3.09466
 20
9.48409
 30
0.0
 10
3.088
 20
9.52024
 30
0.0
 10
3.08892
 20
9.5575
 30
0.0
 10
3.08892
 20
9.5575
 30
0.0
 10
3.08984
 20
9.59478
 30
0.0
 10
3.09989
 20
9.6351
 30
0.0
 10
3.11904
 20
9.67849
 30
0.0
 10
3.11904
 20
9.67849
 30
0.0
 10
3.14002
 20
9.72592
 30
0.0
 10
3.16854
 20
9.76463
 30
0.0
 10
3.20463
 20
9.79467
 30
0.0
 10
3.20463
 20
9.79467
 30
0.0
 10
3.24072
 20
9.82469
 30
0.0
 10
3.28118
 20
9.84587
 30
0.0
 10
3.32603
 20
9.85819
 30
0.0
 10
3.32603
 20
9.85819
 30
0.0
 10
3.37089
 20
9.87051
 30
0.0
 10
3.4187
 20
9.87428
 30
0.0
 10
3.46946
 20
9.86946
 30
0.0
 10
3.46946
 20
9.86946
 30
0.0
 10
3.52023
 20
9.86466
 30
0.0
 10
3.57078
 20
9.85113
 30
0.0
 10
3.62109
 20
9.8289
 30
0.0
 10
3.62109
 20
9.8289
 30
0.0
 10
3.67488
 20
9.80513
 30
0.0
 10
3.7213
 20
9.77874
 30
0.0
 10
3.76033
 20
9.74974
 30
0.0
 10
3.76033
 20
9.74974
 30
0.0
 10
3.79935
 20
9.72073
 30
0.0
 10
3.83348
 20
9.69079
 30
0.0
 10
3.86269
 20
9.65989
 30
0.0
 10
3.86269
 20
9.65989
 30
0.0
 10
3.86269
 20
9.65989
 30
0.0
 10
3.79366
 20
9.50374
 30
0.0
 10
3.79366
 20
9.50374
 30
0.0
 10
3.79366
 20
9.50374
 30
0.0
 10
3.78048
 20
9.51924
 30
0.0
 10
3.76456
 20
9.53562
 30
0.0
 10
3.7459
 20
9.55284
 30
0.0
 10
3.7459
 20
9.55284
 30
0.0
 10
3.72725
 20
9.57009
 30
0.0
 10
3.70711
 20
9.58711
 30
0.0
 10
3.68551
 20
9.60391
 30
0.0
 10
3.68551
 20
9.60391
 30
0.0
 10
3.66391
 20
9.62071
 30
0.0
 10
3.64177
 20
9.63637
 30
0.0
 10
3.61915
 20
9.65087
 30
0.0
 10
3.61915
 20
9.65087
 30
0.0
 10
3.59651
 20
9.66536
 30
0.0
 10
3.57421
 20
9.67746
 30
0.0
 10
3.55223
 20
9.68719
 30
0.0
 10
3.55223
 20
9.68719
 30
0.0
 10
3.52158
 20
9.70074
 30
0.0
 10
3.49267
 20
9.70885
 30
0.0
 10
3.46551
 20
9.71151
 30
0.0
 10
3.46551
 20
9.71151
 30
0.0
 10
3.43834
 20
9.71419
 30
0.0
 10
3.41345
 20
9.71222
 30
0.0
 10
3.39082
 20
9.70563
 30
0.0
 10
3.39082
 20
9.70563
 30
0.0
 10
3.36821
 20
9.69904
 30
0.0
 10
3.34843
 20
9.6879
 30
0.0
 10
3.33149
 20
9.67224
 30
0.0
 10
3.33149
 20
9.67224
 30
0.0
 10
3.31452
 20
9.65656
 30
0.0
 10
3.30094
 20
9.63716
 30
0.0
 10
3.29071
 20
9.61402
 30
0.0
 10
3.29071
 20
9.61402
 30
0.0
 10
3.2792
 20
9.58799
 30
0.0
 10
3.2748
 20
9.56315
 30
0.0
 10
3.27748
 20
9.5395
 30
0.0
 10
3.27748
 20
9.5395
 30
0.0
 10
3.28016
 20
9.51584
 30
0.0
 10
3.28837
 20
9.49217
 30
0.0
 10
3.3021
 20
9.46849
 30
0.0
 10
3.3021
 20
9.46849
 30
0.0
 10
3.31582
 20
9.44479
 30
0.0
 10
3.33425
 20
9.42038
 30
0.0
 10
3.35738
 20
9.39529
 30
0.0
 10
3.35738
 20
9.39529
 30
0.0
 10
3.3805
 20
9.37022
 30
0.0
 10
3.40666
 20
9.34293
 30
0.0
 10
3.4358
 20
9.31346
 30
0.0
 10
3.4358
 20
9.31346
 30
0.0
 10
3.473
 20
9.27559
 30
0.0
 10
3.50509
 20
9.2391
 30
0.0
 10
3.5321
 20
9.204
 30
0.0
 10
3.5321
 20
9.204
 30
0.0
 10
3.55911
 20
9.16891
 30
0.0
 10
3.57933
 20
9.13335
 30
0.0
 10
3.5928
 20
9.09733
 30
0.0
 10
3.5928
 20
9.09733
 30
0.0
 10
3.60625
 20
9.06131
 30
0.0
 10
3.61241
 20
9.02402
 30
0.0
 10
3.61128
 20
8.98546
 30
0.0
 10
3.61128
 20
8.98546
 30
0.0
 10
3.61014
 20
8.9469
 30
0.0
 10
3.59999
 20
8.90592
 30
0.0
 10
3.5808
 20
8.86255
 30
0.0
 10
3.5808
 20
8.86255
 30
0.0
 10
3.56061
 20
8.81685
 30
0.0
 10
3.53368
 20
8.77743
 30
0.0
 10
3.50002
 20
8.74426
 30
0.0
  0
SPLINE
  5
71
330
1F
100
AcDbEntity
  8
Layer 1
 62
   250
100
AcDbSpline
210
0.0
220
0.0
230
1.0
 70
    11
 71
     3
 72
   196
 73
   192
 74
     0
 42
0.0000000001
 43
0.0000000001
 40
0.0
 40
0.0
 40
0.0
 40
0.0
 40
0.0208333333333333
 40
0.0208333333333333
 40
0.0208333333333333
 40
0.0208333333333333
 40
0.0416666666666667
 40
0.0416666666666667
 40
0.0416666666666667
 40
0.0416666666666667
 40
0.0625
 40
0.0625
 40
0.0625
 40
0.0625
 40
0.0833333333333333
 40
0.0833333333333333
 40
0.0833333333333333
 40
0.0833333333333333
 40
0.1041666666666667
 40
0.1041666666666667
 40
0.1041666666666667
 40
0.1041666666666667
 40
0.125
 40
0.125
 40
0.125
 40
0.125
 40
0.1458333333333333
 40
0.1458333333333333
 40
0.1458333333333333
 40
0.1458333333333333
 40
0.1666666666666667
 40
0.1666666666666667
 40
0.1666666666666667
 40
0.1666666666666667
 40
0.1875
 40
0.1875
 40
0.1875
 40
0.1875
 40
0.2083333333333333
 40
0.2083333333333333
 40
0.2083333333333333
 40
0.2083333333333333
 40
0.2291666666666667
 40
0.2291666666666667
 40
0.2291666666666667
 40
0.2291666666666667
 40
0.25
 40
0.25
 40
0.25
 40
0.25
 40
0.2708333333333333
 40
0.2708333333333333
 40
0.2708333333333333
 40
0.2708333333333333
 40
0.2916666666666666
 40
0.2916666666666666
 40
0.2916666666666666
 40
0.2916666666666666
 40
0.3124999999999999
 40
0.3124999999999999
 40
0.3124999999999999
 40
0.3124999999999999
 40
0.3333333333333333
 40
0.3333333333333333
 40
0.3333333333333333
 40
0.3333333333333333
 40
0.3541666666666666
 40
0.3541666666666666
 40
0.3541666666666666
 40
0.3541666666666666
 40
0.3749999999999999
 40
0.3749999999999999
 40
0.3749999999999999
 40
0.3749999999999999
 40
0.3958333333333332
 40
0.3958333333333332
 40
0.3958333333333332
 40
0.3958333333333332
 40
0.4166666666666665
 40
0.4166666666666665
 40
0.4166666666666665
 40
0.4166666666666665
 40
0.4374999999999998
 40
0.4374999999999998
 40
0.4374999999999998
 40
0.4374999999999998
 40
0.4583333333333331
 40
0.4583333333333331
 40
0.4583333333333331
 40
0.4583333333333331
 40
0.4791666666666665
 40
0.4791666666666665
 40
0.4791666666666665
 40
0.4791666666666665
 40
0.4999999999999998
 40
0.4999999999999998
 40
0.4999999999999998
 40
0.4999999999999998
 40
0.5208333333333331
 40
0.5208333333333331
 40
0.5208333333333331
 40
0.5208333333333331
 40
0.5416666666666665
 40
0.5416666666666665
 40
0.5416666666666665
 40
0.5416666666666665
 40
0.5624999999999999
 40
0.5624999999999999
 40
0.5624999999999999
 40
0.5624999999999999
 40
0.5833333333333333
 40
0.5833333333333333
 40
0.5833333333333333
 40
0.5833333333333333
 40
0.6041666666666666
 40
0.6041666666666666
 40
0.6041666666666666
 40
0.6041666666666666
 40
0.625
 40
0.625
 40
0.625
 40
0.625
 40
0.6458333333333334
 40
0.6458333333333334
 40
0.6458333333333334
 40
0.6458333333333334
 40
0.6666666666666667
 40
0.6666666666666667
 40
0.6666666666666667
 40
0.6666666666666667
 40
0.6875000000000001
 40
0.6875000000000001
 40
0.6875000000000001
 40
0.6875000000000001
 40
0.7083333333333335
 40
0.7083333333333335
 40
0.7083333333333335
 40
0.7083333333333335
 40
0.7291666666666669
 40
0.7291666666666669
 40
0.7291666666666669
 40
0.7291666666666669
 40
0.7500000000000002
 40
0.7500000000000002
 40
0.7500000000000002
 40
0.7500000000000002
 40
0.7708333333333336
 40
0.7708333333333336
 40
0.7708333333333336
 40
0.7708333333333336
 40
0.791666666666667
 40
0.791666666666667
 40
0.791666666666667
 40
0.791666666666667
 40
0.8125000000000003
 40
0.8125000000000003
 40
0.8125000000000003
 40
0.8125000000000003
 40
0.8333333333333337
 40
0.8333333333333337
 40
0.8333333333333337
 40
0.8333333333333337
 40
0.8541666666666671
 40
0.8541666666666671
 40
0.8541666666666671
 40
0.8541666666666671
 40
0.8750000000000004
 40
0.8750000000000004
 40
0.8750000000000004
 40
0.8750000000000004
 40
0.8958333333333338
 40
0.8958333333333338
 40
0.8958333333333338
 40
0.8958333333333338
 40
0.9166666666666672
 40
0.9166666666666672
 40
0.9166666666666672
 40
0.9166666666666672
 40
0.9375000000000006
 40
0.9375000000000006
 40
0.9375000000000006
 40
0.9375000000000006
 40
0.9583333333333339
 40
0.9583333333333339
 40
0.9583333333333339
 40
0.9583333333333339
 40
0.9791666666666673
 40
0.9791666666666673
 40
0.9791666666666673
 40
0.9791666666666673
 40
1.0
 40
1.0
 40
1.0
 40
1.0
 10
4.53945
 20
8.12428
 30
0.0
 10
4.50109
 20
8.09665
 30
0.0
 10
4.45888
 20
8.07824
 30
0.0
 10
4.41284
 20
8.06907
 30
0.0
 10
4.41284
 20
8.06907
 30
0.0
 10
4.36677
 20
8.05989
 30
0.0
 10
4.31754
 20
8.06101
 30
0.0
 10
4.26514
 20
8.07241
 30
0.0
 10
4.26514
 20
8.07241
 30
0.0
 10
4.21274
 20
8.08383
 30
0.0
 10
4.15859
 20
8.10743
 30
0.0
 10
4.10267
 20
8.14325
 30
0.0
 10
4.10267
 20
8.14325
 30
0.0
 10
4.07552
 20
8.16065
 30
0.0
 10
4.04959
 20
8.17968
 30
0.0
 10
4.02492
 20
8.20037
 30
0.0
 10
4.02492
 20
8.20037
 30
0.0
 10
4.00024
 20
8.22106
 30
0.0
 10
3.97793
 20
8.2425
 30
0.0
 10
3.95795
 20
8.26467
 30
0.0
 10
3.95795
 20
8.26467
 30
0.0
 10
3.93799
 20
8.28685
 30
0.0
 10
3.92044
 20
8.30898
 30
0.0
 10
3.9053
 20
8.33107
 30
0.0
 10
3.9053
 20
8.33107
 30
0.0
 10
3.89016
 20
8.35315
 30
0.0
 10
3.87811
 20
8.37421
 30
0.0
 10
3.86915
 20
8.39422
 30
0.0
 10
3.86915
 20
8.39422
 30
0.0
 10
3.86915
 20
8.39422
 30
0.0
 10
3.97147
 20
8.55397
 30
0.0
 10
3.97147
 20
8.55397
 30
0.0
 10
3.97147
 20
8.55397
 30
0.0
 10
3.98067
 20
8.53081
 30
0.0
 10
3.99301
 20
8.50582
 30
0.0
 10
4.00851
 20
8.47901
 30
0.0
 10
4.00851
 20
8.47901
 30
0.0
 10
4.02398
 20
8.45219
 30
0.0
 10
4.04153
 20
8.42593
 30
0.0
 10
4.06112
 20
8.40023
 30
0.0
 10
4.06112
 20
8.40023
 30
0.0
 10
4.08072
 20
8.37453
 30
0.0
 10
4.10129
 20
8.35067
 30
0.0
 10
4.12283
 20
8.32861
 30
0.0
 10
4.12283
 20
8.32861
 30
0.0
 10
4.14438
 20
8.30655
 30
0.0
 10
4.16526
 20
8.28904
 30
0.0
 10
4.1855
 20
8.27607
 30
0.0
 10
4.1855
 20
8.27607
 30
0.0
 10
4.21637
 20
8.25628
 30
0.0
 10
4.24589
 20
8.24283
 30
0.0
 10
4.27399
 20
8.23572
 30
0.0
 10
4.27399
 20
8.23572
 30
0.0
 10
4.30211
 20
8.22861
 30
0.0
 10
4.32862
 20
8.2272
 30
0.0
 10
4.35355
 20
8.23152
 30
0.0
 10
4.35355
 20
8.23152
 30
0.0
 10
4.37846
 20
8.23584
 30
0.0
 10
4.40116
 20
8.24551
 30
0.0
 10
4.42169
 20
8.26053
 30
0.0
 10
4.42169
 20
8.26053
 30
0.0
 10
4.4422
 20
8.27557
 30
0.0
 10
4.46013
 20
8.29505
 30
0.0
 10
4.47548
 20
8.31902
 30
0.0
 10
4.47548
 20
8.31902
 30
0.0
 10
4.49288
 20
8.34618
 30
0.0
 10
4.50262
 20
8.37223
 30
0.0
 10
4.50471
 20
8.39718
 30
0.0
 10
4.50471
 20
8.39718
 30
0.0
 10
4.5068
 20
8.42213
 30
0.0
 10
4.50322
 20
8.44732
 30
0.0
 10
4.49398
 20
8.47277
 30
0.0
 10
4.49398
 20
8.47277
 30
0.0
 10
4.48475
 20
8.49821
 30
0.0
 10
4.47093
 20
8.52471
 30
0.0
 10
4.45252
 20
8.55227
 30
0.0
 10
4.45252
 20
8.55227
 30
0.0
 10
4.43413
 20
8.57982
 30
0.0
 10
4.41314
 20
8.60978
 30
0.0
 10
4.38957
 20
8.64216
 30
0.0
 10
4.38957
 20
8.64216
 30
0.0
 10
4.35735
 20
8.68684
 30
0.0
 10
4.33
 20
8.72856
 30
0.0
 10
4.30755
 20
8.76736
 30
0.0
 10
4.30755
 20
8.76736
 30
0.0
 10
4.28509
 20
8.80616
 30
0.0
 10
4.26947
 20
8.84395
 30
0.0
 10
4.26073
 20
8.88071
 30
0.0
 10
4.26073
 20
8.88071
 30
0.0
 10
4.25199
 20
8.91748
 30
0.0
 10
4.25092
 20
8.9542
 30
0.0
 10
4.25753
 20
8.99091
 30
0.0
 10
4.25753
 20
8.99091
 30
0.0
 10
4.26414
 20
9.0276
 30
0.0
 10
4.28023
 20
9.06592
 30
0.0
 10
4.30582
 20
9.10586
 30
0.0
 10
4.30582
 20
9.10586
 30
0.0
 10
4.33378
 20
9.14953
 30
0.0
 10
4.3679
 20
9.18345
 30
0.0
 10
4.40815
 20
9.2076
 30
0.0
 10
4.40815
 20
9.2076
 30
0.0
 10
4.44841
 20
9.23176
 30
0.0
 10
4.49165
 20
9.2465
 30
0.0
 10
4.53787
 20
9.25182
 30
0.0
 10
4.53787
 20
9.25182
 30
0.0
 10
4.58407
 20
9.25714
 30
0.0
 10
4.63189
 20
9.25354
 30
0.0
 10
4.68135
 20
9.24102
 30
0.0
 10
4.68135
 20
9.24102
 30
0.0
 10
4.73079
 20
9.22851
 30
0.0
 10
4.77866
 20
9.20741
 30
0.0
 10
4.82499
 20
9.17774
 30
0.0
 10
4.82499
 20
9.17774
 30
0.0
 10
4.87452
 20
9.14601
 30
0.0
 10
4.91635
 20
9.11284
 30
0.0
 10
4.9505
 20
9.0782
 30
0.0
 10
4.9505
 20
9.0782
 30
0.0
 10
4.98464
 20
9.04356
 30
0.0
 10
5.01378
 20
9.00875
 30
0.0
 10
5.03793
 20
8.97376
 30
0.0
 10
5.03793
 20
8.97376
 30
0.0
 10
5.03793
 20
8.97376
 30
0.0
 10
4.94583
 20
8.82997
 30
0.0
 10
4.94583
 20
8.82997
 30
0.0
 10
4.94583
 20
8.82997
 30
0.0
 10
4.93516
 20
8.84732
 30
0.0
 10
4.92193
 20
8.86594
 30
0.0
 10
4.90613
 20
8.88582
 30
0.0
 10
4.90613
 20
8.88582
 30
0.0
 10
4.89033
 20
8.9057
 30
0.0
 10
4.87303
 20
8.92561
 30
0.0
 10
4.85425
 20
8.94553
 30
0.0
 10
4.85425
 20
8.94553
 30
0.0
 10
4.83546
 20
8.96544
 30
0.0
 10
4.81601
 20
8.9843
 30
0.0
 10
4.79585
 20
9.00209
 30
0.0
 10
4.79585
 20
9.00209
 30
0.0
 10
4.7757
 20
9.01987
 30
0.0
 10
4.75551
 20
9.03526
 30
0.0
 10
4.73528
 20
9.04821
 30
0.0
 10
4.73528
 20
9.04821
 30
0.0
 10
4.70704
 20
9.06629
 30
0.0
 10
4.67972
 20
9.07873
 30
0.0
 10
4.65327
 20
9.08551
 30
0.0
 10
4.65327
 20
9.08551
 30
0.0
 10
4.62684
 20
9.09231
 30
0.0
 10
4.60193
 20
9.09418
 30
0.0
 10
4.57857
 20
9.09113
 30
0.0
 10
4.57857
 20
9.09113
 30
0.0
 10
4.55521
 20
9.08806
 30
0.0
 10
4.53394
 20
9.0801
 30
0.0
 10
4.51481
 20
9.06719
 30
0.0
 10
4.51481
 20
9.06719
 30
0.0
 10
4.49565
 20
9.0543
 30
0.0
 10
4.47926
 20
9.0372
 30
0.0
 10
4.46561
 20
9.01589
 30
0.0
 10
4.46561
 20
9.01589
 30
0.0
 10
4.45026
 20
8.99193
 30
0.0
 10
4.4421
 20
8.96806
 30
0.0
 10
4.44114
 20
8.94427
 30
0.0
 10
4.44114
 20
8.94427
 30
0.0
 10
4.44018
 20
8.92048
 30
0.0
 10
4.44465
 20
8.89584
 30
0.0
 10
4.45461
 20
8.87031
 30
0.0
 10
4.45461
 20
8.87031
 30
0.0
 10
4.46453
 20
8.8448
 30
0.0
 10
4.47902
 20
8.81787
 30
0.0
 10
4.49805
 20
8.78954
 30
0.0
 10
4.49805
 20
8.78954
 30
0.0
 10
4.51708
 20
8.76121
 30
0.0
 10
4.53874
 20
8.73023
 30
0.0
 10
4.56304
 20
8.69665
 30
0.0
 10
4.56304
 20
8.69665
 30
0.0
 10
4.594
 20
8.65354
 30
0.0
 10
4.62014
 20
8.61258
 30
0.0
 10
4.64146
 20
8.57375
 30
0.0
 10
4.64146
 20
8.57375
 30
0.0
 10
4.6628
 20
8.53493
 30
0.0
 10
4.67734
 20
8.4967
 30
0.0
 10
4.68515
 20
8.45904
 30
0.0
 10
4.68515
 20
8.45904
 30
0.0
 10
4.69294
 20
8.42136
 30
0.0
 10
4.69333
 20
8.38357
 30
0.0
 10
4.6863
 20
8.34563
 30
0.0
 10
4.6863
 20
8.34563
 30
0.0
 10
4.67927
 20
8.30771
 30
0.0
 10
4.66297
 20
8.26877
 30
0.0
 10
4.63739
 20
8.22882
 30
0.0
 10
4.63739
 20
8.22882
 30
0.0
 10
4.61044
 20
8.18675
 30
0.0
 10
4.5778
 20
8.15192
 30
0.0
 10
4.53945
 20
8.12428
 30
0.0
  0
SPLINE
  5
72
330
1F
100
AcDbEntity
  8
Layer 1
 62
   250
100
AcDbSpline
210
0.0
220
0.0
230
1.0
 70
    11
 71
     3
 72
    68
 73
    64
 74
     0
 42
0.0000000001
 43
0.0000000001
 40
0.0
 40
0.0
 40
0.0
 40
0.0
 40
0.0625
 40
0.0625
 40
0.0625
 40
0.0625
 40
0.125
 40
0.125
 40
0.125
 40
0.125
 40
0.1875
 40
0.1875
 40
0.1875
 40
0.1875
 40
0.25
 40
0.25
 40
0.25
 40
0.25
 40
0.3125
 40
0.3125
 40
0.3125
 40
0.3125
 40
0.375
 40
0.375
 40
0.375
 40
0.375
 40
0.4375
 40
0.4375
 40
0.4375
 40
0.4375
 40
0.5
 40
0.5
 40
0.5
 40
0.5
 40
0.5625
 40
0.5625
 40
0.5625
 40
0.5625
 40
0.625
 40
0.625
 40
0.625
 40
0.625
 40
0.6875
 40
0.6875
 40
0.6875
 40
0.6875
 40
0.75
 40
0.75
 40
0.75
 40
0.75
 40
0.8125
 40
0.8125
 40
0.8125
 40
0.8125
 40
0.875
 40
0.875
 40
0.875
 40
0.875
 40
0.9375
 40
0.9375
 40
0.9375
 40
0.9375
 40
1.0
 40
1.0
 40
1.0
 40
1.0
 10
6.04515
 20
7.63868
 30
0.0
 10
6.0735
 20
7.69309
 30
0.0
 10
6.08993
 20
7.74634
 30
0.0
 10
6.09443
 20
7.79839
 30
0.0
 10
6.09443
 20
7.79839
 30
0.0
 10
6.09893
 20
7.85045
 30
0.0
 10
6.09131
 20
7.90063
 30
0.0
 10
6.07156
 20
7.94895
 30
0.0
 10
6.07156
 20
7.94895
 30
0.0
 10
6.05181
 20
7.99728
 30
0.0
 10
6.01929
 20
8.0426
 30
0.0
 10
5.97401
 20
8.0849
 30
0.0
 10
5.97401
 20
8.0849
 30
0.0
 10
5.93059
 20
8.1255
 30
0.0
 10
5.88332
 20
8.15387
 30
0.0
 10
5.83222
 20
8.17004
 30
0.0
 10
5.83222
 20
8.17004
 30
0.0
 10
5.78111
 20
8.1862
 30
0.0
 10
5.72883
 20
8.1907
 30
0.0
 10
5.67538
 20
8.18353
 30
0.0
 10
5.67538
 20
8.18353
 30
0.0
 10
5.62194
 20
8.17635
 30
0.0
 10
5.56843
 20
8.15776
 30
0.0
 10
5.51486
 20
8.12776
 30
0.0
 10
5.51486
 20
8.12776
 30
0.0
 10
5.46129
 20
8.09776
 30
0.0
 10
5.41034
 20
8.05689
 30
0.0
 10
5.36197
 20
8.00515
 30
0.0
 10
5.36197
 20
8.00515
 30
0.0
 10
5.31361
 20
7.9534
 30
0.0
 10
5.27603
 20
7.90022
 30
0.0
 10
5.24926
 20
7.84563
 30
0.0
 10
5.24926
 20
7.84563
 30
0.0
 10
5.22246
 20
7.79103
 30
0.0
 10
5.20716
 20
7.73739
 30
0.0
 10
5.20336
 20
7.6847
 30
0.0
 10
5.20336
 20
7.6847
 30
0.0
 10
5.19955
 20
7.632
 30
0.0
 10
5.20708
 20
7.58124
 30
0.0
 10
5.22595
 20
7.53243
 30
0.0
 10
5.22595
 20
7.53243
 30
0.0
 10
5.24483
 20
7.48364
 30
0.0
 10
5.27552
 20
7.43938
 30
0.0
 10
5.31803
 20
7.39965
 30
0.0
 10
5.31803
 20
7.39965
 30
0.0
 10
5.3633
 20
7.35735
 30
0.0
 10
5.41096
 20
7.3273
 30
0.0
 10
5.46101
 20
7.30953
 30
0.0
 10
5.46101
 20
7.30953
 30
0.0
 10
5.51104
 20
7.29175
 30
0.0
 10
5.56201
 20
7.28611
 30
0.0
 10
5.61393
 20
7.29256
 30
0.0
 10
5.61393
 20
7.29256
 30
0.0
 10
5.66583
 20
7.299
 30
0.0
 10
5.71821
 20
7.31757
 30
0.0
 10
5.7711
 20
7.34821
 30
0.0
 10
5.7711
 20
7.34821
 30
0.0
 10
5.82397
 20
7.37885
 30
0.0
 10
5.87568
 20
7.42121
 30
0.0
 10
5.92619
 20
7.47526
 30
0.0
 10
5.92619
 20
7.47526
 30
0.0
 10
5.97713
 20
7.52978
 30
0.0
 10
6.01679
 20
7.58425
 30
0.0
 10
6.04515
 20
7.63868
 30
0.0
  0
SPLINE
  5
73
330
1F
100
AcDbEntity
  8
Layer 1
 62
   250
100
AcDbSpline
210
0.0
220
0.0
230
1.0
 70
    11
 71
     3
 72
    68
 73
    64
 74
     0
 42
0.0000000001
 43
0.0000000001
 40
0.0
 40
0.0
 40
0.0
 40
0.0
 40
0.0625
 40
0.0625
 40
0.0625
 40
0.0625
 40
0.125
 40
0.125
 40
0.125
 40
0.125
 40
0.1875
 40
0.1875
 40
0.1875
 40
0.1875
 40
0.25
 40
0.25
 40
0.25
 40
0.25
 40
0.3125
 40
0.3125
 40
0.3125
 40
0.3125
 40
0.375
 40
0.375
 40
0.375
 40
0.375
 40
0.4375
 40
0.4375
 40
0.4375
 40
0.4375
 40
0.5
 40
0.5
 40
0.5
 40
0.5
 40
0.5625
 40
0.5625
 40
0.5625
 40
0.5625
 40
0.625
 40
0.625
 40
0.625
 40
0.625
 40
0.6875
 40
0.6875
 40
0.6875
 40
0.6875
 40
0.75
 40
0.75
 40
0.75
 40
0.75
 40
0.8125
 40
0.8125
 40
0.8125
 40
0.8125
 40
0.875
 40
0.875
 40
0.875
 40
0.875
 40
0.9375
 40
0.9375
 40
0.9375
 40
0.9375
 40
1.0
 40
1.0
 40
1.0
 40
1.0
 10
5.86671
 20
7.19004
 30
0.0
 10
5.79245
 20
7.14995
 30
0.0
 10
5.71786
 20
7.12662
 30
0.0
 10
5.6429
 20
7.12005
 30
0.0
 10
5.6429
 20
7.12005
 30
0.0
 10
5.56796
 20
7.11349
 30
0.0
 10
5.49391
 20
7.12385
 30
0.0
 10
5.42073
 20
7.15112
 30
0.0
 10
5.42073
 20
7.15112
 30
0.0
 10
5.34754
 20
7.17841
 30
0.0
 10
5.27771
 20
7.22313
 30
0.0
 10
5.21117
 20
7.28531
 30
0.0
 10
5.21117
 20
7.28531
 30
0.0
 10
5.14741
 20
7.34488
 30
0.0
 10
5.09968
 20
7.40961
 30
0.0
 10
5.06803
 20
7.47945
 30
0.0
 10
5.06803
 20
7.47945
 30
0.0
 10
5.03634
 20
7.54929
 30
0.0
 10
5.02072
 20
7.62102
 30
0.0
 10
5.02115
 20
7.69464
 30
0.0
 10
5.02115
 20
7.69464
 30
0.0
 10
5.02156
 20
7.76824
 30
0.0
 10
5.03773
 20
7.84206
 30
0.0
 10
5.06969
 20
7.91606
 30
0.0
 10
5.06969
 20
7.91606
 30
0.0
 10
5.10164
 20
7.99008
 30
0.0
 10
5.14935
 20
8.06104
 30
0.0
 10
5.21282
 20
8.12895
 30
0.0
 10
5.21282
 20
8.12895
 30
0.0
 10
5.27932
 20
8.20011
 30
0.0
 10
5.34948
 20
8.2555
 30
0.0
 10
5.4233
 20
8.29512
 30
0.0
 10
5.4233
 20
8.29512
 30
0.0
 10
5.49713
 20
8.33476
 30
0.0
 10
5.57186
 20
8.35753
 30
0.0
 10
5.64749
 20
8.36345
 30
0.0
 10
5.64749
 20
8.36345
 30
0.0
 10
5.72312
 20
8.36935
 30
0.0
 10
5.79822
 20
8.35826
 30
0.0
 10
5.87276
 20
8.33013
 30
0.0
 10
5.87276
 20
8.33013
 30
0.0
 10
5.94732
 20
8.30201
 30
0.0
 10
6.01879
 20
8.256
 30
0.0
 10
6.08717
 20
8.19209
 30
0.0
 10
6.08717
 20
8.19209
 30
0.0
 10
6.14954
 20
8.1338
 30
0.0
 10
6.19599
 20
8.07004
 30
0.0
 10
6.22652
 20
8.00084
 30
0.0
 10
6.22652
 20
8.00084
 30
0.0
 10
6.25704
 20
7.93163
 30
0.0
 10
6.27175
 20
7.86054
 30
0.0
 10
6.27064
 20
7.78757
 30
0.0
 10
6.27064
 20
7.78757
 30
0.0
 10
6.26952
 20
7.7146
 30
0.0
 10
6.25298
 20
7.64157
 30
0.0
 10
6.221
 20
7.56845
 30
0.0
 10
6.221
 20
7.56845
 30
0.0
 10
6.18903
 20
7.49534
 30
0.0
 10
6.14195
 20
7.42552
 30
0.0
 10
6.07978
 20
7.35899
 30
0.0
 10
6.07978
 20
7.35899
 30
0.0
 10
6.01199
 20
7.28645
 30
0.0
 10
5.94097
 20
7.23014
 30
0.0
 10
5.86671
 20
7.19004
 30
0.0
  0
SPLINE
  5
74
330
1F
100
AcDbEntity
  8
Layer 1
 62
   250
100
AcDbSpline
210
0.0
220
0.0
230
1.0
 70
    11
 71
     3
 72
   124
 73
   120
 74
     0
 42
0.0000000001
 43
0.0000000001
 40
0.0
 40
0.0
 40
0.0
 40
0.0
 40
0.0333333333333333
 40
0.0333333333333333
 40
0.0333333333333333
 40
0.0333333333333333
 40
0.0666666666666667
 40
0.0666666666666667
 40
0.0666666666666667
 40
0.0666666666666667
 40
0.1
 40
0.1
 40
0.1
 40
0.1
 40
0.1333333333333333
 40
0.1333333333333333
 40
0.1333333333333333
 40
0.1333333333333333
 40
0.1666666666666667
 40
0.1666666666666667
 40
0.1666666666666667
 40
0.1666666666666667
 40
0.2
 40
0.2
 40
0.2
 40
0.2
 40
0.2333333333333333
 40
0.2333333333333333
 40
0.2333333333333333
 40
0.2333333333333333
 40
0.2666666666666667
 40
0.2666666666666667
 40
0.2666666666666667
 40
0.2666666666666667
 40
0.3
 40
0.3
 40
0.3
 40
0.3
 40
0.3333333333333333
 40
0.3333333333333333
 40
0.3333333333333333
 40
0.3333333333333333
 40
0.3666666666666666
 40
0.3666666666666666
 40
0.3666666666666666
 40
0.3666666666666666
 40
0.4
 40
0.4
 40
0.4
 40
0.4
 40
0.4333333333333333
 40
0.4333333333333333
 40
0.4333333333333333
 40
0.4333333333333333
 40
0.4666666666666666
 40
0.4666666666666666
 40
0.4666666666666666
 40
0.4666666666666666
 40
0.4999999999999999
 40
0.4999999999999999
 40
0.4999999999999999
 40
0.4999999999999999
 40
0.5333333333333333
 40
0.5333333333333333
 40
0.5333333333333333
 40
0.5333333333333333
 40
0.5666666666666667
 40
0.5666666666666667
 40
0.5666666666666667
 40
0.5666666666666667
 40
0.6
 40
0.6
 40
0.6
 40
0.6
 40
0.6333333333333333
 40
0.6333333333333333
 40
0.6333333333333333
 40
0.6333333333333333
 40
0.6666666666666666
 40
0.6666666666666666
 40
0.6666666666666666
 40
0.6666666666666666
 40
0.7
 40
0.7
 40
0.7
 40
0.7
 40
0.7333333333333333
 40
0.7333333333333333
 40
0.7333333333333333
 40
0.7333333333333333
 40
0.7666666666666666
 40
0.7666666666666666
 40
0.7666666666666666
 40
0.7666666666666666
 40
0.7999999999999999
 40
0.7999999999999999
 40
0.7999999999999999
 40
0.7999999999999999
 40
0.8333333333333333
 40
0.8333333333333333
 40
0.8333333333333333
 40
0.8333333333333333
 40
0.8666666666666666
 40
0.8666666666666666
 40
0.8666666666666666
 40
0.8666666666666666
 40
0.8999999999999999
 40
0.8999999999999999
 40
0.8999999999999999
 40
0.8999999999999999
 40
0.9333333333333332
 40
0.9333333333333332
 40
0.9333333333333332
 40
0.9333333333333332
 40
0.9666666666666666
 40
0.9666666666666666
 40
0.9666666666666666
 40
0.9666666666666666
 40
1.0
 40
1.0
 40
1.0
 40
1.0
 10
6.40125
 20
6.61546
 30
0.0
 10
6.3669
 20
6.56626
 30
0.0
 10
6.34391
 20
6.5151
 30
0.0
 10
6.33224
 20
6.46196
 30
0.0
 10
6.33224
 20
6.46196
 30
0.0
 10
6.32058
 20
6.40883
 30
0.0
 10
6.3206
 20
6.35512
 30
0.0
 10
6.33232
 20
6.30087
 30
0.0
 10
6.33232
 20
6.30087
 30
0.0
 10
6.34404
 20
6.24662
 30
0.0
 10
6.36798
 20
6.19433
 30
0.0
 10
6.40413
 20
6.14398
 30
0.0
 10
6.40413
 20
6.14398
 30
0.0
 10
6.43769
 20
6.09724
 30
0.0
 10
6.47714
 20
6.05532
 30
0.0
 10
6.52249
 20
6.0182
 30
0.0
 10
6.52249
 20
6.0182
 30
0.0
 10
6.56784
 20
5.98109
 30
0.0
 10
6.61718
 20
5.94977
 30
0.0
 10
6.67053
 20
5.92427
 30
0.0
 10
6.67053
 20
5.92427
 30
0.0
 10
6.67053
 20
5.92427
 30
0.0
 10
6.53416
 20
5.82632
 30
0.0
 10
6.53416
 20
5.82632
 30
0.0
 10
6.53416
 20
5.82632
 30
0.0
 10
6.48596
 20
5.85009
 30
0.0
 10
6.43944
 20
5.88207
 30
0.0
 10
6.39462
 20
5.92227
 30
0.0
 10
6.39462
 20
5.92227
 30
0.0
 10
6.34977
 20
5.96248
 30
0.0
 10
6.30707
 20
6.01083
 30
0.0
 10
6.2665
 20
6.06733
 30
0.0
 10
6.2665
 20
6.06733
 30
0.0
 10
6.21596
 20
6.13769
 30
0.0
 10
6.18191
 20
6.21113
 30
0.0
 10
6.16431
 20
6.28764
 30
0.0
 10
6.16431
 20
6.28764
 30
0.0
 10
6.14673
 20
6.36416
 30
0.0
 10
6.14481
 20
6.43947
 30
0.0
 10
6.15856
 20
6.51356
 30
0.0
 10
6.15856
 20
6.51356
 30
0.0
 10
6.17229
 20
6.58765
 30
0.0
 10
6.20145
 20
6.65842
 30
0.0
 10
6.24605
 20
6.72587
 30
0.0
 10
6.24605
 20
6.72587
 30
0.0
 10
6.29064
 20
6.79331
 30
0.0
 10
6.34991
 20
6.8536
 30
0.0
 10
6.42387
 20
6.90672
 30
0.0
 10
6.42387
 20
6.90672
 30
0.0
 10
6.49989
 20
6.96131
 30
0.0
 10
6.5789
 20
6.99899
 30
0.0
 10
6.66093
 20
7.01975
 30
0.0
 10
6.66093
 20
7.01975
 30
0.0
 10
6.74293
 20
7.0405
 30
0.0
 10
6.82301
 20
7.04526
 30
0.0
 10
6.90115
 20
7.03404
 30
0.0
 10
6.90115
 20
7.03404
 30
0.0
 10
6.97928
 20
7.02282
 30
0.0
 10
7.05317
 20
6.99608
 30
0.0
 10
7.12282
 20
6.95385
 30
0.0
 10
7.12282
 20
6.95385
 30
0.0
 10
7.19248
 20
6.91161
 30
0.0
 10
7.25293
 20
6.85481
 30
0.0
 10
7.3042
 20
6.78342
 30
0.0
 10
7.3042
 20
6.78342
 30
0.0
 10
7.32154
 20
6.75926
 30
0.0
 10
7.33765
 20
6.73387
 30
0.0
 10
7.35253
 20
6.70718
 30
0.0
 10
7.35253
 20
6.70718
 30
0.0
 10
7.36741
 20
6.6805
 30
0.0
 10
7.3809
 20
6.65358
 30
0.0
 10
7.39298
 20
6.62646
 30
0.0
 10
7.39298
 20
6.62646
 30
0.0
 10
7.40507
 20
6.59933
 30
0.0
 10
7.41556
 20
6.5728
 30
0.0
 10
7.42445
 20
6.54687
 30
0.0
 10
7.42445
 20
6.54687
 30
0.0
 10
7.43335
 20
6.52095
 30
0.0
 10
7.4402
 20
6.4965
 30
0.0
 10
7.44504
 20
6.4735
 30
0.0
 10
7.44504
 20
6.4735
 30
0.0
 10
7.44504
 20
6.4735
 30
0.0
 10
7.30945
 20
6.3761
 30
0.0
 10
7.30945
 20
6.3761
 30
0.0
 10
7.30945
 20
6.3761
 30
0.0
 10
7.30423
 20
6.39961
 30
0.0
 10
7.29755
 20
6.42519
 30
0.0
 10
7.28939
 20
6.45281
 30
0.0
 10
7.28939
 20
6.45281
 30
0.0
 10
7.28123
 20
6.48041
 30
0.0
 10
7.27164
 20
6.50816
 30
0.0
 10
7.26058
 20
6.53604
 30
0.0
 10
7.26058
 20
6.53604
 30
0.0
 10
7.24951
 20
6.5639
 30
0.0
 10
7.23692
 20
6.59145
 30
0.0
 10
7.22281
 20
6.61869
 30
0.0
 10
7.22281
 20
6.61869
 30
0.0
 10
7.2087
 20
6.64592
 30
0.0
 10
7.19334
 20
6.67109
 30
0.0
 10
7.17674
 20
6.6942
 30
0.0
 10
7.17674
 20
6.6942
 30
0.0
 10
7.14208
 20
6.74249
 30
0.0
 10
7.10051
 20
6.78056
 30
0.0
 10
7.05209
 20
6.80845
 30
0.0
 10
7.05209
 20
6.80845
 30
0.0
 10
7.00364
 20
6.83633
 30
0.0
 10
6.95133
 20
6.85306
 30
0.0
 10
6.89516
 20
6.85865
 30
0.0
 10
6.89516
 20
6.85865
 30
0.0
 10
6.83898
 20
6.86424
 30
0.0
 10
6.78022
 20
6.85825
 30
0.0
 10
6.71889
 20
6.84067
 30
0.0
 10
6.71889
 20
6.84067
 30
0.0
 10
6.65756
 20
6.82309
 30
0.0
 10
6.59684
 20
6.79272
 30
0.0
 10
6.53674
 20
6.74956
 30
0.0
 10
6.53674
 20
6.74956
 30
0.0
 10
6.48076
 20
6.70935
 30
0.0
 10
6.4356
 20
6.66465
 30
0.0
 10
6.40125
 20
6.61546
 30
0.0
  0
SPLINE
  5
75
330
1F
100
AcDbEntity
  8
Layer 1
 62
   250
100
AcDbSpline
210
0.0
220
0.0
230
1.0
 70
    11
 71
     3
 72
    20
 73
    16
 74
     0
 42
0.0000000001
 43
0.0000000001
 40
0.0
 40
0.0
 40
0.0
 40
0.0
 40
0.25
 40
0.25
 40
0.25
 40
0.25
 40
0.5
 40
0.5
 40
0.5
 40
0.5
 40
0.75
 40
0.75
 40
0.75
 40
0.75
 40
1.0
 40
1.0
 40
1.0
 40
1.0
 10
6.73423
 20
5.33591
 30
0.0
 10
6.73423
 20
5.33591
 30
0.0
 10
7.82236
 20
5.90378
 30
0.0
 10
7.82236
 20
5.90378
 30
0.0
 10
7.82236
 20
5.90378
 30
0.0
 10
7.82236
 20
5.90378
 30
0.0
 10
7.9088
 20
5.73813
 30
0.0
 10
7.9088
 20
5.73813
 30
0.0
 10
7.9088
 20
5.73813
 30
0.0
 10
7.9088
 20
5.73813
 30
0.0
 10
6.82068
 20
5.17026
 30
0.0
 10
6.82068
 20
5.17026
 30
0.0
 10
6.82068
 20
5.17026
 30
0.0
 10
6.82068
 20
5.17026
 30
0.0
 10
6.73423
 20
5.33591
 30
0.0
 10
6.73423
 20
5.33591
 30
0.0
  0
SPLINE
  5
76
330
1F
100
AcDbEntity
  8
Layer 1
 62
   250
100
AcDbSpline
210
0.0
220
0.0
230
1.0
 70
    11
 71
     3
 72
    36
 73
    32
 74
     0
 42
0.0000000001
 43
0.0000000001
 40
0.0
 40
0.0
 40
0.0
 40
0.0
 40
0.125
 40
0.125
 40
0.125
 40
0.125
 40
0.25
 40
0.25
 40
0.25
 40
0.25
 40
0.375
 40
0.375
 40
0.375
 40
0.375
 40
0.5
 40
0.5
 40
0.5
 40
0.5
 40
0.625
 40
0.625
 40
0.625
 40
0.625
 40
0.75
 40
0.75
 40
0.75
 40
0.75
 40
0.875
 40
0.875
 40
0.875
 40
0.875
 40
1.0
 40
1.0
 40
1.0
 40
1.0
 10
8.12793
 20
4.57753
 30
0.0
 10
8.14212
 20
4.5876
 30
0.0
 10
8.15735
 20
4.5972
 30
0.0
 10
8.17357
 20
4.60632
 30
0.0
 10
8.17357
 20
4.60632
 30
0.0
 10
8.17357
 20
4.60632
 30
0.0
 10
8.1723
 20
4.60989
 30
0.0
 10
8.1723
 20
4.60989
 30
0.0
 10
8.1723
 20
4.60989
 30
0.0
 10
8.15278
 20
4.60631
 30
0.0
 10
8.13432
 20
4.60395
 30
0.0
 10
8.11692
 20
4.6028
 30
0.0
 10
8.11692
 20
4.6028
 30
0.0
 10
8.09957
 20
4.60167
 30
0.0
 10
8.08475
 20
4.60128
 30
0.0
 10
8.07255
 20
4.60164
 30
0.0
 10
8.07255
 20
4.60164
 30
0.0
 10
8.07255
 20
4.60164
 30
0.0
 10
7.63476
 20
4.60418
 30
0.0
 10
7.63476
 20
4.60418
 30
0.0
 10
7.63476
 20
4.60418
 30
0.0
 10
7.63476
 20
4.60418
 30
0.0
 10
7.75446
 20
4.26719
 30
0.0
 10
7.75446
 20
4.26719
 30
0.0
 10
7.75446
 20
4.26719
 30
0.0
 10
7.75446
 20
4.26719
 30
0.0
 10
8.09571
 20
4.55348
 30
0.0
 10
8.09571
 20
4.55348
 30
0.0
 10
8.09571
 20
4.55348
 30
0.0
 10
8.10298
 20
4.55943
 30
0.0
 10
8.11374
 20
4.56743
 30
0.0
 10
8.12793
 20
4.57753
 30
0.0
  0
SPLINE
  5
77
330
1F
100
AcDbEntity
  8
Layer 1
 62
   250
100
AcDbSpline
210
0.0
220
0.0
230
1.0
 70
    11
 71
     3
 72
    36
 73
    32
 74
     0
 42
0.0000000001
 43
0.0000000001
 40
0.0
 40
0.0
 40
0.0
 40
0.0
 40
0.125
 40
0.125
 40
0.125
 40
0.125
 40
0.25
 40
0.25
 40
0.25
 40
0.25
 40
0.375
 40
0.375
 40
0.375
 40
0.375
 40
0.5
 40
0.5
 40
0.5
 40
0.5
 40
0.625
 40
0.625
 40
0.625
 40
0.625
 40
0.75
 40
0.75
 40
0.75
 40
0.75
 40
0.875
 40
0.875
 40
0.875
 40
0.875
 40
1.0
 40
1.0
 40
1.0
 40
1.0
 10
7.33384
 20
3.91241
 30
0.0
 10
7.33384
 20
3.91241
 30
0.0
 10
7.61943
 20
4.15983
 30
0.0
 10
7.61943
 20
4.15983
 30
0.0
 10
7.61943
 20
4.15983
 30
0.0
 10
7.61943
 20
4.15983
 30
0.0
 10
7.46131
 20
4.60499
 30
0.0
 10
7.46131
 20
4.60499
 30
0.0
 10
7.46131
 20
4.60499
 30
0.0
 10
7.46131
 20
4.60499
 30
0.0
 10
7.08681
 20
4.60788
 30
0.0
 10
7.08681
 20
4.60788
 30
0.0
 10
7.08681
 20
4.60788
 30
0.0
 10
7.08681
 20
4.60788
 30
0.0
 10
7.01981
 20
4.79648
 30
0.0
 10
7.01981
 20
4.79648
 30
0.0
 10
7.01981
 20
4.79648
 30
0.0
 10
7.01981
 20
4.79648
 30
0.0
 10
8.33593
 20
4.75861
 30
0.0
 10
8.33593
 20
4.75861
 30
0.0
 10
8.33593
 20
4.75861
 30
0.0
 10
8.33593
 20
4.75861
 30
0.0
 10
8.39625
 20
4.58877
 30
0.0
 10
8.39625
 20
4.58877
 30
0.0
 10
8.39625
 20
4.58877
 30
0.0
 10
8.39625
 20
4.58877
 30
0.0
 10
7.40083
 20
3.72379
 30
0.0
 10
7.40083
 20
3.72379
 30
0.0
 10
7.40083
 20
3.72379
 30
0.0
 10
7.40083
 20
3.72379
 30
0.0
 10
7.33384
 20
3.91241
 30
0.0
 10
7.33384
 20
3.91241
 30
0.0
  0
SPLINE
  5
78
330
1F
100
AcDbEntity
  8
Layer 1
 62
   250
100
AcDbSpline
210
0.0
220
0.0
230
1.0
 70
    11
 71
     3
 72
    36
 73
    32
 74
     0
 42
0.0000000001
 43
0.0000000001
 40
0.0
 40
0.0
 40
0.0
 40
0.0
 40
0.125
 40
0.125
 40
0.125
 40
0.125
 40
0.25
 40
0.25
 40
0.25
 40
0.25
 40
0.375
 40
0.375
 40
0.375
 40
0.375
 40
0.5
 40
0.5
 40
0.5
 40
0.5
 40
0.625
 40
0.625
 40
0.625
 40
0.625
 40
0.75
 40
0.75
 40
0.75
 40
0.75
 40
0.875
 40
0.875
 40
0.875
 40
0.875
 40
1.0
 40
1.0
 40
1.0
 40
1.0
 10
8.6062
 20
3.10491
 30
0.0
 10
8.6062
 20
3.10491
 30
0.0
 10
7.55398
 20
2.92161
 30
0.0
 10
7.55398
 20
2.92161
 30
0.0
 10
7.55398
 20
2.92161
 30
0.0
 10
7.55398
 20
2.92161
 30
0.0
 10
7.52208
 20
3.10476
 30
0.0
 10
7.52208
 20
3.10476
 30
0.0
 10
7.52208
 20
3.10476
 30
0.0
 10
7.52208
 20
3.10476
 30
0.0
 10
8.57431
 20
3.28807
 30
0.0
 10
8.57431
 20
3.28807
 30
0.0
 10
8.57431
 20
3.28807
 30
0.0
 10
8.57431
 20
3.28807
 30
0.0
 10
8.52091
 20
3.59457
 30
0.0
 10
8.52091
 20
3.59457
 30
0.0
 10
8.52091
 20
3.59457
 30
0.0
 10
8.52091
 20
3.59457
 30
0.0
 10
8.6779
 20
3.62192
 30
0.0
 10
8.6779
 20
3.62192
 30
0.0
 10
8.6779
 20
3.62192
 30
0.0
 10
8.6779
 20
3.62192
 30
0.0
 10
8.81628
 20
2.82762
 30
0.0
 10
8.81628
 20
2.82762
 30
0.0
 10
8.81628
 20
2.82762
 30
0.0
 10
8.81628
 20
2.82762
 30
0.0
 10
8.65927
 20
2.80026
 30
0.0
 10
8.65927
 20
2.80026
 30
0.0
 10
8.65927
 20
2.80026
 30
0.0
 10
8.65927
 20
2.80026
 30
0.0
 10
8.6062
 20
3.10491
 30
0.0
 10
8.6062
 20
3.10491
 30
0.0
  0
SPLINE
  5
79
330
1F
100
AcDbEntity
  8
Layer 1
 62
   250
100
AcDbSpline
210
0.0
220
0.0
230
1.0
 70
    11
 71
     3
 72
    20
 73
    16
 74
     0
 42
0.0000000001
 43
0.0000000001
 40
0.0
 40
0.0
 40
0.0
 40
0.0
 40
0.25
 40
0.25
 40
0.25
 40
0.25
 40
0.5
 40
0.5
 40
0.5
 40
0.5
 40
0.75
 40
0.75
 40
0.75
 40
0.75
 40
1.0
 40
1.0
 40
1.0
 40
1.0
 10
7.63978
 20
2.1245
 30
0.0
 10
7.63978
 20
2.1245
 30
0.0
 10
8.86614
 20
2.17626
 30
0.0
 10
8.86614
 20
2.17626
 30
0.0
 10
8.86614
 20
2.17626
 30
0.0
 10
8.86614
 20
2.17626
 30
0.0
 10
8.87402
 20
1.98956
 30
0.0
 10
8.87402
 20
1.98956
 30
0.0
 10
8.87402
 20
1.98956
 30
0.0
 10
8.87402
 20
1.98956
 30
0.0
 10
7.64766
 20
1.9378
 30
0.0
 10
7.64766
 20
1.9378
 30
0.0
 10
7.64766
 20
1.9378
 30
0.0
 10
7.64766
 20
1.9378
 30
0.0
 10
7.63978
 20
2.1245
 30
0.0
 10
7.63978
 20
2.1245
 30
0.0
  0
SPLINE
  5
7A
330
1F
100
AcDbEntity
  8
Layer 1
 62
   250
100
AcDbSpline
210
0.0
220
0.0
230
1.0
 70
    11
 71
     3
 72
    68
 73
    64
 74
     0
 42
0.0000000001
 43
0.0000000001
 40
0.0
 40
0.0
 40
0.0
 40
0.0
 40
0.0625
 40
0.0625
 40
0.0625
 40
0.0625
 40
0.125
 40
0.125
 40
0.125
 40
0.125
 40
0.1875
 40
0.1875
 40
0.1875
 40
0.1875
 40
0.25
 40
0.25
 40
0.25
 40
0.25
 40
0.3125
 40
0.3125
 40
0.3125
 40
0.3125
 40
0.375
 40
0.375
 40
0.375
 40
0.375
 40
0.4375
 40
0.4375
 40
0.4375
 40
0.4375
 40
0.5
 40
0.5
 40
0.5
 40
0.5
 40
0.5625
 40
0.5625
 40
0.5625
 40
0.5625
 40
0.625
 40
0.625
 40
0.625
 40
0.625
 40
0.6875
 40
0.6875
 40
0.6875
 40
0.6875
 40
0.75
 40
0.75
 40
0.75
 40
0.75
 40
0.8125
 40
0.8125
 40
0.8125
 40
0.8125
 40
0.875
 40
0.875
 40
0.875
 40
0.875
 40
0.9375
 40
0.9375
 40
0.9375
 40
0.9375
 40
1.0
 40
1.0
 40
1.0
 40
1.0
 10
8.36454
 20
0.38917
 30
0.0
 10
8.42515
 20
0.39876
 30
0.0
 10
8.4777
 20
0.41723
 30
0.0
 10
8.52223
 20
0.44459
 30
0.0
 10
8.52223
 20
0.44459
 30
0.0
 10
8.56672
 20
0.47193
 30
0.0
 10
8.60252
 20
0.50793
 30
0.0
 10
8.6296
 20
0.55257
 30
0.0
 10
8.6296
 20
0.55257
 30
0.0
 10
8.65668
 20
0.59718
 30
0.0
 10
8.67374
 20
0.65028
 30
0.0
 10
8.68081
 20
0.71185
 30
0.0
 10
8.68081
 20
0.71185
 30
0.0
 10
8.68759
 20
0.77091
 30
0.0
 10
8.68227
 20
0.82578
 30
0.0
 10
8.66485
 20
0.87647
 30
0.0
 10
8.66485
 20
0.87647
 30
0.0
 10
8.64744
 20
0.92716
 30
0.0
 10
8.61994
 20
0.97183
 30
0.0
 10
8.58237
 20
1.01053
 30
0.0
 10
8.58237
 20
1.01053
 30
0.0
 10
8.5448
 20
1.04921
 30
0.0
 10
8.49803
 20
1.08114
 30
0.0
 10
8.44205
 20
1.10634
 30
0.0
 10
8.44205
 20
1.10634
 30
0.0
 10
8.38606
 20
1.13154
 30
0.0
 10
8.32289
 20
1.14818
 30
0.0
 10
8.25252
 20
1.15626
 30
0.0
 10
8.25252
 20
1.15626
 30
0.0
 10
8.18216
 20
1.16432
 30
0.0
 10
8.11707
 20
1.16287
 30
0.0
 10
8.05725
 20
1.15193
 30
0.0
 10
8.05725
 20
1.15193
 30
0.0
 10
7.99744
 20
1.14096
 30
0.0
 10
7.94522
 20
1.12133
 30
0.0
 10
7.90061
 20
1.09305
 30
0.0
 10
7.90061
 20
1.09305
 30
0.0
 10
7.85598
 20
1.06474
 30
0.0
 10
7.8197
 20
1.02847
 30
0.0
 10
7.7917
 20
0.98429
 30
0.0
 10
7.7917
 20
0.98429
 30
0.0
 10
7.76372
 20
0.94007
 30
0.0
 10
7.74642
 20
0.88907
 30
0.0
 10
7.73977
 20
0.83127
 30
0.0
 10
7.73977
 20
0.83127
 30
0.0
 10
7.73271
 20
0.7697
 30
0.0
 10
7.73693
 20
0.71353
 30
0.0
 10
7.75243
 20
0.66274
 30
0.0
 10
7.75243
 20
0.66274
 30
0.0
 10
7.76793
 20
0.61196
 30
0.0
 10
7.7937
 20
0.56761
 30
0.0
 10
7.82979
 20
0.52974
 30
0.0
 10
7.82979
 20
0.52974
 30
0.0
 10
7.86584
 20
0.49188
 30
0.0
 10
7.91193
 20
0.46081
 30
0.0
 10
7.96803
 20
0.43657
 30
0.0
 10
7.96803
 20
0.43657
 30
0.0
 10
8.02412
 20
0.41231
 30
0.0
 10
8.08893
 20
0.39596
 30
0.0
 10
8.16241
 20
0.38753
 30
0.0
 10
8.16241
 20
0.38753
 30
0.0
 10
8.23656
 20
0.37902
 30
0.0
 10
8.30392
 20
0.37955
 30
0.0
 10
8.36454
 20
0.38917
 30
0.0
  0
SPLINE
  5
7B
330
1F
100
AcDbEntity
  8
Layer 1
 62
   250
100
AcDbSpline
210
0.0
220
0.0
230
1.0
 70
    11
 71
     3
 72
    68
 73
    64
 74
     0
 42
0.0000000001
 43
0.0000000001
 40
0.0
 40
0.0
 40
0.0
 40
0.0
 40
0.0625
 40
0.0625
 40
0.0625
 40
0.0625
 40
0.125
 40
0.125
 40
0.125
 40
0.125
 40
0.1875
 40
0.1875
 40
0.1875
 40
0.1875
 40
0.25
 40
0.25
 40
0.25
 40
0.25
 40
0.3125
 40
0.3125
 40
0.3125
 40
0.3125
 40
0.375
 40
0.375
 40
0.375
 40
0.375
 40
0.4375
 40
0.4375
 40
0.4375
 40
0.4375
 40
0.5
 40
0.5
 40
0.5
 40
0.5
 40
0.5625
 40
0.5625
 40
0.5625
 40
0.5625
 40
0.625
 40
0.625
 40
0.625
 40
0.625
 40
0.6875
 40
0.6875
 40
0.6875
 40
0.6875
 40
0.75
 40
0.75
 40
0.75
 40
0.75
 40
0.8125
 40
0.8125
 40
0.8125
 40
0.8125
 40
0.875
 40
0.875
 40
0.875
 40
0.875
 40
0.9375
 40
0.9375
 40
0.9375
 40
0.9375
 40
1.0
 40
1.0
 40
1.0
 40
1.0
 10
7.89782
 20
0.26559
 30
0.0
 10
7.82141
 20
0.30141
 30
0.0
 10
7.75826
 20
0.34748
 30
0.0
 10
7.70839
 20
0.4038
 30
0.0
 10
7.70839
 20
0.4038
 30
0.0
 10
7.65853
 20
0.46013
 30
0.0
 10
7.62278
 20
0.5258
 30
0.0
 10
7.60116
 20
0.60085
 30
0.0
 10
7.60116
 20
0.60085
 30
0.0
 10
7.57953
 20
0.67589
 30
0.0
 10
7.57391
 20
0.75864
 30
0.0
 10
7.58429
 20
0.8491
 30
0.0
 10
7.58429
 20
0.8491
 30
0.0
 10
7.59424
 20
0.9358
 30
0.0
 10
7.61784
 20
1.01265
 30
0.0
 10
7.65514
 20
1.07966
 30
0.0
 10
7.65514
 20
1.07966
 30
0.0
 10
7.69243
 20
1.14667
 30
0.0
 10
7.74077
 20
1.20192
 30
0.0
 10
7.80017
 20
1.24538
 30
0.0
 10
7.80017
 20
1.24538
 30
0.0
 10
7.85959
 20
1.28885
 30
0.0
 10
7.92853
 20
1.31977
 30
0.0
 10
8.00701
 20
1.33813
 30
0.0
 10
8.00701
 20
1.33813
 30
0.0
 10
8.08551
 20
1.3565
 30
0.0
 10
8.17093
 20
1.36038
 30
0.0
 10
8.26326
 20
1.34979
 30
0.0
 10
8.26326
 20
1.34979
 30
0.0
 10
8.36001
 20
1.33868
 30
0.0
 10
8.44628
 20
1.31526
 30
0.0
 10
8.52205
 20
1.27951
 30
0.0
 10
8.52205
 20
1.27951
 30
0.0
 10
8.59783
 20
1.24378
 30
0.0
 10
8.66061
 20
1.19727
 30
0.0
 10
8.71036
 20
1.14
 30
0.0
 10
8.71036
 20
1.14
 30
0.0
 10
8.76012
 20
1.08274
 30
0.0
 10
8.79589
 20
1.01579
 30
0.0
 10
8.81764
 20
0.93914
 30
0.0
 10
8.81764
 20
0.93914
 30
0.0
 10
8.83941
 20
0.8625
 30
0.0
 10
8.84496
 20
0.77768
 30
0.0
 10
8.83428
 20
0.6847
 30
0.0
 10
8.83428
 20
0.6847
 30
0.0
 10
8.82455
 20
0.59989
 30
0.0
 10
8.80096
 20
0.52462
 30
0.0
 10
8.76351
 20
0.45892
 30
0.0
 10
8.76351
 20
0.45892
 30
0.0
 10
8.72605
 20
0.39318
 30
0.0
 10
8.67767
 20
0.33907
 30
0.0
 10
8.61838
 20
0.29654
 30
0.0
 10
8.61838
 20
0.29654
 30
0.0
 10
8.55907
 20
0.25402
 30
0.0
 10
8.49054
 20
0.22386
 30
0.0
 10
8.41275
 20
0.20604
 30
0.0
 10
8.41275
 20
0.20604
 30
0.0
 10
8.33496
 20
0.18824
 30
0.0
 10
8.25084
 20
0.18452
 30
0.0
 10
8.16037
 20
0.19489
 30
0.0
 10
8.16037
 20
0.19489
 30
0.0
 10
8.06173
 20
0.20621
 30
0.0
 10
7.97421
 20
0.22977
 30
0.0
 10
7.89782
 20
0.26559
 30
0.0
  0
SPLINE
  5
7C
330
1F
100
AcDbEntity
  8
Layer 1
 62
   250
100
AcDbSpline
210
0.0
220
0.0
230
1.0
 70
    11
 71
     3
 72
    76
 73
    72
 74
     0
 42
0.0000000001
 43
0.0000000001
 40
0.0
 40
0.0
 40
0.0
 40
0.0
 40
0.0555555555555556
 40
0.0555555555555556
 40
0.0555555555555556
 40
0.0555555555555556
 40
0.1111111111111111
 40
0.1111111111111111
 40
0.1111111111111111
 40
0.1111111111111111
 40
0.1666666666666667
 40
0.1666666666666667
 40
0.1666666666666667
 40
0.1666666666666667
 40
0.2222222222222222
 40
0.2222222222222222
 40
0.2222222222222222
 40
0.2222222222222222
 40
0.2777777777777778
 40
0.2777777777777778
 40
0.2777777777777778
 40
0.2777777777777778
 40
0.3333333333333334
 40
0.3333333333333334
 40
0.3333333333333334
 40
0.3333333333333334
 40
0.388888888888889
 40
0.388888888888889
 40
0.388888888888889
 40
0.388888888888889
 40
0.4444444444444445
 40
0.4444444444444445
 40
0.4444444444444445
 40
0.4444444444444445
 40
0.5000000000000001
 40
0.5000000000000001
 40
0.5000000000000001
 40
0.5000000000000001
 40
0.5555555555555557
 40
0.5555555555555557
 40
0.5555555555555557
 40
0.5555555555555557
 40
0.6111111111111113
 40
0.6111111111111113
 40
0.6111111111111113
 40
0.6111111111111113
 40
0.6666666666666669
 40
0.6666666666666669
 40
0.6666666666666669
 40
0.6666666666666669
 40
0.7222222222222224
 40
0.7222222222222224
 40
0.7222222222222224
 40
0.7222222222222224
 40
0.777777777777778
 40
0.777777777777778
 40
0.777777777777778
 40
0.777777777777778
 40
0.8333333333333336
 40
0.8333333333333336
 40
0.8333333333333336
 40
0.8333333333333336
 40
0.8888888888888892
 40
0.8888888888888892
 40
0.8888888888888892
 40
0.8888888888888892
 40
0.9444444444444448
 40
0.9444444444444448
 40
0.9444444444444448
 40
0.9444444444444448
 40
1.0
 40
1.0
 40
1.0
 40
1.0
 10
7.13731
 20
-1.06374
 30
0.0
 10
7.13731
 20
-1.06374
 30
0.0
 10
8.08403
 20
-0.74896
 30
0.0
 10
8.08403
 20
-0.74896
 30
0.0
 10
8.08403
 20
-0.74896
 30
0.0
 10
8.09024
 20
-0.74637
 30
0.0
 10
8.10234
 20
-0.74261
 30
0.0
 10
8.12036
 20
-0.73766
 30
0.0
 10
8.12036
 20
-0.73766
 30
0.0
 10
8.12036
 20
-0.73766
 30
0.0
 10
8.17905
 20
-0.7224
 30
0.0
 10
8.17905
 20
-0.7224
 30
0.0
 10
8.17905
 20
-0.7224
 30
0.0
 10
8.17905
 20
-0.7224
 30
0.0
 10
8.24104
 20
-0.70775
 30
0.0
 10
8.24104
 20
-0.70775
 30
0.0
 10
8.24104
 20
-0.70775
 30
0.0
 10
8.26125
 20
-0.7032
 30
0.0
 10
8.27664
 20
-0.70005
 30
0.0
 10
8.28726
 20
-0.69828
 30
0.0
 10
8.28726
 20
-0.69828
 30
0.0
 10
8.28726
 20
-0.69828
 30
0.0
 10
7.36493
 20
-0.38774
 30
0.0
 10
7.36493
 20
-0.38774
 30
0.0
 10
7.36493
 20
-0.38774
 30
0.0
 10
7.36493
 20
-0.38774
 30
0.0
 10
7.42002
 20
-0.22412
 30
0.0
 10
7.42002
 20
-0.22412
 30
0.0
 10
7.42002
 20
-0.22412
 30
0.0
 10
7.42002
 20
-0.22412
 30
0.0
 10
8.58327
 20
-0.61579
 30
0.0
 10
8.58327
 20
-0.61579
 30
0.0
 10
8.58327
 20
-0.61579
 30
0.0
 10
8.58327
 20
-0.61579
 30
0.0
 10
8.52061
 20
-0.80187
 30
0.0
 10
8.52061
 20
-0.80187
 30
0.0
 10
8.52061
 20
-0.80187
 30
0.0
 10
8.52061
 20
-0.80187
 30
0.0
 10
7.60875
 20
-1.09936
 30
0.0
 10
7.60875
 20
-1.09936
 30
0.0
 10
7.60875
 20
-1.09936
 30
0.0
 10
7.60875
 20
-1.09936
 30
0.0
 10
7.55273
 20
-1.11554
 30
0.0
 10
7.55273
 20
-1.11554
 30
0.0
 10
7.55273
 20
-1.11554
 30
0.0
 10
7.55273
 20
-1.11554
 30
0.0
 10
7.487
 20
-1.13244
 30
0.0
 10
7.487
 20
-1.13244
 30
0.0
 10
7.487
 20
-1.13244
 30
0.0
 10
7.487
 20
-1.13244
 30
0.0
 10
7.42411
 20
-1.14679
 30
0.0
 10
7.42411
 20
-1.14679
 30
0.0
 10
7.42411
 20
-1.14679
 30
0.0
 10
7.4043
 20
-1.15113
 30
0.0
 10
7.38841
 20
-1.1543
 30
0.0
 10
7.37639
 20
-1.15624
 30
0.0
 10
7.37639
 20
-1.15624
 30
0.0
 10
7.37639
 20
-1.15624
 30
0.0
 10
8.29692
 20
-1.46619
 30
0.0
 10
8.29692
 20
-1.46619
 30
0.0
 10
8.29692
 20
-1.46619
 30
0.0
 10
8.29692
 20
-1.46619
 30
0.0
 10
8.24214
 20
-1.6289
 30
0.0
 10
8.24214
 20
-1.6289
 30
0.0
 10
8.24214
 20
-1.6289
 30
0.0
 10
8.24214
 20
-1.6289
 30
0.0
 10
7.0789
 20
-1.23723
 30
0.0
 10
7.0789
 20
-1.23723
 30
0.0
 10
7.0789
 20
-1.23723
 30
0.0
 10
7.0789
 20
-1.23723
 30
0.0
 10
7.13731
 20
-1.06374
 30
0.0
 10
7.13731
 20
-1.06374
 30
0.0
  0
SPLINE
  5
7D
330
1F
100
AcDbEntity
  8
Layer 1
 62
   250
100
AcDbSpline
210
0.0
220
0.0
230
1.0
 70
    11
 71
     3
 72
   196
 73
   192
 74
     0
 42
0.0000000001
 43
0.0000000001
 40
0.0
 40
0.0
 40
0.0
 40
0.0
 40
0.0208333333333333
 40
0.0208333333333333
 40
0.0208333333333333
 40
0.0208333333333333
 40
0.0416666666666667
 40
0.0416666666666667
 40
0.0416666666666667
 40
0.0416666666666667
 40
0.0625
 40
0.0625
 40
0.0625
 40
0.0625
 40
0.0833333333333333
 40
0.0833333333333333
 40
0.0833333333333333
 40
0.0833333333333333
 40
0.1041666666666667
 40
0.1041666666666667
 40
0.1041666666666667
 40
0.1041666666666667
 40
0.125
 40
0.125
 40
0.125
 40
0.125
 40
0.1458333333333333
 40
0.1458333333333333
 40
0.1458333333333333
 40
0.1458333333333333
 40
0.1666666666666667
 40
0.1666666666666667
 40
0.1666666666666667
 40
0.1666666666666667
 40
0.1875
 40
0.1875
 40
0.1875
 40
0.1875
 40
0.2083333333333333
 40
0.2083333333333333
 40
0.2083333333333333
 40
0.2083333333333333
 40
0.2291666666666667
 40
0.2291666666666667
 40
0.2291666666666667
 40
0.2291666666666667
 40
0.25
 40
0.25
 40
0.25
 40
0.25
 40
0.2708333333333333
 40
0.2708333333333333
 40
0.2708333333333333
 40
0.2708333333333333
 40
0.2916666666666666
 40
0.2916666666666666
 40
0.2916666666666666
 40
0.2916666666666666
 40
0.3124999999999999
 40
0.3124999999999999
 40
0.3124999999999999
 40
0.3124999999999999
 40
0.3333333333333333
 40
0.3333333333333333
 40
0.3333333333333333
 40
0.3333333333333333
 40
0.3541666666666666
 40
0.3541666666666666
 40
0.3541666666666666
 40
0.3541666666666666
 40
0.3749999999999999
 40
0.3749999999999999
 40
0.3749999999999999
 40
0.3749999999999999
 40
0.3958333333333332
 40
0.3958333333333332
 40
0.3958333333333332
 40
0.3958333333333332
 40
0.4166666666666665
 40
0.4166666666666665
 40
0.4166666666666665
 40
0.4166666666666665
 40
0.4374999999999998
 40
0.4374999999999998
 40
0.4374999999999998
 40
0.4374999999999998
 40
0.4583333333333331
 40
0.4583333333333331
 40
0.4583333333333331
 40
0.4583333333333331
 40
0.4791666666666665
 40
0.4791666666666665
 40
0.4791666666666665
 40
0.4791666666666665
 40
0.4999999999999998
 40
0.4999999999999998
 40
0.4999999999999998
 40
0.4999999999999998
 40
0.5208333333333331
 40
0.5208333333333331
 40
0.5208333333333331
 40
0.5208333333333331
 40
0.5416666666666665
 40
0.5416666666666665
 40
0.5416666666666665
 40
0.5416666666666665
 40
0.5624999999999999
 40
0.5624999999999999
 40
0.5624999999999999
 40
0.5624999999999999
 40
0.5833333333333333
 40
0.5833333333333333
 40
0.5833333333333333
 40
0.5833333333333333
 40
0.6041666666666666
 40
0.6041666666666666
 40
0.6041666666666666
 40
0.6041666666666666
 40
0.625
 40
0.625
 40
0.625
 40
0.625
 40
0.6458333333333334
 40
0.6458333333333334
 40
0.6458333333333334
 40
0.6458333333333334
 40
0.6666666666666667
 40
0.6666666666666667
 40
0.6666666666666667
 40
0.6666666666666667
 40
0.6875000000000001
 40
0.6875000000000001
 40
0.6875000000000001
 40
0.6875000000000001
 40
0.7083333333333335
 40
0.7083333333333335
 40
0.7083333333333335
 40
0.7083333333333335
 40
0.7291666666666669
 40
0.7291666666666669
 40
0.7291666666666669
 40
0.7291666666666669
 40
0.7500000000000002
 40
0.7500000000000002
 40
0.7500000000000002
 40
0.7500000000000002
 40
0.7708333333333336
 40
0.7708333333333336
 40
0.7708333333333336
 40
0.7708333333333336
 40
0.791666666666667
 40
0.791666666666667
 40
0.791666666666667
 40
0.791666666666667
 40
0.8125000000000003
 40
0.8125000000000003
 40
0.8125000000000003
 40
0.8125000000000003
 40
0.8333333333333337
 40
0.8333333333333337
 40
0.8333333333333337
 40
0.8333333333333337
 40
0.8541666666666671
 40
0.8541666666666671
 40
0.8541666666666671
 40
0.8541666666666671
 40
0.8750000000000004
 40
0.8750000000000004
 40
0.8750000000000004
 40
0.8750000000000004
 40
0.8958333333333338
 40
0.8958333333333338
 40
0.8958333333333338
 40
0.8958333333333338
 40
0.9166666666666672
 40
0.9166666666666672
 40
0.9166666666666672
 40
0.9166666666666672
 40
0.9375000000000006
 40
0.9375000000000006
 40
0.9375000000000006
 40
0.9375000000000006
 40
0.9583333333333339
 40
0.9583333333333339
 40
0.9583333333333339
 40
0.9583333333333339
 40
0.9791666666666673
 40
0.9791666666666673
 40
0.9791666666666673
 40
0.9791666666666673
 40
1.0
 40
1.0
 40
1.0
 40
1.0
 10
-1.93819
 20
3.22208
 30
0.0
 10
-1.95269
 20
3.18545
 30
0.0
 10
-1.97402
 20
3.15357
 30
0.0
 10
-2.00222
 20
3.12644
 30
0.0
 10
-2.00222
 20
3.12644
 30
0.0
 10
-2.03041
 20
3.0993
 30
0.0
 10
-2.06546
 20
3.07796
 30
0.0
 10
-2.10735
 20
3.06241
 30
0.0
 10
-2.10735
 20
3.06241
 30
0.0
 10
-2.14925
 20
3.04687
 30
0.0
 10
-2.19786
 20
3.03908
 30
0.0
 10
-2.25319
 20
3.03908
 30
0.0
 10
-2.25319
 20
3.03908
 30
0.0
 10
-2.28007
 20
3.03908
 30
0.0
 10
-2.30681
 20
3.0408
 30
0.0
 10
-2.33342
 20
3.04423
 30
0.0
 10
-2.33342
 20
3.04423
 30
0.0
 10
-2.36004
 20
3.04765
 30
0.0
 10
-2.38534
 20
3.05266
 30
0.0
 10
-2.40931
 20
3.05924
 30
0.0
 10
-2.40931
 20
3.05924
 30
0.0
 10
-2.43329
 20
3.06583
 30
0.0
 10
-2.45555
 20
3.07347
 30
0.0
 10
-2.4761
 20
3.08217
 30
0.0
 10
-2.4761
 20
3.08217
 30
0.0
 10
-2.49666
 20
3.09087
 30
0.0
 10
-2.51458
 20
3.10021
 30
0.0
 10
-2.52986
 20
3.11023
 30
0.0
 10
-2.52986
 20
3.11023
 30
0.0
 10
-2.52986
 20
3.11023
 30
0.0
 10
-2.52986
 20
3.26833
 30
0.0
 10
-2.52986
 20
3.26833
 30
0.0
 10
-2.52986
 20
3.26833
 30
0.0
 10
-2.51299
 20
3.25621
 30
0.0
 10
-2.4931
 20
3.24422
 30
0.0
 10
-2.47018
 20
3.23236
 30
0.0
 10
-2.47018
 20
3.23236
 30
0.0
 10
-2.44725
 20
3.22051
 30
0.0
 10
-2.42314
 20
3.20996
 30
0.0
 10
-2.39785
 20
3.20073
 30
0.0
 10
-2.39785
 20
3.20073
 30
0.0
 10
-2.37256
 20
3.19152
 30
0.0
 10
-2.34739
 20
3.18401
 30
0.0
 10
-2.32236
 20
3.17821
 30
0.0
 10
-2.32236
 20
3.17821
 30
0.0
 10
-2.29732
 20
3.17241
 30
0.0
 10
-2.2748
 20
3.16951
 30
0.0
 10
-2.25477
 20
3.16951
 30
0.0
 10
-2.25477
 20
3.16951
 30
0.0
 10
-2.2242
 20
3.16951
 30
0.0
 10
-2.19746
 20
3.17333
 30
0.0
 10
-2.17454
 20
3.18097
 30
0.0
 10
-2.17454
 20
3.18097
 30
0.0
 10
-2.15161
 20
3.18862
 30
0.0
 10
-2.13238
 20
3.19956
 30
0.0
 10
-2.11684
 20
3.21378
 30
0.0
 10
-2.11684
 20
3.21378
 30
0.0
 10
-2.10129
 20
3.22801
 30
0.0
 10
-2.0897
 20
3.24501
 30
0.0
 10
-2.08206
 20
3.26477
 30
0.0
 10
-2.08206
 20
3.26477
 30
0.0
 10
-2.07441
 20
3.28453
 30
0.0
 10
-2.07059
 20
3.30626
 30
0.0
 10
-2.07059
 20
3.32999
 30
0.0
 10
-2.07059
 20
3.32999
 30
0.0
 10
-2.07059
 20
3.35686
 30
0.0
 10
-2.07547
 20
3.37951
 30
0.0
 10
-2.08522
 20
3.39796
 30
0.0
 10
-2.08522
 20
3.39796
 30
0.0
 10
-2.09496
 20
3.4164
 30
0.0
 10
-2.1088
 20
3.43248
 30
0.0
 10
-2.12672
 20
3.44618
 30
0.0
 10
-2.12672
 20
3.44618
 30
0.0
 10
-2.14463
 20
3.45988
 30
0.0
 10
-2.16624
 20
3.47227
 30
0.0
 10
-2.19154
 20
3.48334
 30
0.0
 10
-2.19154
 20
3.48334
 30
0.0
 10
-2.21683
 20
3.4944
 30
0.0
 10
-2.24502
 20
3.50599
 30
0.0
 10
-2.27612
 20
3.51811
 30
0.0
 10
-2.27612
 20
3.51811
 30
0.0
 10
-2.3188
 20
3.53498
 30
0.0
 10
-2.35675
 20
3.55197
 30
0.0
 10
-2.38995
 20
3.5691
 30
0.0
 10
-2.38995
 20
3.5691
 30
0.0
 10
-2.42314
 20
3.58622
 30
0.0
 10
-2.45108
 20
3.60572
 30
0.0
 10
-2.47374
 20
3.62759
 30
0.0
 10
-2.47374
 20
3.62759
 30
0.0
 10
-2.49639
 20
3.64947
 30
0.0
 10
-2.51365
 20
3.67475
 30
0.0
 10
-2.52551
 20
3.70347
 30
0.0
 10
-2.52551
 20
3.70347
 30
0.0
 10
-2.53737
 20
3.7322
 30
0.0
 10
-2.5433
 20
3.76632
 30
0.0
 10
-2.5433
 20
3.80584
 30
0.0
 10
-2.5433
 20
3.80584
 30
0.0
 10
-2.5433
 20
3.84905
 30
0.0
 10
-2.5346
 20
3.88819
 30
0.0
 10
-2.51721
 20
3.92323
 30
0.0
 10
-2.51721
 20
3.92323
 30
0.0
 10
-2.49983
 20
3.95827
 30
0.0
 10
-2.4761
 20
3.98805
 30
0.0
 10
-2.44607
 20
4.01255
 30
0.0
 10
-2.44607
 20
4.01255
 30
0.0
 10
-2.41603
 20
4.03706
 30
0.0
 10
-2.38086
 20
4.05603
 30
0.0
 10
-2.34054
 20
4.06947
 30
0.0
 10
-2.34054
 20
4.06947
 30
0.0
 10
-2.30023
 20
4.08291
 30
0.0
 10
-2.25714
 20
4.08962
 30
0.0
 10
-2.2113
 20
4.08962
 30
0.0
 10
-2.2113
 20
4.08962
 30
0.0
 10
-2.16229
 20
4.08962
 30
0.0
 10
-2.11803
 20
4.08514
 30
0.0
 10
-2.0785
 20
4.07618
 30
0.0
 10
-2.0785
 20
4.07618
 30
0.0
 10
-2.03897
 20
4.06722
 30
0.0
 10
-2.00288
 20
4.05589
 30
0.0
 10
-1.9702
 20
4.0422
 30
0.0
 10
-1.9702
 20
4.0422
 30
0.0
 10
-1.9702
 20
4.0422
 30
0.0
 10
-1.9702
 20
3.89991
 30
0.0
 10
-1.9702
 20
3.89991
 30
0.0
 10
-1.9702
 20
3.89991
 30
0.0
 10
-1.98548
 20
3.90729
 30
0.0
 10
-2.00314
 20
3.9144
 30
0.0
 10
-2.02317
 20
3.92125
 30
0.0
 10
-2.02317
 20
3.92125
 30
0.0
 10
-2.04319
 20
3.9281
 30
0.0
 10
-2.06427
 20
3.93429
 30
0.0
 10
-2.08641
 20
3.93983
 30
0.0
 10
-2.08641
 20
3.93983
 30
0.0
 10
-2.10854
 20
3.94537
 30
0.0
 10
-2.13067
 20
3.94984
 30
0.0
 10
-2.1528
 20
3.95327
 30
0.0
 10
-2.1528
 20
3.95327
 30
0.0
 10
-2.17494
 20
3.95669
 30
0.0
 10
-2.19602
 20
3.9584
 30
0.0
 10
-2.21605
 20
3.9584
 30
0.0
 10
-2.21605
 20
3.9584
 30
0.0
 10
-2.24398
 20
3.9584
 30
0.0
 10
-2.26874
 20
3.95485
 30
0.0
 10
-2.29034
 20
3.94773
 30
0.0
 10
-2.29034
 20
3.94773
 30
0.0
 10
-2.31195
 20
3.94062
 30
0.0
 10
-2.33026
 20
3.93074
 30
0.0
 10
-2.34529
 20
3.91809
 30
0.0
 10
-2.34529
 20
3.91809
 30
0.0
 10
-2.3603
 20
3.90544
 30
0.0
 10
-2.37163
 20
3.89029
 30
0.0
 10
-2.37927
 20
3.87264
 30
0.0
 10
-2.37927
 20
3.87264
 30
0.0
 10
-2.38691
 20
3.85499
 30
0.0
 10
-2.39073
 20
3.83562
 30
0.0
 10
-2.39073
 20
3.81454
 30
0.0
 10
-2.39073
 20
3.81454
 30
0.0
 10
-2.39073
 20
3.79083
 30
0.0
 10
-2.38573
 20
3.77041
 30
0.0
 10
-2.37572
 20
3.75328
 30
0.0
 10
-2.37572
 20
3.75328
 30
0.0
 10
-2.36571
 20
3.73615
 30
0.0
 10
-2.35147
 20
3.72087
 30
0.0
 10
-2.33303
 20
3.70743
 30
0.0
 10
-2.33303
 20
3.70743
 30
0.0
 10
-2.31458
 20
3.694
 30
0.0
 10
-2.29233
 20
3.68161
 30
0.0
 10
-2.26624
 20
3.67028
 30
0.0
 10
-2.26624
 20
3.67028
 30
0.0
 10
-2.24016
 20
3.65895
 30
0.0
 10
-2.21104
 20
3.64696
 30
0.0
 10
-2.17889
 20
3.63431
 30
0.0
 10
-2.17889
 20
3.63431
 30
0.0
 10
-2.13779
 20
3.61797
 30
0.0
 10
-2.10103
 20
3.60098
 30
0.0
 10
-2.06862
 20
3.58333
 30
0.0
 10
-2.06862
 20
3.58333
 30
0.0
 10
-2.03621
 20
3.56568
 30
0.0
 10
-2.00881
 20
3.54538
 30
0.0
 10
-1.98641
 20
3.52246
 30
0.0
 10
-1.98641
 20
3.52246
 30
0.0
 10
-1.96402
 20
3.49954
 30
0.0
 10
-1.94675
 20
3.47319
 30
0.0
 10
-1.93463
 20
3.44342
 30
0.0
 10
-1.93463
 20
3.44342
 30
0.0
 10
-1.92251
 20
3.41364
 30
0.0
 10
-1.91646
 20
3.379
 30
0.0
 10
-1.91646
 20
3.33946
 30
0.0
 10
-1.91646
 20
3.33946
 30
0.0
 10
-1.91646
 20
3.29784
 30
0.0
 10
-1.9237
 20
3.25871
 30
0.0
 10
-1.93819
 20
3.22208
 30
0.0
  0
SPLINE
  5
7E
330
1F
100
AcDbEntity
  8
Layer 1
 62
   250
100
AcDbSpline
210
0.0
220
0.0
230
1.0
 70
    11
 71
     3
 72
    20
 73
    16
 74
     0
 42
0.0000000001
 43
0.0000000001
 40
0.0
 40
0.0
 40
0.0
 40
0.0
 40
0.25
 40
0.25
 40
0.25
 40
0.25
 40
0.5
 40
0.5
 40
0.5
 40
0.5
 40
0.75
 40
0.75
 40
0.75
 40
0.75
 40
1.0
 40
1.0
 40
1.0
 40
1.0
 10
-1.54114
 20
4.07618
 30
0.0
 10
-1.54114
 20
4.07618
 30
0.0
 10
-1.38541
 20
4.07618
 30
0.0
 10
-1.38541
 20
4.07618
 30
0.0
 10
-1.38541
 20
4.07618
 30
0.0
 10
-1.38541
 20
4.07618
 30
0.0
 10
-1.38541
 20
3.05332
 30
0.0
 10
-1.38541
 20
3.05332
 30
0.0
 10
-1.38541
 20
3.05332
 30
0.0
 10
-1.38541
 20
3.05332
 30
0.0
 10
-1.54114
 20
3.05332
 30
0.0
 10
-1.54114
 20
3.05332
 30
0.0
 10
-1.54114
 20
3.05332
 30
0.0
 10
-1.54114
 20
3.05332
 30
0.0
 10
-1.54114
 20
4.07618
 30
0.0
 10
-1.54114
 20
4.07618
 30
0.0
  0
SPLINE
  5
7F
330
1F
100
AcDbEntity
  8
Layer 1
 62
   250
100
AcDbSpline
210
0.0
220
0.0
230
1.0
 70
    11
 71
     3
 72
    76
 73
    72
 74
     0
 42
0.0000000001
 43
0.0000000001
 40
0.0
 40
0.0
 40
0.0
 40
0.0
 40
0.0555555555555556
 40
0.0555555555555556
 40
0.0555555555555556
 40
0.0555555555555556
 40
0.1111111111111111
 40
0.1111111111111111
 40
0.1111111111111111
 40
0.1111111111111111
 40
0.1666666666666667
 40
0.1666666666666667
 40
0.1666666666666667
 40
0.1666666666666667
 40
0.2222222222222222
 40
0.2222222222222222
 40
0.2222222222222222
 40
0.2222222222222222
 40
0.2777777777777778
 40
0.2777777777777778
 40
0.2777777777777778
 40
0.2777777777777778
 40
0.3333333333333334
 40
0.3333333333333334
 40
0.3333333333333334
 40
0.3333333333333334
 40
0.388888888888889
 40
0.388888888888889
 40
0.388888888888889
 40
0.388888888888889
 40
0.4444444444444445
 40
0.4444444444444445
 40
0.4444444444444445
 40
0.4444444444444445
 40
0.5000000000000001
 40
0.5000000000000001
 40
0.5000000000000001
 40
0.5000000000000001
 40
0.5555555555555557
 40
0.5555555555555557
 40
0.5555555555555557
 40
0.5555555555555557
 40
0.6111111111111113
 40
0.6111111111111113
 40
0.6111111111111113
 40
0.6111111111111113
 40
0.6666666666666669
 40
0.6666666666666669
 40
0.6666666666666669
 40
0.6666666666666669
 40
0.7222222222222224
 40
0.7222222222222224
 40
0.7222222222222224
 40
0.7222222222222224
 40
0.777777777777778
 40
0.777777777777778
 40
0.777777777777778
 40
0.777777777777778
 40
0.8333333333333336
 40
0.8333333333333336
 40
0.8333333333333336
 40
0.8333333333333336
 40
0.8888888888888892
 40
0.8888888888888892
 40
0.8888888888888892
 40
0.8888888888888892
 40
0.9444444444444448
 40
0.9444444444444448
 40
0.9444444444444448
 40
0.9444444444444448
 40
1.0
 40
1.0
 40
1.0
 40
1.0
 10
-0.20382
 20
3.05332
 30
0.0
 10
-0.20382
 20
3.05332
 30
0.0
 10
-0.70419
 20
3.71731
 30
0.0
 10
-0.70419
 20
3.71731
 30
0.0
 10
-0.70419
 20
3.71731
 30
0.0
 10
-0.70788
 20
3.72153
 30
0.0
 10
-0.71407
 20
3.73009
 30
0.0
 10
-0.72276
 20
3.743
 30
0.0
 10
-0.72276
 20
3.743
 30
0.0
 10
-0.72276
 20
3.743
 30
0.0
 10
-0.75043
 20
3.78529
 30
0.0
 10
-0.75043
 20
3.78529
 30
0.0
 10
-0.75043
 20
3.78529
 30
0.0
 10
-0.75043
 20
3.78529
 30
0.0
 10
-0.77849
 20
3.83035
 30
0.0
 10
-0.77849
 20
3.83035
 30
0.0
 10
-0.77849
 20
3.83035
 30
0.0
 10
-0.78745
 20
3.8451
 30
0.0
 10
-0.79404
 20
3.85643
 30
0.0
 10
-0.79825
 20
3.86433
 30
0.0
 10
-0.79825
 20
3.86433
 30
0.0
 10
-0.79825
 20
3.86433
 30
0.0
 10
-0.79825
 20
3.05332
 30
0.0
 10
-0.79825
 20
3.05332
 30
0.0
 10
-0.79825
 20
3.05332
 30
0.0
 10
-0.79825
 20
3.05332
 30
0.0
 10
-0.94212
 20
3.05332
 30
0.0
 10
-0.94212
 20
3.05332
 30
0.0
 10
-0.94212
 20
3.05332
 30
0.0
 10
-0.94212
 20
3.05332
 30
0.0
 10
-0.94212
 20
4.07618
 30
0.0
 10
-0.94212
 20
4.07618
 30
0.0
 10
-0.94212
 20
4.07618
 30
0.0
 10
-0.94212
 20
4.07618
 30
0.0
 10
-0.77849
 20
4.07618
 30
0.0
 10
-0.77849
 20
4.07618
 30
0.0
 10
-0.77849
 20
4.07618
 30
0.0
 10
-0.77849
 20
4.07618
 30
0.0
 10
-0.30105
 20
3.43511
 30
0.0
 10
-0.30105
 20
3.43511
 30
0.0
 10
-0.30105
 20
3.43511
 30
0.0
 10
-0.30105
 20
3.43511
 30
0.0
 10
-0.27338
 20
3.39519
 30
0.0
 10
-0.27338
 20
3.39519
 30
0.0
 10
-0.27338
 20
3.39519
 30
0.0
 10
-0.27338
 20
3.39519
 30
0.0
 10
-0.24256
 20
3.34777
 30
0.0
 10
-0.24256
 20
3.34777
 30
0.0
 10
-0.24256
 20
3.34777
 30
0.0
 10
-0.24256
 20
3.34777
 30
0.0
 10
-0.2145
 20
3.30192
 30
0.0
 10
-0.2145
 20
3.30192
 30
0.0
 10
-0.2145
 20
3.30192
 30
0.0
 10
-0.2058
 20
3.28743
 30
0.0
 10
-0.19909
 20
3.2757
 30
0.0
 10
-0.19434
 20
3.26674
 30
0.0
 10
-0.19434
 20
3.26674
 30
0.0
 10
-0.19434
 20
3.26674
 30
0.0
 10
-0.19434
 20
4.07618
 30
0.0
 10
-0.19434
 20
4.07618
 30
0.0
 10
-0.19434
 20
4.07618
 30
0.0
 10
-0.19434
 20
4.07618
 30
0.0
 10
-0.05126
 20
4.07618
 30
0.0
 10
-0.05126
 20
4.07618
 30
0.0
 10
-0.05126
 20
4.07618
 30
0.0
 10
-0.05126
 20
4.07618
 30
0.0
 10
-0.05126
 20
3.05332
 30
0.0
 10
-0.05126
 20
3.05332
 30
0.0
 10
-0.05126
 20
3.05332
 30
0.0
 10
-0.05126
 20
3.05332
 30
0.0
 10
-0.20382
 20
3.05332
 30
0.0
 10
-0.20382
 20
3.05332
 30
0.0
  0
SPLINE
  5
80
330
1F
100
AcDbEntity
  8
Layer 1
 62
   250
100
AcDbSpline
210
0.0
220
0.0
230
1.0
 70
    11
 71
     3
 72
   124
 73
   120
 74
     0
 42
0.0000000001
 43
0.0000000001
 40
0.0
 40
0.0
 40
0.0
 40
0.0
 40
0.0333333333333333
 40
0.0333333333333333
 40
0.0333333333333333
 40
0.0333333333333333
 40
0.0666666666666667
 40
0.0666666666666667
 40
0.0666666666666667
 40
0.0666666666666667
 40
0.1
 40
0.1
 40
0.1
 40
0.1
 40
0.1333333333333333
 40
0.1333333333333333
 40
0.1333333333333333
 40
0.1333333333333333
 40
0.1666666666666667
 40
0.1666666666666667
 40
0.1666666666666667
 40
0.1666666666666667
 40
0.2
 40
0.2
 40
0.2
 40
0.2
 40
0.2333333333333333
 40
0.2333333333333333
 40
0.2333333333333333
 40
0.2333333333333333
 40
0.2666666666666667
 40
0.2666666666666667
 40
0.2666666666666667
 40
0.2666666666666667
 40
0.3
 40
0.3
 40
0.3
 40
0.3
 40
0.3333333333333333
 40
0.3333333333333333
 40
0.3333333333333333
 40
0.3333333333333333
 40
0.3666666666666666
 40
0.3666666666666666
 40
0.3666666666666666
 40
0.3666666666666666
 40
0.4
 40
0.4
 40
0.4
 40
0.4
 40
0.4333333333333333
 40
0.4333333333333333
 40
0.4333333333333333
 40
0.4333333333333333
 40
0.4666666666666666
 40
0.4666666666666666
 40
0.4666666666666666
 40
0.4666666666666666
 40
0.4999999999999999
 40
0.4999999999999999
 40
0.4999999999999999
 40
0.4999999999999999
 40
0.5333333333333333
 40
0.5333333333333333
 40
0.5333333333333333
 40
0.5333333333333333
 40
0.5666666666666667
 40
0.5666666666666667
 40
0.5666666666666667
 40
0.5666666666666667
 40
0.6
 40
0.6
 40
0.6
 40
0.6
 40
0.6333333333333333
 40
0.6333333333333333
 40
0.6333333333333333
 40
0.6333333333333333
 40
0.6666666666666666
 40
0.6666666666666666
 40
0.6666666666666666
 40
0.6666666666666666
 40
0.7
 40
0.7
 40
0.7
 40
0.7
 40
0.7333333333333333
 40
0.7333333333333333
 40
0.7333333333333333
 40
0.7333333333333333
 40
0.7666666666666666
 40
0.7666666666666666
 40
0.7666666666666666
 40
0.7666666666666666
 40
0.7999999999999999
 40
0.7999999999999999
 40
0.7999999999999999
 40
0.7999999999999999
 40
0.8333333333333333
 40
0.8333333333333333
 40
0.8333333333333333
 40
0.8333333333333333
 40
0.8666666666666666
 40
0.8666666666666666
 40
0.8666666666666666
 40
0.8666666666666666
 40
0.8999999999999999
 40
0.8999999999999999
 40
0.8999999999999999
 40
0.8999999999999999
 40
0.9333333333333332
 40
0.9333333333333332
 40
0.9333333333333332
 40
0.9333333333333332
 40
0.9666666666666666
 40
0.9666666666666666
 40
0.9666666666666666
 40
0.9666666666666666
 40
1.0
 40
1.0
 40
1.0
 40
1.0
 10
0.52681
 20
3.39678
 30
0.0
 10
0.54341
 20
3.34961
 30
0.0
 10
0.56686
 20
3.30916
 30
0.0
 10
0.59716
 20
3.27544
 30
0.0
 10
0.59716
 20
3.27544
 30
0.0
 10
0.62746
 20
3.24171
 30
0.0
 10
0.66382
 20
3.21562
 30
0.0
 10
0.70624
 20
3.19718
 30
0.0
 10
0.70624
 20
3.19718
 30
0.0
 10
0.74867
 20
3.17873
 30
0.0
 10
0.7957
 20
3.16952
 30
0.0
 10
0.84734
 20
3.16952
 30
0.0
 10
0.84734
 20
3.16952
 30
0.0
 10
0.89531
 20
3.16952
 30
0.0
 10
0.94286
 20
3.17584
 30
0.0
 10
0.99002
 20
3.18849
 30
0.0
 10
0.99002
 20
3.18849
 30
0.0
 10
1.03719
 20
3.20114
 30
0.0
 10
1.08238
 20
3.21931
 30
0.0
 10
1.12559
 20
3.24303
 30
0.0
 10
1.12559
 20
3.24303
 30
0.0
 10
1.12559
 20
3.24303
 30
0.0
 10
1.12559
 20
3.10312
 30
0.0
 10
1.12559
 20
3.10312
 30
0.0
 10
1.12559
 20
3.10312
 30
0.0
 10
1.08606
 20
3.08203
 30
0.0
 10
1.04181
 20
3.06609
 30
0.0
 10
0.9928
 20
3.05529
 30
0.0
 10
0.9928
 20
3.05529
 30
0.0
 10
0.94379
 20
3.04449
 30
0.0
 10
0.89029
 20
3.03909
 30
0.0
 10
0.83232
 20
3.03909
 30
0.0
 10
0.83232
 20
3.03909
 30
0.0
 10
0.76012
 20
3.03909
 30
0.0
 10
0.69386
 20
3.05174
 30
0.0
 10
0.63352
 20
3.07704
 30
0.0
 10
0.63352
 20
3.07704
 30
0.0
 10
0.57318
 20
3.10232
 30
0.0
 10
0.52127
 20
3.13764
 30
0.0
 10
0.4778
 20
3.18295
 30
0.0
 10
0.4778
 20
3.18295
 30
0.0
 10
0.43433
 20
3.22827
 30
0.0
 10
0.4006
 20
3.28242
 30
0.0
 10
0.37662
 20
3.34539
 30
0.0
 10
0.37662
 20
3.34539
 30
0.0
 10
0.35264
 20
3.40837
 30
0.0
 10
0.34065
 20
3.4778
 30
0.0
 10
0.34065
 20
3.55369
 30
0.0
 10
0.34065
 20
3.55369
 30
0.0
 10
0.34065
 20
3.63168
 30
0.0
 10
0.35356
 20
3.70348
 30
0.0
 10
0.37939
 20
3.76909
 30
0.0
 10
0.37939
 20
3.76909
 30
0.0
 10
0.40521
 20
3.8347
 30
0.0
 10
0.44091
 20
3.89122
 30
0.0
 10
0.4865
 20
3.93865
 30
0.0
 10
0.4865
 20
3.93865
 30
0.0
 10
0.53207
 20
3.98607
 30
0.0
 10
0.58609
 20
4.02309
 30
0.0
 10
0.64854
 20
4.0497
 30
0.0
 10
0.64854
 20
4.0497
 30
0.0
 10
0.71098
 20
4.07632
 30
0.0
 10
0.77884
 20
4.08962
 30
0.0
 10
0.85209
 20
4.08962
 30
0.0
 10
0.85209
 20
4.08962
 30
0.0
 10
0.87686
 20
4.08962
 30
0.0
 10
0.90188
 20
4.08818
 30
0.0
 10
0.92718
 20
4.08528
 30
0.0
 10
0.92718
 20
4.08528
 30
0.0
 10
0.95246
 20
4.08237
 30
0.0
 10
0.97723
 20
4.07842
 30
0.0
 10
1.00147
 20
4.07342
 30
0.0
 10
1.00147
 20
4.07342
 30
0.0
 10
1.02572
 20
4.06841
 30
0.0
 10
1.04878
 20
4.06261
 30
0.0
 10
1.07065
 20
4.05603
 30
0.0
 10
1.07065
 20
4.05603
 30
0.0
 10
1.09252
 20
4.04944
 30
0.0
 10
1.11242
 20
4.04219
 30
0.0
 10
1.13034
 20
4.03429
 30
0.0
 10
1.13034
 20
4.03429
 30
0.0
 10
1.13034
 20
4.03429
 30
0.0
 10
1.13034
 20
3.89517
 30
0.0
 10
1.13034
 20
3.89517
 30
0.0
 10
1.13034
 20
3.89517
 30
0.0
 10
1.11189
 20
3.90308
 30
0.0
 10
1.09134
 20
3.91098
 30
0.0
 10
1.06868
 20
3.91887
 30
0.0
 10
1.06868
 20
3.91887
 30
0.0
 10
1.04602
 20
3.92679
 30
0.0
 10
1.02256
 20
3.93377
 30
0.0
 10
0.99831
 20
3.93982
 30
0.0
 10
0.99831
 20
3.93982
 30
0.0
 10
0.97407
 20
3.94589
 30
0.0
 10
0.9493
 20
3.95077
 30
0.0
 10
0.92402
 20
3.95445
 30
0.0
 10
0.92402
 20
3.95445
 30
0.0
 10
0.89872
 20
3.95814
 30
0.0
 10
0.87422
 20
3.95999
 30
0.0
 10
0.85051
 20
3.95999
 30
0.0
 10
0.85051
 20
3.95999
 30
0.0
 10
0.80097
 20
3.95999
 30
0.0
 10
0.75499
 20
3.95037
 30
0.0
 10
0.71257
 20
3.93114
 30
0.0
 10
0.71257
 20
3.93114
 30
0.0
 10
0.67014
 20
3.91189
 30
0.0
 10
0.63339
 20
3.88463
 30
0.0
 10
0.6023
 20
3.84932
 30
0.0
 10
0.6023
 20
3.84932
 30
0.0
 10
0.57121
 20
3.81401
 30
0.0
 10
0.5467
 20
3.77133
 30
0.0
 10
0.52878
 20
3.72127
 30
0.0
 10
0.52878
 20
3.72127
 30
0.0
 10
0.51085
 20
3.6712
 30
0.0
 10
0.5019
 20
3.61534
 30
0.0
 10
0.5019
 20
3.55369
 30
0.0
 10
0.5019
 20
3.55369
 30
0.0
 10
0.5019
 20
3.49624
 30
0.0
 10
0.51021
 20
3.44394
 30
0.0
 10
0.52681
 20
3.39678
 30
0.0
  0
SPLINE
  5
81
330
1F
100
AcDbEntity
  8
Layer 1
 62
   250
100
AcDbSpline
210
0.0
220
0.0
230
1.0
 70
    11
 71
     3
 72
    52
 73
    48
 74
     0
 42
0.0000000001
 43
0.0000000001
 40
0.0
 40
0.0
 40
0.0
 40
0.0
 40
0.0833333333333333
 40
0.0833333333333333
 40
0.0833333333333333
 40
0.0833333333333333
 40
0.1666666666666667
 40
0.1666666666666667
 40
0.1666666666666667
 40
0.1666666666666667
 40
0.25
 40
0.25
 40
0.25
 40
0.25
 40
0.3333333333333333
 40
0.3333333333333333
 40
0.3333333333333333
 40
0.3333333333333333
 40
0.4166666666666666
 40
0.4166666666666666
 40
0.4166666666666666
 40
0.4166666666666666
 40
0.4999999999999999
 40
0.4999999999999999
 40
0.4999999999999999
 40
0.4999999999999999
 40
0.5833333333333333
 40
0.5833333333333333
 40
0.5833333333333333
 40
0.5833333333333333
 40
0.6666666666666666
 40
0.6666666666666666
 40
0.6666666666666666
 40
0.6666666666666666
 40
0.75
 40
0.75
 40
0.75
 40
0.75
 40
0.8333333333333334
 40
0.8333333333333334
 40
0.8333333333333334
 40
0.8333333333333334
 40
0.9166666666666667
 40
0.9166666666666667
 40
0.9166666666666667
 40
0.9166666666666667
 40
1.0
 40
1.0
 40
1.0
 40
1.0
 10
1.51355
 20
3.05332
 30
0.0
 10
1.51355
 20
3.05332
 30
0.0
 10
1.51355
 20
4.07618
 30
0.0
 10
1.51355
 20
4.07618
 30
0.0
 10
1.51355
 20
4.07618
 30
0.0
 10
1.51355
 20
4.07618
 30
0.0
 10
2.02339
 20
4.07618
 30
0.0
 10
2.02339
 20
4.07618
 30
0.0
 10
2.02339
 20
4.07618
 30
0.0
 10
2.02339
 20
4.07618
 30
0.0
 10
2.02339
 20
3.94339
 30
0.0
 10
2.02339
 20
3.94339
 30
0.0
 10
2.02339
 20
3.94339
 30
0.0
 10
2.02339
 20
3.94339
 30
0.0
 10
1.66768
 20
3.94339
 30
0.0
 10
1.66768
 20
3.94339
 30
0.0
 10
1.66768
 20
3.94339
 30
0.0
 10
1.66768
 20
3.94339
 30
0.0
 10
1.66768
 20
3.63274
 30
0.0
 10
1.66768
 20
3.63274
 30
0.0
 10
1.66768
 20
3.63274
 30
0.0
 10
1.66768
 20
3.63274
 30
0.0
 10
2.02498
 20
3.63274
 30
0.0
 10
2.02498
 20
3.63274
 30
0.0
 10
2.02498
 20
3.63274
 30
0.0
 10
2.02498
 20
3.63274
 30
0.0
 10
2.02498
 20
3.50151
 30
0.0
 10
2.02498
 20
3.50151
 30
0.0
 10
2.02498
 20
3.50151
 30
0.0
 10
2.02498
 20
3.50151
 30
0.0
 10
1.66768
 20
3.50151
 30
0.0
 10
1.66768
 20
3.50151
 30
0.0
 10
1.66768
 20
3.50151
 30
0.0
 10
1.66768
 20
3.50151
 30
0.0
 10
1.66768
 20
3.18453
 30
0.0
 10
1.66768
 20
3.18453
 30
0.0
 10
1.66768
 20
3.18453
 30
0.0
 10
1.66768
 20
3.18453
 30
0.0
 10
2.02498
 20
3.18453
 30
0.0
 10
2.02498
 20
3.18453
 30
0.0
 10
2.02498
 20
3.18453
 30
0.0
 10
2.02498
 20
3.18453
 30
0.0
 10
2.02498
 20
3.05332
 30
0.0
 10
2.02498
 20
3.05332
 30
0.0
 10
2.02498
 20
3.05332
 30
0.0
 10
2.02498
 20
3.05332
 30
0.0
 10
1.51355
 20
3.05332
 30
0.0
 10
1.51355
 20
3.05332
 30
0.0
  0
SPLINE
  5
82
330
1F
100
AcDbEntity
  8
Layer 1
 62
   250
370
   211
100
AcDbSpline
210
0.0
220
0.0
230
1.0
 70
    11
 71
     3
 72
    36
 73
    32
 74
     0
 42
0.0000000001
 43
0.0000000001
 40
0.0
 40
0.0
 40
0.0
 40
0.0
 40
0.125
 40
0.125
 40
0.125
 40
0.125
 40
0.25
 40
0.25
 40
0.25
 40
0.25
 40
0.375
 40
0.375
 40
0.375
 40
0.375
 40
0.5
 40
0.5
 40
0.5
 40
0.5
 40
0.625
 40
0.625
 40
0.625
 40
0.625
 40
0.75
 40
0.75
 40
0.75
 40
0.75
 40
0.875
 40
0.875
 40
0.875
 40
0.875
 40
1.0
 40
1.0
 40
1.0
 40
1.0
 10
-5.83864
 20
-1.46896
 30
0.0
 10
-5.83864
 20
-1.46896
 30
0.0
 10
-8.6903
 20
-3.26564
 30
0.0
 10
-8.6903
 20
-3.26564
 30
0.0
 10
-8.6903
 20
-3.26564
 30
0.0
 10
-8.75621
 20
-3.31848
 30
0.0
 10
-8.7668
 20
-3.41476
 30
0.0
 10
-8.71397
 20
-3.48066
 30
0.0
 10
-8.71397
 20
-3.48066
 30
0.0
 10
-8.71397
 20
-3.48066
 30
0.0
 10
-6.71846
 20
-5.95424
 30
0.0
 10
-6.71846
 20
-5.95424
 30
0.0
 10
-6.71846
 20
-5.95424
 30
0.0
 10
-6.66562
 20
-6.02016
 30
0.0
 10
-6.56935
 20
-6.03076
 30
0.0
 10
-6.50343
 20
-5.97791
 30
0.0
 10
-6.50343
 20
-5.97791
 30
0.0
 10
-6.50343
 20
-5.97791
 30
0.0
 10
-4.17188
 20
-3.56931
 30
0.0
 10
-4.17188
 20
-3.56931
 30
0.0
 10
-4.17188
 20
-3.56931
 30
0.0
 10
-4.10597
 20
-3.51647
 30
0.0
 10
-4.09537
 20
-3.4202
 30
0.0
 10
-4.14823
 20
-3.35427
 30
0.0
 10
-4.14823
 20
-3.35427
 30
0.0
 10
-4.14823
 20
-3.35427
 30
0.0
 10
-5.62361
 20
-1.49262
 30
0.0
 10
-5.62361
 20
-1.49262
 30
0.0
 10
-5.62361
 20
-1.49262
 30
0.0
 10
-5.67646
 20
-1.42672
 30
0.0
 10
-5.77273
 20
-1.41612
 30
0.0
 10
-5.83864
 20
-1.46896
 30
0.0
  0
SPLINE
  5
83
330
1F
100
AcDbEntity
  8
Layer 1
 62
   250
370
   211
100
AcDbSpline
210
0.0
220
0.0
230
1.0
 70
     8
 71
     3
 72
    40
 73
    36
 74
     0
 42
0.0000000001
 43
0.0000000001
 40
0.0
 40
0.0
 40
0.0
 40
0.0
 40
0.1111111111111111
 40
0.1111111111111111
 40
0.1111111111111111
 40
0.1111111111111111
 40
0.2222222222222222
 40
0.2222222222222222
 40
0.2222222222222222
 40
0.2222222222222222
 40
0.3333333333333333
 40
0.3333333333333333
 40
0.3333333333333333
 40
0.3333333333333333
 40
0.4444444444444444
 40
0.4444444444444444
 40
0.4444444444444444
 40
0.4444444444444444
 40
0.5555555555555556
 40
0.5555555555555556
 40
0.5555555555555556
 40
0.5555555555555556
 40
0.6666666666666667
 40
0.6666666666666667
 40
0.6666666666666667
 40
0.6666666666666667
 40
0.7777777777777779
 40
0.7777777777777779
 40
0.7777777777777779
 40
0.7777777777777779
 40
0.8888888888888891
 40
0.8888888888888891
 40
0.8888888888888891
 40
0.8888888888888891
 40
1.0
 40
1.0
 40
1.0
 40
1.0
 10
-6.78123
 20
-2.74887
 30
0.0
 10
-6.78123
 20
-2.74887
 30
0.0
 10
-6.15768
 20
-2.32298
 30
0.0
 10
-6.15768
 20
-2.32298
 30
0.0
 10
-6.15768
 20
-2.32298
 30
0.0
 10
-6.11467
 20
-2.28851
 30
0.0
 10
-6.05186
 20
-2.29542
 30
0.0
 10
-6.0174
 20
-2.33842
 30
0.0
 10
-6.0174
 20
-2.33842
 30
0.0
 10
-6.0174
 20
-2.33842
 30
0.0
 10
-5.04271
 20
-3.52259
 30
0.0
 10
-5.04271
 20
-3.52259
 30
0.0
 10
-5.04271
 20
-3.52259
 30
0.0
 10
-5.00823
 20
-3.56559
 30
0.0
 10
-5.01514
 20
-3.62842
 30
0.0
 10
-5.05815
 20
-3.6629
 30
0.0
 10
-5.05815
 20
-3.6629
 30
0.0
 10
-5.05815
 20
-3.6629
 30
0.0
 10
-6.39852
 20
-5.09328
 30
0.0
 10
-6.39852
 20
-5.09328
 30
0.0
 10
-6.39852
 20
-5.09328
 30
0.0
 10
-6.44153
 20
-5.12777
 30
0.0
 10
-6.50435
 20
-5.12085
 30
0.0
 10
-6.53883
 20
-5.07784
 30
0.0
 10
-6.53883
 20
-5.07784
 30
0.0
 10
-6.53883
 20
-5.07784
 30
0.0
 10
-7.81948
 20
-3.58771
 30
0.0
 10
-7.81948
 20
-3.58771
 30
0.0
 10
-7.81948
 20
-3.58771
 30
0.0
 10
-7.85395
 20
-3.54471
 30
0.0
 10
-7.84702
 20
-3.48191
 30
0.0
 10
-7.80403
 20
-3.44742
 30
0.0
 10
-7.80403
 20
-3.44742
 30
0.0
 10
-7.80403
 20
-3.44742
 30
0.0
 10
-7.09484
 20
-2.96307
 30
0.0
 10
-7.09484
 20
-2.96307
 30
0.0
  0
SPLINE
  5
84
330
1F
100
AcDbEntity
  8
Layer 1
 62
   250
370
   211
100
AcDbSpline
210
0.0
220
0.0
230
1.0
 70
     8
 71
     3
 72
     8
 73
     4
 74
     0
 42
0.0000000001
 43
0.0000000001
 40
0.0
 40
0.0
 40
0.0
 40
0.0
 40
1.0
 40
1.0
 40
1.0
 40
1.0
 10
-6.48507
 20
-5.95894
 30
0.0
 10
-5.17576
 20
-7.07248
 30
0.0
 10
-3.59722
 20
-7.8323
 30
0.0
 10
-1.91266
 20
-8.16225
 30
0.0
  0
SPLINE
  5
85
330
1F
100
AcDbEntity
  8
Layer 1
 62
   250
370
   211
100
AcDbSpline
210
0.0
220
0.0
230
1.0
 70
     8
 71
     3
 72
    24
 73
    20
 74
     0
 42
0.0000000001
 43
0.0000000001
 40
0.0
 40
0.0
 40
0.0
 40
0.0
 40
0.2
 40
0.2
 40
0.2
 40
0.2
 40
0.4
 40
0.4
 40
0.4
 40
0.4
 40
0.6000000000000001
 40
0.6000000000000001
 40
0.6000000000000001
 40
0.6000000000000001
 40
0.8
 40
0.8
 40
0.8
 40
0.8
 40
1.0
 40
1.0
 40
1.0
 40
1.0
 10
3.34241
 20
-7.77012
 30
0.0
 10
3.36804
 20
-7.76101
 30
0.0
 10
3.39367
 20
-7.75181
 30
0.0
 10
3.41928
 20
-7.74248
 30
0.0
 10
3.41928
 20
-7.74248
 30
0.0
 10
8.60764
 20
-5.85408
 30
0.0
 10
11.28281
 20
-0.11723
 30
0.0
 10
9.39438
 20
5.07119
 30
0.0
 10
9.39438
 20
5.07119
 30
0.0
 10
7.50597
 20
10.25954
 30
0.0
 10
1.7691
 20
12.9347
 30
0.0
 10
-3.41928
 20
11.04628
 30
0.0
 10
-3.41928
 20
11.04628
 30
0.0
 10
-8.60766
 20
9.15787
 30
0.0
 10
-11.2828
 20
3.42099
 30
0.0
 10
-9.39439
 20
-1.76739
 30
0.0
 10
-9.39439
 20
-1.76739
 30
0.0
 10
-9.2017
 20
-2.2968
 30
0.0
 10
-8.96893
 20
-2.80005
 30
0.0
 10
-8.70077
 20
-3.27495
 30
0.0
  0
SPLINE
  5
86
330
1F
100
AcDbEntity
  8
Layer 1
 62
   250
370
   211
100
AcDbSpline
210
0.0
220
0.0
230
1.0
 70
     8
 71
     3
 72
    24
 73
    20
 74
     0
 42
0.0000000001
 43
0.0000000001
 40
0.0
 40
0.0
 40
0.0
 40
0.0
 40
0.2
 40
0.2
 40
0.2
 40
0.2
 40
0.4
 40
0.4
 40
0.4
 40
0.4
 40
0.6000000000000001
 40
0.6000000000000001
 40
0.6000000000000001
 40
0.6000000000000001
 40
0.8
 40
0.8
 40
0.8
 40
0.8
 40
1.0
 40
1.0
 40
1.0
 40
1.0
 10
-8.24831
 20
-2.98713
 30
0.0
 10
-8.49642
 20
-2.54471
 30
0.0
 10
-8.71216
 20
-2.07644
 30
0.0
 10
-8.89129
 20
-1.58428
 30
0.0
 10
-8.89129
 20
-1.58428
 30
0.0
 10
-10.67857
 20
3.32625
 30
0.0
 10
-8.14669
 20
8.75589
 30
0.0
 10
-3.23617
 20
10.54318
 30
0.0
 10
-3.23617
 20
10.54318
 30
0.0
 10
1.67437
 20
12.33047
 30
0.0
 10
7.10401
 20
9.79858
 30
0.0
 10
8.89131
 20
4.88807
 30
0.0
 10
8.89131
 20
4.88807
 30
0.0
 10
10.67858
 20
-0.02249
 30
0.0
 10
8.14669
 20
-5.45211
 30
0.0
 10
3.23616
 20
-7.23939
 30
0.0
 10
3.23616
 20
-7.23939
 30
0.0
 10
2.59456
 20
-7.47293
 30
0.0
 10
1.9441
 20
-7.6327
 30
0.0
 10
1.29406
 20
-7.72309
 30
0.0
  0
SPLINE
  5
87
330
1F
100
AcDbEntity
  8
Layer 1
 62
   250
370
   211
100
AcDbSpline
210
0.0
220
0.0
230
1.0
 70
     8
 71
     3
 72
     8
 73
     4
 74
     0
 42
0.0000000001
 43
0.0000000001
 40
0.0
 40
0.0
 40
0.0
 40
0.0
 40
1.0
 40
1.0
 40
1.0
 40
1.0
 10
-1.94523
 20
-7.60922
 30
0.0
 10
-3.47777
 20
-7.28581
 30
0.0
 10
-4.91286
 20
-6.58561
 30
0.0
 10
-6.11182
 20
-5.57334
 30
0.0
  0
SPLINE
  5
88
330
1F
100
AcDbEntity
  8
Layer 1
 62
   250
370
   211
100
AcDbSpline
210
0.0
220
0.0
230
1.0
 70
     8
 71
     3
 72
     8
 73
     4
 74
     0
 42
0.0000000001
 43
0.0000000001
 40
0.0
 40
0.0
 40
0.0
 40
0.0
 40
1.0
 40
1.0
 40
1.0
 40
1.0
 10
-4.51063
 20
-3.91854
 30
0.0
 10
-3.7509
 20
-4.53448
 30
0.0
 10
-2.8627
 20
-4.99815
 30
0.0
 10
-1.89245
 20
-5.26307
 30
0.0
  0
SPLINE
  5
89
330
1F
100
AcDbEntity
  8
Layer 1
 62
   250
370
   211
100
AcDbSpline
210
0.0
220
0.0
230
1.0
 70
     8
 71
     3
 72
    20
 73
    16
 74
     0
 42
0.0000000001
 43
0.0000000001
 40
0.0
 40
0.0
 40
0.0
 40
0.0
 40
0.25
 40
0.25
 40
0.25
 40
0.25
 40
0.5
 40
0.5
 40
0.5
 40
0.5
 40
0.75
 40
0.75
 40
0.75
 40
0.75
 40
1.0
 40
1.0
 40
1.0
 40
1.0
 10
1.26353
 20
-5.40453
 30
0.0
 10
4.61936
 20
-4.80769
 30
0.0
 10
7.16743
 20
-1.87546
 30
0.0
 10
7.16743
 20
1.65189
 30
0.0
 10
7.16743
 20
1.65189
 30
0.0
 10
7.16743
 20
5.61036
 30
0.0
 10
3.95846
 20
8.81934
 30
0.0
 10
0.00001
 20
8.81934
 30
0.0
 10
0.00001
 20
8.81934
 30
0.0
 10
-3.95847
 20
8.81934
 30
0.0
 10
-7.16744
 20
5.61036
 30
0.0
 10
-7.16744
 20
1.65189
 30
0.0
 10
-7.16744
 20
1.65189
 30
0.0
 10
-7.16744
 20
0.4159
 30
0.0
 10
-6.85459
 20
-0.74702
 30
0.0
 10
-6.30375
 20
-1.76199
 30
0.0
  0
SPLINE
  5
8A
330
1F
100
AcDbEntity
  8
Layer 1
 62
   250
370
   211
100
AcDbSpline
210
0.0
220
0.0
230
1.0
 70
     8
 71
     3
 72
     8
 73
     4
 74
     0
 42
0.0000000001
 43
0.0000000001
 40
0.0
 40
0.0
 40
0.0
 40
0.0
 40
1.0
 40
1.0
 40
1.0
 40
1.0
 10
-1.73494
 20
-4.73752
 30
0.0
 10
-2.62146
 20
-4.49737
 30
0.0
 10
-3.43413
 20
-4.07765
 30
0.0
 10
-4.13153
 20
-3.51981
 30
0.0
  0
SPLINE
  5
8B
330
1F
100
AcDbEntity
  8
Layer 1
 62
   250
370
   211
100
AcDbSpline
210
0.0
220
0.0
230
1.0
 70
     8
 71
     3
 72
    12
 73
     8
 74
     0
 42
0.0000000001
 43
0.0000000001
 40
0.0
 40
0.0
 40
0.0
 40
0.0
 40
0.5
 40
0.5
 40
0.5
 40
0.5
 40
1.0
 40
1.0
 40
1.0
 40
1.0
 10
0.72199
 20
-4.92831
 30
0.0
 10
0.48486
 20
-4.95403
 30
0.0
 10
0.24398
 20
-4.96722
 30
0.0
 10
0.00001
 20
-4.96722
 30
0.0
 10
0.00001
 20
-4.96722
 30
0.0
 10
-0.34049
 20
-4.96722
 30
0.0
 10
-0.67499
 20
-4.94152
 30
0.0
 10
-1.00164
 20
-4.89192
 30
0.0
  0
SPLINE
  5
8C
330
1F
100
AcDbEntity
  8
Layer 1
 62
   250
370
   211
100
AcDbSpline
210
0.0
220
0.0
230
1.0
 70
     8
 71
     3
 72
    20
 73
    16
 74
     0
 42
0.0000000001
 43
0.0000000001
 40
0.0
 40
0.0
 40
0.0
 40
0.0
 40
0.25
 40
0.25
 40
0.25
 40
0.25
 40
0.5
 40
0.5
 40
0.5
 40
0.5
 40
0.75
 40
0.75
 40
0.75
 40
0.75
 40
1.0
 40
1.0
 40
1.0
 40
1.0
 10
-5.83866
 20
-1.469
 30
0.0
 10
-6.33668
 20
-0.53921
 30
0.0
 10
-6.6191
 20
0.52336
 30
0.0
 10
-6.6191
 20
1.65189
 30
0.0
 10
-6.6191
 20
1.65189
 30
0.0
 10
-6.6191
 20
5.30752
 30
0.0
 10
-3.65562
 20
8.27099
 30
0.0
 10
0.0
 20
8.27099
 30
0.0
 10
0.0
 20
8.27099
 30
0.0
 10
3.65564
 20
8.27099
 30
0.0
 10
6.6191
 20
5.30752
 30
0.0
 10
6.6191
 20
1.65189
 30
0.0
 10
6.6191
 20
1.65189
 30
0.0
 10
6.6191
 20
-1.50055
 30
0.0
 10
4.41533
 20
-4.13825
 30
0.0
 10
1.46433
 20
-4.80469
 30
0.0
  0
SPLINE
  5
8D
330
1F
100
AcDbEntity
  8
Layer 1
 62
   250
370
   211
100
AcDbSpline
210
0.0
220
0.0
230
1.0
 70
     8
 71
     3
 72
    16
 73
    12
 74
     0
 42
0.0000000001
 43
0.0000000001
 40
0.0
 40
0.0
 40
0.0
 40
0.0
 40
0.3333333333333333
 40
0.3333333333333333
 40
0.3333333333333333
 40
0.3333333333333333
 40
0.6666666666666666
 40
0.6666666666666666
 40
0.6666666666666666
 40
0.6666666666666666
 40
1.0
 40
1.0
 40
1.0
 40
1.0
 10
1.32071
 20
-8.25584
 30
0.0
 10
1.92975
 20
-8.35654
 30
0.0
 10
2.40529
 20
-8.30811
 30
0.0
 10
2.68917
 20
-8.13298
 30
0.0
 10
2.68917
 20
-8.13298
 30
0.0
 10
2.84027
 20
-8.0705
 30
0.0
 10
3.3424
 20
-7.77012
 30
0.0
 10
3.3424
 20
-7.77012
 30
0.0
 10
3.3424
 20
-7.77012
 30
0.0
 10
2.72346
 20
-7.93977
 30
0.0
 10
2.02352
 20
-7.91856
 30
0.0
 10
1.29557
 20
-7.75515
 30
0.0
  0
SPLINE
  5
8E
330
1F
100
AcDbEntity
  8
Layer 1
 62
   250
370
   211
100
AcDbSpline
210
0.0
220
0.0
230
1.0
 70
     8
 71
     3
 72
    16
 73
    12
 74
     0
 42
0.0000000001
 43
0.0000000001
 40
0.0
 40
0.0
 40
0.0
 40
0.0
 40
0.3333333333333333
 40
0.3333333333333333
 40
0.3333333333333333
 40
0.3333333333333333
 40
0.6666666666666666
 40
0.6666666666666666
 40
0.6666666666666666
 40
0.6666666666666666
 40
1.0
 40
1.0
 40
1.0
 40
1.0
 10
-1.96548
 20
-6.24164
 30
0.0
 10
-2.96198
 20
-5.55417
 30
0.0
 10
-3.85381
 20
-4.72278
 30
0.0
 10
-4.48429
 20
-3.89138
 30
0.0
 10
-4.48429
 20
-3.89138
 30
0.0
 10
-4.48429
 20
-3.89138
 30
0.0
 10
-4.88452
 20
-4.30484
 30
0.0
 10
-4.88452
 20
-4.30484
 30
0.0
 10
-4.88452
 20
-4.30484
 30
0.0
 10
-3.90335
 20
-5.37333
 30
0.0
 10
-2.9073
 20
-6.2039
 30
0.0
 10
-1.96869
 20
-6.82453
 30
0.0
  0
SPLINE
  5
8F
330
1F
100
AcDbEntity
  8
Layer 1
 62
   250
370
   211
100
AcDbSpline
210
0.0
220
0.0
230
1.0
 70
    11
 71
     3
 72
    40
 73
    36
 74
     0
 42
0.0000000001
 43
0.0000000001
 40
0.0
 40
0.0
 40
0.0
 40
0.0
 40
0.1111111111111111
 40
0.1111111111111111
 40
0.1111111111111111
 40
0.1111111111111111
 40
0.2222222222222222
 40
0.2222222222222222
 40
0.2222222222222222
 40
0.2222222222222222
 40
0.3333333333333333
 40
0.3333333333333333
 40
0.3333333333333333
 40
0.3333333333333333
 40
0.4444444444444444
 40
0.4444444444444444
 40
0.4444444444444444
 40
0.4444444444444444
 40
0.5555555555555556
 40
0.5555555555555556
 40
0.5555555555555556
 40
0.5555555555555556
 40
0.6666666666666667
 40
0.6666666666666667
 40
0.6666666666666667
 40
0.6666666666666667
 40
0.7777777777777779
 40
0.7777777777777779
 40
0.7777777777777779
 40
0.7777777777777779
 40
0.8888888888888891
 40
0.8888888888888891
 40
0.8888888888888891
 40
0.8888888888888891
 40
1.0
 40
1.0
 40
1.0
 40
1.0
 10
-6.46373
 20
-3.21477
 30
0.0
 10
-6.46373
 20
-3.21477
 30
0.0
 10
-6.36036
 20
-3.36646
 30
0.0
 10
-6.36036
 20
-3.36646
 30
0.0
 10
-6.36036
 20
-3.36646
 30
0.0
 10
-6.30773
 20
-3.44368
 30
0.0
 10
-6.32167
 20
-3.54486
 30
0.0
 10
-6.39147
 20
-3.59242
 30
0.0
 10
-6.39147
 20
-3.59242
 30
0.0
 10
-6.39147
 20
-3.59242
 30
0.0
 10
-6.45251
 20
-3.63404
 30
0.0
 10
-6.45251
 20
-3.63404
 30
0.0
 10
-6.45251
 20
-3.63404
 30
0.0
 10
-6.52232
 20
-3.6816
 30
0.0
 10
-6.62158
 20
-3.65756
 30
0.0
 10
-6.67419
 20
-3.58033
 30
0.0
 10
-6.67419
 20
-3.58033
 30
0.0
 10
-6.67419
 20
-3.58033
 30
0.0
 10
-6.78689
 20
-3.41497
 30
0.0
 10
-6.78689
 20
-3.41497
 30
0.0
 10
-6.78689
 20
-3.41497
 30
0.0
 10
-6.79873
 20
-3.44761
 30
0.0
 10
-6.80519
 20
-3.48281
 30
0.0
 10
-6.80519
 20
-3.51954
 30
0.0
 10
-6.80519
 20
-3.51954
 30
0.0
 10
-6.80519
 20
-3.68897
 30
0.0
 10
-6.66785
 20
-3.82631
 30
0.0
 10
-6.49841
 20
-3.82631
 30
0.0
 10
-6.49841
 20
-3.82631
 30
0.0
 10
-6.32899
 20
-3.82631
 30
0.0
 10
-6.19165
 20
-3.68897
 30
0.0
 10
-6.19165
 20
-3.51954
 30
0.0
 10
-6.19165
 20
-3.51954
 30
0.0
 10
-6.19165
 20
-3.36185
 30
0.0
 10
-6.31065
 20
-3.23202
 30
0.0
 10
-6.46373
 20
-3.21477
 30
0.0
  0
SPLINE
  5
90
330
1F
100
AcDbEntity
  8
Layer 1
 62
   250
370
   211
100
AcDbSpline
210
0.0
220
0.0
230
1.0
 70
    11
 71
     3
 72
    20
 73
    16
 74
     0
 42
0.0000000001
 43
0.0000000001
 40
0.0
 40
0.0
 40
0.0
 40
0.0
 40
0.25
 40
0.25
 40
0.25
 40
0.25
 40
0.5
 40
0.5
 40
0.5
 40
0.5
 40
0.75
 40
0.75
 40
0.75
 40
0.75
 40
1.0
 40
1.0
 40
1.0
 40
1.0
 10
0.07414
 20
-6.5449
 30
0.0
 10
0.13193
 20
-6.70366
 30
0.0
 10
0.05007
 20
-6.87922
 30
0.0
 10
-0.10869
 20
-6.93701
 30
0.0
 10
-0.10869
 20
-6.93701
 30
0.0
 10
-0.26747
 20
-6.9948
 30
0.0
 10
-0.44303
 20
-6.91294
 30
0.0
 10
-0.50082
 20
-6.75418
 30
0.0
 10
-0.50082
 20
-6.75418
 30
0.0
 10
-0.5586
 20
-6.5954
 30
0.0
 10
-0.47674
 20
-6.41983
 30
0.0
 10
-0.31797
 20
-6.36204
 30
0.0
 10
-0.31797
 20
-6.36204
 30
0.0
 10
-0.1592
 20
-6.30425
 30
0.0
 10
0.01636
 20
-6.38612
 30
0.0
 10
0.07414
 20
-6.5449
 30
0.0
  0
SPLINE
  5
91
330
1F
100
AcDbEntity
  8
Layer 1
 62
   250
370
   211
100
AcDbSpline
210
0.0
220
0.0
230
1.0
 70
    11
 71
     3
 72
    20
 73
    16
 74
     0
 42
0.0000000001
 43
0.0000000001
 40
0.0
 40
0.0
 40
0.0
 40
0.0
 40
0.25
 40
0.25
 40
0.25
 40
0.25
 40
0.5
 40
0.5
 40
0.5
 40
0.5
 40
0.75
 40
0.75
 40
0.75
 40
0.75
 40
1.0
 40
1.0
 40
1.0
 40
1.0
 10
4.1626
 20
-5.40967
 30
0.0
 10
4.29203
 20
-5.51828
 30
0.0
 10
4.30892
 20
-5.71123
 30
0.0
 10
4.20031
 20
-5.84067
 30
0.0
 10
4.20031
 20
-5.84067
 30
0.0
 10
4.09171
 20
-5.9701
 30
0.0
 10
3.89875
 20
-5.98698
 30
0.0
 10
3.76931
 20
-5.87838
 30
0.0
 10
3.76931
 20
-5.87838
 30
0.0
 10
3.63987
 20
-5.76977
 30
0.0
 10
3.62299
 20
-5.57679
 30
0.0
 10
3.73159
 20
-5.44737
 30
0.0
 10
3.73159
 20
-5.44737
 30
0.0
 10
3.8402
 20
-5.31794
 30
0.0
 10
4.03317
 20
-5.30106
 30
0.0
 10
4.1626
 20
-5.40967
 30
0.0
  0
SPLINE
  5
92
330
1F
100
AcDbEntity
  8
Layer 1
 62
   250
370
   211
100
AcDbSpline
210
0.0
220
0.0
230
1.0
 70
    11
 71
     3
 72
    20
 73
    16
 74
     0
 42
0.0000000001
 43
0.0000000001
 40
0.0
 40
0.0
 40
0.0
 40
0.0
 40
0.25
 40
0.25
 40
0.25
 40
0.25
 40
0.5
 40
0.5
 40
0.5
 40
0.5
 40
0.75
 40
0.75
 40
0.75
 40
0.75
 40
1.0
 40
1.0
 40
1.0
 40
1.0
 10
7.13569
 20
-2.3823
 30
0.0
 10
7.30208
 20
-2.41163
 30
0.0
 10
7.41319
 20
-2.57032
 30
0.0
 10
7.38386
 20
-2.73669
 30
0.0
 10
7.38386
 20
-2.73669
 30
0.0
 10
7.3545
 20
-2.90309
 30
0.0
 10
7.19584
 20
-3.0142
 30
0.0
 10
7.02945
 20
-2.98487
 30
0.0
 10
7.02945
 20
-2.98487
 30
0.0
 10
6.86304
 20
-2.95551
 30
0.0
 10
6.75194
 20
-2.79685
 30
0.0
 10
6.78129
 20
-2.63045
 30
0.0
 10
6.78129
 20
-2.63045
 30
0.0
 10
6.81063
 20
-2.46405
 30
0.0
 10
6.96929
 20
-2.35295
 30
0.0
 10
7.13569
 20
-2.3823
 30
0.0
  0
SPLINE
  5
93
330
1F
100
AcDbEntity
  8
Layer 1
 62
   250
370
   211
100
AcDbSpline
210
0.0
220
0.0
230
1.0
 70
     8
 71
     3
 72
    32
 73
    28
 74
     0
 42
0.0000000001
 43
0.0000000001
 40
0.0
 40
0.0
 40
0.0
 40
0.0
 40
0.1428571428571428
 40
0.1428571428571428
 40
0.1428571428571428
 40
0.1428571428571428
 40
0.2857142857142857
 40
0.2857142857142857
 40
0.2857142857142857
 40
0.2857142857142857
 40
0.4285714285714285
 40
0.4285714285714285
 40
0.4285714285714285
 40
0.4285714285714285
 40
0.5714285714285714
 40
0.5714285714285714
 40
0.5714285714285714
 40
0.5714285714285714
 40
0.7142857142857142
 40
0.7142857142857142
 40
0.7142857142857142
 40
0.7142857142857142
 40
0.857142857142857
 40
0.857142857142857
 40
0.857142857142857
 40
0.857142857142857
 40
1.0
 40
1.0
 40
1.0
 40
1.0
 10
-1.00165
 20
-4.8919
 30
0.0
 10
-1.08039
 20
-5.00359
 30
0.0
 10
-1.17228
 20
-5.23603
 30
0.0
 10
-1.18814
 20
-5.51817
 30
0.0
 10
-1.18814
 20
-5.51817
 30
0.0
 10
-1.22346
 20
-6.14609
 30
0.0
 10
-1.18217
 20
-7.39415
 30
0.0
 10
-1.10318
 20
-8.7354
 30
0.0
 10
-1.10318
 20
-8.7354
 30
0.0
 10
-1.10318
 20
-8.7354
 30
0.0
 10
-0.49627
 20
-10.96116
 30
0.0
 10
-0.49627
 20
-10.96116
 30
0.0
 10
-0.49627
 20
-10.96116
 30
0.0
 10
-0.49627
 20
-10.96116
 30
0.0
 10
0.4229
 20
-10.96116
 30
0.0
 10
0.4229
 20
-10.96116
 30
0.0
 10
0.4229
 20
-10.96116
 30
0.0
 10
0.4229
 20
-10.96116
 30
0.0
 10
0.58181
 20
-8.7354
 30
0.0
 10
0.58181
 20
-8.7354
 30
0.0
 10
0.58181
 20
-8.7354
 30
0.0
 10
0.58181
 20
-8.7354
 30
0.0
 10
0.5823
 20
-8.7354
 30
0.0
 10
0.5823
 20
-8.7354
 30
0.0
 10
0.5823
 20
-8.7354
 30
0.0
 10
0.56032
 20
-8.51373
 30
0.0
 10
0.54308
 20
-8.28791
 30
0.0
 10
0.5303
 20
-8.0622
 30
0.0
  0
SPLINE
  5
94
330
1F
100
AcDbEntity
  8
Layer 1
 62
   250
370
   211
100
AcDbSpline
210
0.0
220
0.0
230
1.0
 70
     8
 71
     3
 72
    60
 73
    56
 74
     0
 42
0.0000000001
 43
0.0000000001
 40
0.0
 40
0.0
 40
0.0
 40
0.0
 40
0.0714285714285714
 40
0.0714285714285714
 40
0.0714285714285714
 40
0.0714285714285714
 40
0.1428571428571428
 40
0.1428571428571428
 40
0.1428571428571428
 40
0.1428571428571428
 40
0.2142857142857143
 40
0.2142857142857143
 40
0.2142857142857143
 40
0.2142857142857143
 40
0.2857142857142857
 40
0.2857142857142857
 40
0.2857142857142857
 40
0.2857142857142857
 40
0.3571428571428571
 40
0.3571428571428571
 40
0.3571428571428571
 40
0.3571428571428571
 40
0.4285714285714285
 40
0.4285714285714285
 40
0.4285714285714285
 40
0.4285714285714285
 40
0.4999999999999999
 40
0.4999999999999999
 40
0.4999999999999999
 40
0.4999999999999999
 40
0.5714285714285713
 40
0.5714285714285713
 40
0.5714285714285713
 40
0.5714285714285713
 40
0.6428571428571427
 40
0.6428571428571427
 40
0.6428571428571427
 40
0.6428571428571427
 40
0.7142857142857141
 40
0.7142857142857141
 40
0.7142857142857141
 40
0.7142857142857141
 40
0.7857142857142855
 40
0.7857142857142855
 40
0.7857142857142855
 40
0.7857142857142855
 40
0.8571428571428569
 40
0.8571428571428569
 40
0.8571428571428569
 40
0.8571428571428569
 40
0.9285714285714283
 40
0.9285714285714283
 40
0.9285714285714283
 40
0.9285714285714283
 40
1.0
 40
1.0
 40
1.0
 40
1.0
 10
0.5303
 20
-8.0622
 30
0.0
 10
0.45507
 20
-6.73397
 30
0.0
 10
0.53437
 20
-5.40881
 30
0.0
 10
0.71397
 20
-4.94586
 30
0.0
 10
0.71397
 20
-4.94586
 30
0.0
 10
0.81176
 20
-4.69376
 30
0.0
 10
1.55431
 20
-4.59357
 30
0.0
 10
1.46551
 20
-4.8019
 30
0.0
 10
1.46551
 20
-4.8019
 30
0.0
 10
1.41458
 20
-4.92142
 30
0.0
 10
1.27631
 20
-5.15481
 30
0.0
 10
1.25932
 20
-5.45697
 30
0.0
 10
1.25932
 20
-5.45697
 30
0.0
 10
1.22214
 20
-6.11821
 30
0.0
 10
1.26989
 20
-7.4671
 30
0.0
 10
1.35718
 20
-8.88835
 30
0.0
 10
1.35718
 20
-8.88835
 30
0.0
 10
1.35718
 20
-8.88835
 30
0.0
 10
1.35706
 20
-8.88838
 30
0.0
 10
1.35706
 20
-8.88838
 30
0.0
 10
1.35706
 20
-8.88838
 30
0.0
 10
1.35706
 20
-8.88838
 30
0.0
 10
0.94967
 20
-11.49892
 30
0.0
 10
0.94967
 20
-11.49892
 30
0.0
 10
0.94967
 20
-11.49892
 30
0.0
 10
0.94967
 20
-11.58341
 30
0.0
 10
0.88119
 20
-11.65189
 30
0.0
 10
0.79672
 20
-11.65189
 30
0.0
 10
0.79672
 20
-11.65189
 30
0.0
 10
0.79672
 20
-11.65189
 30
0.0
 10
-0.76538
 20
-11.65189
 30
0.0
 10
-0.76538
 20
-11.65189
 30
0.0
 10
-0.76538
 20
-11.65189
 30
0.0
 10
-0.84986
 20
-11.65189
 30
0.0
 10
-0.87062
 20
-11.61968
 30
0.0
 10
-0.91835
 20
-11.49892
 30
0.0
 10
-0.91835
 20
-11.49892
 30
0.0
 10
-0.9937
 20
-11.28862
 30
0.0
 10
-1.85374
 20
-8.88838
 30
0.0
 10
-1.85374
 20
-8.88838
 30
0.0
 10
-1.85374
 20
-8.88838
 30
0.0
 10
-1.85374
 20
-8.88838
 30
0.0
 10
-1.85014
 20
-8.88795
 30
0.0
 10
-1.85014
 20
-8.88795
 30
0.0
 10
-1.85014
 20
-8.88795
 30
0.0
 10
-2.01824
 20
-7.25415
 30
0.0
 10
-2.03474
 20
-5.16183
 30
0.0
 10
-1.73349
 20
-4.73168
 30
0.0
 10
-1.73349
 20
-4.73168
 30
0.0
 10
-1.4604
 20
-4.34175
 30
0.0
 10
-0.8776
 20
-4.73747
 30
0.0
 10
-0.98511
 20
-4.86996
 30
0.0
 10
-0.98511
 20
-4.86996
 30
0.0
 10
-0.99053
 20
-4.87665
 30
0.0
 10
-0.99606
 20
-4.88398
 30
0.0
 10
-1.00165
 20
-4.8919
 30
0.0
  0
SPLINE
  5
95
330
1F
100
AcDbEntity
  8
Layer 1
 62
   250
370
   211
100
AcDbSpline
210
0.0
220
0.0
230
1.0
 70
    11
 71
     3
 72
    36
 73
    32
 74
     0
 42
0.0000000001
 43
0.0000000001
 40
0.0
 40
0.0
 40
0.0
 40
0.0
 40
0.125
 40
0.125
 40
0.125
 40
0.125
 40
0.25
 40
0.25
 40
0.25
 40
0.25
 40
0.375
 40
0.375
 40
0.375
 40
0.375
 40
0.5
 40
0.5
 40
0.5
 40
0.5
 40
0.625
 40
0.625
 40
0.625
 40
0.625
 40
0.75
 40
0.75
 40
0.75
 40
0.75
 40
0.875
 40
0.875
 40
0.875
 40
0.875
 40
1.0
 40
1.0
 40
1.0
 40
1.0
 10
-6.45251
 20
-3.63403
 30
0.0
 10
-6.52232
 20
-3.6816
 30
0.0
 10
-6.62158
 20
-3.65756
 30
0.0
 10
-6.6742
 20
-3.58033
 30
0.0
 10
-6.6742
 20
-3.58033
 30
0.0
 10
-6.6742
 20
-3.58033
 30
0.0
 10
-7.25003
 20
-2.73534
 30
0.0
 10
-7.25003
 20
-2.73534
 30
0.0
 10
-7.25003
 20
-2.73534
 30
0.0
 10
-7.30265
 20
-2.6581
 30
0.0
 10
-7.28872
 20
-2.55694
 30
0.0
 10
-7.21891
 20
-2.50937
 30
0.0
 10
-7.21891
 20
-2.50937
 30
0.0
 10
-7.21891
 20
-2.50937
 30
0.0
 10
-7.15787
 20
-2.46777
 30
0.0
 10
-7.15787
 20
-2.46777
 30
0.0
 10
-7.15787
 20
-2.46777
 30
0.0
 10
-7.08808
 20
-2.42021
 30
0.0
 10
-6.9888
 20
-2.44425
 30
0.0
 10
-6.93618
 20
-2.52147
 30
0.0
 10
-6.93618
 20
-2.52147
 30
0.0
 10
-6.93618
 20
-2.52147
 30
0.0
 10
-6.36036
 20
-3.36645
 30
0.0
 10
-6.36036
 20
-3.36645
 30
0.0
 10
-6.36036
 20
-3.36645
 30
0.0
 10
-6.30773
 20
-3.44368
 30
0.0
 10
-6.32167
 20
-3.54486
 30
0.0
 10
-6.39147
 20
-3.59242
 30
0.0
 10
-6.39147
 20
-3.59242
 30
0.0
 10
-6.39147
 20
-3.59242
 30
0.0
 10
-6.45251
 20
-3.63403
 30
0.0
 10
-6.45251
 20
-3.63403
 30
0.0
  0
SPLINE
  5
96
330
1F
100
AcDbEntity
  8
Layer 1
 62
   250
100
AcDbSpline
210
0.0
220
0.0
230
1.0
 70
    11
 71
     3
 72
   120
 73
   116
 74
     0
 42
0.0000000001
 43
0.0000000001
 40
0.0
 40
0.0
 40
0.0
 40
0.0
 40
0.0344827586206897
 40
0.0344827586206897
 40
0.0344827586206897
 40
0.0344827586206897
 40
0.0689655172413793
 40
0.0689655172413793
 40
0.0689655172413793
 40
0.0689655172413793
 40
0.103448275862069
 40
0.103448275862069
 40
0.103448275862069
 40
0.103448275862069
 40
0.1379310344827586
 40
0.1379310344827586
 40
0.1379310344827586
 40
0.1379310344827586
 40
0.1724137931034483
 40
0.1724137931034483
 40
0.1724137931034483
 40
0.1724137931034483
 40
0.206896551724138
 40
0.206896551724138
 40
0.206896551724138
 40
0.206896551724138
 40
0.2413793103448276
 40
0.2413793103448276
 40
0.2413793103448276
 40
0.2413793103448276
 40
0.2758620689655173
 40
0.2758620689655173
 40
0.2758620689655173
 40
0.2758620689655173
 40
0.310344827586207
 40
0.310344827586207
 40
0.310344827586207
 40
0.310344827586207
 40
0.3448275862068966
 40
0.3448275862068966
 40
0.3448275862068966
 40
0.3448275862068966
 40
0.3793103448275863
 40
0.3793103448275863
 40
0.3793103448275863
 40
0.3793103448275863
 40
0.413793103448276
 40
0.413793103448276
 40
0.413793103448276
 40
0.413793103448276
 40
0.4482758620689656
 40
0.4482758620689656
 40
0.4482758620689656
 40
0.4482758620689656
 40
0.4827586206896553
 40
0.4827586206896553
 40
0.4827586206896553
 40
0.4827586206896553
 40
0.517241379310345
 40
0.517241379310345
 40
0.517241379310345
 40
0.517241379310345
 40
0.5517241379310346
 40
0.5517241379310346
 40
0.5517241379310346
 40
0.5517241379310346
 40
0.5862068965517242
 40
0.5862068965517242
 40
0.5862068965517242
 40
0.5862068965517242
 40
0.6206896551724138
 40
0.6206896551724138
 40
0.6206896551724138
 40
0.6206896551724138
 40
0.6551724137931034
 40
0.6551724137931034
 40
0.6551724137931034
 40
0.6551724137931034
 40
0.689655172413793
 40
0.689655172413793
 40
0.689655172413793
 40
0.689655172413793
 40
0.7241379310344827
 40
0.7241379310344827
 40
0.7241379310344827
 40
0.7241379310344827
 40
0.7586206896551723
 40
0.7586206896551723
 40
0.7586206896551723
 40
0.7586206896551723
 40
0.7931034482758619
 40
0.7931034482758619
 40
0.7931034482758619
 40
0.7931034482758619
 40
0.8275862068965515
 40
0.8275862068965515
 40
0.8275862068965515
 40
0.8275862068965515
 40
0.8620689655172411
 40
0.8620689655172411
 40
0.8620689655172411
 40
0.8620689655172411
 40
0.8965517241379307
 40
0.8965517241379307
 40
0.8965517241379307
 40
0.8965517241379307
 40
0.9310344827586203
 40
0.9310344827586203
 40
0.9310344827586203
 40
0.9310344827586203
 40
0.9655172413793099
 40
0.9655172413793099
 40
0.9655172413793099
 40
0.9655172413793099
 40
1.0
 40
1.0
 40
1.0
 40
1.0
 10
-3.00954
 20
1.96176
 30
0.0
 10
-3.06065
 20
2.01972
 30
0.0
 10
-3.13523
 20
2.04871
 30
0.0
 10
-3.23325
 20
2.04871
 30
0.0
 10
-3.23325
 20
2.04871
 30
0.0
 10
-3.27645
 20
2.04871
 30
0.0
 10
-3.3223
 20
2.04212
 30
0.0
 10
-3.37079
 20
2.02895
 30
0.0
 10
-3.37079
 20
2.02895
 30
0.0
 10
-3.41927
 20
2.01577
 30
0.0
 10
-3.46696
 20
1.99812
 30
0.0
 10
-3.51387
 20
1.97598
 30
0.0
 10
-3.51387
 20
1.97598
 30
0.0
 10
-3.56076
 20
1.95386
 30
0.0
 10
-3.60556
 20
1.92856
 30
0.0
 10
-3.64825
 20
1.9001
 30
0.0
 10
-3.64825
 20
1.9001
 30
0.0
 10
-3.69093
 20
1.87164
 30
0.0
 10
-3.72755
 20
1.84213
 30
0.0
 10
-3.75811
 20
1.81157
 30
0.0
 10
-3.75811
 20
1.81157
 30
0.0
 10
-3.75811
 20
1.81157
 30
0.0
 10
-3.75811
 20
2.09772
 30
0.0
 10
-3.75811
 20
2.09772
 30
0.0
 10
-3.75811
 20
2.09772
 30
0.0
 10
-3.72755
 20
2.12617
 30
0.0
 10
-3.69171
 20
2.15306
 30
0.0
 10
-3.65061
 20
2.17834
 30
0.0
 10
-3.65061
 20
2.17834
 30
0.0
 10
-3.60951
 20
2.20364
 30
0.0
 10
-3.56498
 20
2.22578
 30
0.0
 10
-3.51702
 20
2.24475
 30
0.0
 10
-3.51702
 20
2.24475
 30
0.0
 10
-3.46906
 20
2.26372
 30
0.0
 10
-3.41821
 20
2.27901
 30
0.0
 10
-3.36446
 20
2.2906
 30
0.0
 10
-3.36446
 20
2.2906
 30
0.0
 10
-3.31071
 20
2.30219
 30
0.0
 10
-3.25537
 20
2.30798
 30
0.0
 10
-3.19846
 20
2.30798
 30
0.0
 10
-3.19846
 20
2.30798
 30
0.0
 10
-3.10677
 20
2.30798
 30
0.0
 10
-3.02403
 20
2.29508
 30
0.0
 10
-2.95026
 20
2.26925
 30
0.0
 10
-2.95026
 20
2.26925
 30
0.0
 10
-2.87648
 20
2.24343
 30
0.0
 10
-2.81403
 20
2.20627
 30
0.0
 10
-2.76291
 20
2.15779
 30
0.0
 10
-2.76291
 20
2.15779
 30
0.0
 10
-2.7118
 20
2.10932
 30
0.0
 10
-2.67228
 20
2.05108
 30
0.0
 10
-2.64434
 20
1.98311
 30
0.0
 10
-2.64434
 20
1.98311
 30
0.0
 10
-2.61641
 20
1.91512
 30
0.0
 10
-2.60245
 20
1.83897
 30
0.0
 10
-2.60245
 20
1.75466
 30
0.0
 10
-2.60245
 20
1.75466
 30
0.0
 10
-2.60245
 20
1.66718
 30
0.0
 10
-2.61325
 20
1.58786
 30
0.0
 10
-2.63486
 20
1.51673
 30
0.0
 10
-2.63486
 20
1.51673
 30
0.0
 10
-2.65646
 20
1.44558
 30
0.0
 10
-2.6865
 20
1.3776
 30
0.0
 10
-2.72498
 20
1.31278
 30
0.0
 10
-2.72498
 20
1.31278
 30
0.0
 10
-2.76344
 20
1.24796
 30
0.0
 10
-2.80876
 20
1.18367
 30
0.0
 10
-2.86093
 20
1.11991
 30
0.0
 10
-2.86093
 20
1.11991
 30
0.0
 10
-2.86093
 20
1.11991
 30
0.0
 10
-3.03247
 20
0.91201
 30
0.0
 10
-3.03247
 20
0.91201
 30
0.0
 10
-3.03247
 20
0.91201
 30
0.0
 10
-3.03247
 20
0.91201
 30
0.0
 10
-3.37869
 20
0.49149
 30
0.0
 10
-3.37869
 20
0.49149
 30
0.0
 10
-3.37869
 20
0.49149
 30
0.0
 10
-3.37869
 20
0.49149
 30
0.0
 10
-2.53446
 20
0.49149
 30
0.0
 10
-2.53446
 20
0.49149
 30
0.0
 10
-2.53446
 20
0.49149
 30
0.0
 10
-2.53446
 20
0.49149
 30
0.0
 10
-2.53446
 20
0.23537
 30
0.0
 10
-2.53446
 20
0.23537
 30
0.0
 10
-2.53446
 20
0.23537
 30
0.0
 10
-2.53446
 20
0.23537
 30
0.0
 10
-3.75179
 20
0.23537
 30
0.0
 10
-3.75179
 20
0.23537
 30
0.0
 10
-3.75179
 20
0.23537
 30
0.0
 10
-3.75179
 20
0.23537
 30
0.0
 10
-3.75179
 20
0.45828
 30
0.0
 10
-3.75179
 20
0.45828
 30
0.0
 10
-3.75179
 20
0.45828
 30
0.0
 10
-3.75179
 20
0.45828
 30
0.0
 10
-3.26961
 20
1.0543
 30
0.0
 10
-3.26961
 20
1.0543
 30
0.0
 10
-3.26961
 20
1.0543
 30
0.0
 10
-3.26961
 20
1.0543
 30
0.0
 10
-3.13127
 20
1.2282
 30
0.0
 10
-3.13127
 20
1.2282
 30
0.0
 10
-3.13127
 20
1.2282
 30
0.0
 10
-3.08964
 20
1.2809
 30
0.0
 10
-3.05407
 20
1.33254
 30
0.0
 10
-3.02456
 20
1.38314
 30
0.0
 10
-3.02456
 20
1.38314
 30
0.0
 10
-2.99505
 20
1.43372
 30
0.0
 10
-2.97239
 20
1.48589
 30
0.0
 10
-2.95658
 20
1.53965
 30
0.0
 10
-2.95658
 20
1.53965
 30
0.0
 10
-2.94077
 20
1.5934
 30
0.0
 10
-2.93287
 20
1.65295
 30
0.0
 10
-2.93287
 20
1.71829
 30
0.0
 10
-2.93287
 20
1.71829
 30
0.0
 10
-2.93287
 20
1.82263
 30
0.0
 10
-2.95843
 20
1.90379
 30
0.0
 10
-3.00954
 20
1.96176
 30
0.0
  0
SPLINE
  5
97
330
1F
100
AcDbEntity
  8
Layer 1
 62
   250
100
AcDbSpline
210
0.0
220
0.0
230
1.0
 70
    11
 71
     3
 72
    36
 73
    32
 74
     0
 42
0.0000000001
 43
0.0000000001
 40
0.0
 40
0.0
 40
0.0
 40
0.0
 40
0.125
 40
0.125
 40
0.125
 40
0.125
 40
0.25
 40
0.25
 40
0.25
 40
0.25
 40
0.375
 40
0.375
 40
0.375
 40
0.375
 40
0.5
 40
0.5
 40
0.5
 40
0.5
 40
0.625
 40
0.625
 40
0.625
 40
0.625
 40
0.75
 40
0.75
 40
0.75
 40
0.75
 40
0.875
 40
0.875
 40
0.875
 40
0.875
 40
1.0
 40
1.0
 40
1.0
 40
1.0
 10
-0.90326
 20
1.85979
 30
0.0
 10
-0.96649
 20
1.99627
 30
0.0
 10
-1.05924
 20
2.06452
 30
0.0
 10
-1.1815
 20
2.06452
 30
0.0
 10
-1.1815
 20
2.06452
 30
0.0
 10
-1.3122
 20
2.06452
 30
0.0
 10
-1.41073
 20
1.99522
 30
0.0
 10
-1.47714
 20
1.85663
 30
0.0
 10
-1.47714
 20
1.85663
 30
0.0
 10
-1.54353
 20
1.71803
 30
0.0
 10
-1.57673
 20
1.50803
 30
0.0
 10
-1.57673
 20
1.22662
 30
0.0
 10
-1.57673
 20
1.22662
 30
0.0
 10
-1.57673
 20
0.96735
 30
0.0
 10
-1.54406
 20
0.77342
 30
0.0
 10
-1.47871
 20
0.64484
 30
0.0
 10
-1.47871
 20
0.64484
 30
0.0
 10
-1.41338
 20
0.51626
 30
0.0
 10
-1.31746
 20
0.45197
 30
0.0
 10
-1.19099
 20
0.45197
 30
0.0
 10
-1.19099
 20
0.45197
 30
0.0
 10
-1.06557
 20
0.45197
 30
0.0
 10
-0.97045
 20
0.5173
 30
0.0
 10
-0.90563
 20
0.648
 30
0.0
 10
-0.90563
 20
0.648
 30
0.0
 10
-0.84081
 20
0.77869
 30
0.0
 10
-0.8084
 20
0.97683
 30
0.0
 10
-0.8084
 20
1.24243
 30
0.0
 10
-0.8084
 20
1.24243
 30
0.0
 10
-0.8084
 20
1.51751
 30
0.0
 10
-0.84002
 20
1.72331
 30
0.0
 10
-0.90326
 20
1.85979
 30
0.0
  0
SPLINE
  5
98
330
1F
100
AcDbEntity
  8
Layer 1
 62
   250
100
AcDbSpline
210
0.0
220
0.0
230
1.0
 70
    11
 71
     3
 72
    56
 73
    52
 74
     0
 42
0.0000000001
 43
0.0000000001
 40
0.0
 40
0.0
 40
0.0
 40
0.0
 40
0.0769230769230769
 40
0.0769230769230769
 40
0.0769230769230769
 40
0.0769230769230769
 40
0.1538461538461539
 40
0.1538461538461539
 40
0.1538461538461539
 40
0.1538461538461539
 40
0.2307692307692308
 40
0.2307692307692308
 40
0.2307692307692308
 40
0.2307692307692308
 40
0.3076923076923077
 40
0.3076923076923077
 40
0.3076923076923077
 40
0.3076923076923077
 40
0.3846153846153846
 40
0.3846153846153846
 40
0.3846153846153846
 40
0.3846153846153846
 40
0.4615384615384616
 40
0.4615384615384616
 40
0.4615384615384616
 40
0.4615384615384616
 40
0.5384615384615385
 40
0.5384615384615385
 40
0.5384615384615385
 40
0.5384615384615385
 40
0.6153846153846154
 40
0.6153846153846154
 40
0.6153846153846154
 40
0.6153846153846154
 40
0.6923076923076923
 40
0.6923076923076923
 40
0.6923076923076923
 40
0.6923076923076923
 40
0.7692307692307692
 40
0.7692307692307692
 40
0.7692307692307692
 40
0.7692307692307692
 40
0.846153846153846
 40
0.846153846153846
 40
0.846153846153846
 40
0.846153846153846
 40
0.9230769230769229
 40
0.9230769230769229
 40
0.9230769230769229
 40
0.9230769230769229
 40
1.0
 40
1.0
 40
1.0
 40
1.0
 10
-0.54676
 20
0.81953
 30
0.0
 10
-0.5789
 20
0.68831
 30
0.0
 10
-0.62554
 20
0.57739
 30
0.0
 10
-0.68667
 20
0.48674
 30
0.0
 10
-0.68667
 20
0.48674
 30
0.0
 10
-0.7478
 20
0.3961
 30
0.0
 10
-0.82237
 20
0.3268
 30
0.0
 10
-0.91037
 20
0.27885
 30
0.0
 10
-0.91037
 20
0.27885
 30
0.0
 10
-0.99837
 20
0.23089
 30
0.0
 10
-1.09823
 20
0.20692
 30
0.0
 10
-1.20996
 20
0.20692
 30
0.0
 10
-1.20996
 20
0.20692
 30
0.0
 10
-1.32063
 20
0.20692
 30
0.0
 10
-1.41811
 20
0.22932
 30
0.0
 10
-1.50244
 20
0.2741
 30
0.0
 10
-1.50244
 20
0.2741
 30
0.0
 10
-1.58675
 20
0.3189
 30
0.0
 10
-1.65736
 20
0.38424
 30
0.0
 10
-1.71427
 20
0.47014
 30
0.0
 10
-1.71427
 20
0.47014
 30
0.0
 10
-1.77119
 20
0.55604
 30
0.0
 10
-1.81414
 20
0.6617
 30
0.0
 10
-1.84313
 20
0.78712
 30
0.0
 10
-1.84313
 20
0.78712
 30
0.0
 10
-1.87211
 20
0.91254
 30
0.0
 10
-1.8866
 20
1.05588
 30
0.0
 10
-1.8866
 20
1.21713
 30
0.0
 10
-1.8866
 20
1.21713
 30
0.0
 10
-1.8866
 20
1.39209
 30
0.0
 10
-1.87211
 20
1.54729
 30
0.0
 10
-1.84313
 20
1.68273
 30
0.0
 10
-1.84313
 20
1.68273
 30
0.0
 10
-1.81414
 20
1.81816
 30
0.0
 10
-1.76988
 20
1.93225
 30
0.0
 10
-1.71032
 20
2.025
 30
0.0
 10
-1.71032
 20
2.025
 30
0.0
 10
-1.65078
 20
2.11774
 30
0.0
 10
-1.57621
 20
2.1881
 30
0.0
 10
-1.48662
 20
2.23605
 30
0.0
 10
-1.48662
 20
2.23605
 30
0.0
 10
-1.39704
 20
2.28401
 30
0.0
 10
-1.29217
 20
2.30798
 30
0.0
 10
-1.17201
 20
2.30798
 30
0.0
 10
-1.17201
 20
2.30798
 30
0.0
 10
-0.72303
 20
2.30798
 30
0.0
 10
-0.49854
 20
1.96018
 30
0.0
 10
-0.49854
 20
1.26457
 30
0.0
 10
-0.49854
 20
1.26457
 30
0.0
 10
-0.49854
 20
1.0991
 30
0.0
 10
-0.51461
 20
0.95074
 30
0.0
 10
-0.54676
 20
0.81953
 30
0.0
  0
SPLINE
  5
99
330
1F
100
AcDbEntity
  8
Layer 1
 62
   250
100
AcDbSpline
210
0.0
220
0.0
230
1.0
 70
    11
 71
     3
 72
    40
 73
    36
 74
     0
 42
0.0000000001
 43
0.0000000001
 40
0.0
 40
0.0
 40
0.0
 40
0.0
 40
0.1111111111111111
 40
0.1111111111111111
 40
0.1111111111111111
 40
0.1111111111111111
 40
0.2222222222222222
 40
0.2222222222222222
 40
0.2222222222222222
 40
0.2222222222222222
 40
0.3333333333333333
 40
0.3333333333333333
 40
0.3333333333333333
 40
0.3333333333333333
 40
0.4444444444444444
 40
0.4444444444444444
 40
0.4444444444444444
 40
0.4444444444444444
 40
0.5555555555555556
 40
0.5555555555555556
 40
0.5555555555555556
 40
0.5555555555555556
 40
0.6666666666666667
 40
0.6666666666666667
 40
0.6666666666666667
 40
0.6666666666666667
 40
0.7777777777777779
 40
0.7777777777777779
 40
0.7777777777777779
 40
0.7777777777777779
 40
0.8888888888888891
 40
0.8888888888888891
 40
0.8888888888888891
 40
0.8888888888888891
 40
1.0
 40
1.0
 40
1.0
 40
1.0
 10
0.74851
 20
0.23537
 30
0.0
 10
0.74851
 20
0.23537
 30
0.0
 10
0.74851
 20
1.89694
 30
0.0
 10
0.74851
 20
1.89694
 30
0.0
 10
0.74851
 20
1.89694
 30
0.0
 10
0.74851
 20
1.89694
 30
0.0
 10
0.69396
 20
1.8503
 30
0.0
 10
0.69396
 20
1.8503
 30
0.0
 10
0.69396
 20
1.8503
 30
0.0
 10
0.69396
 20
1.8503
 30
0.0
 10
0.63784
 20
1.80525
 30
0.0
 10
0.63784
 20
1.80525
 30
0.0
 10
0.63784
 20
1.80525
 30
0.0
 10
0.63784
 20
1.80525
 30
0.0
 10
0.23945
 20
1.52068
 30
0.0
 10
0.23945
 20
1.52068
 30
0.0
 10
0.23945
 20
1.52068
 30
0.0
 10
0.23945
 20
1.52068
 30
0.0
 10
0.23945
 20
1.82263
 30
0.0
 10
0.23945
 20
1.82263
 30
0.0
 10
0.23945
 20
1.82263
 30
0.0
 10
0.23945
 20
1.82263
 30
0.0
 10
0.85759
 20
2.28743
 30
0.0
 10
0.85759
 20
2.28743
 30
0.0
 10
0.85759
 20
2.28743
 30
0.0
 10
0.85759
 20
2.28743
 30
0.0
 10
1.05205
 20
2.28743
 30
0.0
 10
1.05205
 20
2.28743
 30
0.0
 10
1.05205
 20
2.28743
 30
0.0
 10
1.05205
 20
2.28743
 30
0.0
 10
1.05205
 20
0.23537
 30
0.0
 10
1.05205
 20
0.23537
 30
0.0
 10
1.05205
 20
0.23537
 30
0.0
 10
1.05205
 20
0.23537
 30
0.0
 10
0.74851
 20
0.23537
 30
0.0
 10
0.74851
 20
0.23537
 30
0.0
  0
SPLINE
  5
9A
330
1F
100
AcDbEntity
  8
Layer 1
 62
   250
100
AcDbSpline
210
0.0
220
0.0
230
1.0
 70
    11
 71
     3
 72
    52
 73
    48
 74
     0
 42
0.0000000001
 43
0.0000000001
 40
0.0
 40
0.0
 40
0.0
 40
0.0
 40
0.0833333333333333
 40
0.0833333333333333
 40
0.0833333333333333
 40
0.0833333333333333
 40
0.1666666666666667
 40
0.1666666666666667
 40
0.1666666666666667
 40
0.1666666666666667
 40
0.25
 40
0.25
 40
0.25
 40
0.25
 40
0.3333333333333333
 40
0.3333333333333333
 40
0.3333333333333333
 40
0.3333333333333333
 40
0.4166666666666666
 40
0.4166666666666666
 40
0.4166666666666666
 40
0.4166666666666666
 40
0.4999999999999999
 40
0.4999999999999999
 40
0.4999999999999999
 40
0.4999999999999999
 40
0.5833333333333333
 40
0.5833333333333333
 40
0.5833333333333333
 40
0.5833333333333333
 40
0.6666666666666666
 40
0.6666666666666666
 40
0.6666666666666666
 40
0.6666666666666666
 40
0.75
 40
0.75
 40
0.75
 40
0.75
 40
0.8333333333333334
 40
0.8333333333333334
 40
0.8333333333333334
 40
0.8333333333333334
 40
0.9166666666666667
 40
0.9166666666666667
 40
0.9166666666666667
 40
0.9166666666666667
 40
1.0
 40
1.0
 40
1.0
 40
1.0
 10
2.86823
 20
1.7926
 30
0.0
 10
2.86823
 20
1.7926
 30
0.0
 10
2.86823
 20
1.84239
 30
0.0
 10
2.86823
 20
1.84239
 30
0.0
 10
2.86823
 20
1.84239
 30
0.0
 10
2.86823
 20
1.86084
 30
0.0
 10
2.86928
 20
1.88007
 30
0.0
 10
2.87139
 20
1.9001
 30
0.0
 10
2.87139
 20
1.9001
 30
0.0
 10
2.86612
 20
1.89484
 30
0.0
 10
2.86243
 20
1.8893
 30
0.0
 10
2.86032
 20
1.88351
 30
0.0
 10
2.86032
 20
1.88351
 30
0.0
 10
2.85821
 20
1.87771
 30
0.0
 10
2.85452
 20
1.87217
 30
0.0
 10
2.84925
 20
1.86691
 30
0.0
 10
2.84925
 20
1.86691
 30
0.0
 10
2.83344
 20
1.8511
 30
0.0
 10
2.81184
 20
1.82685
 30
0.0
 10
2.78444
 20
1.79417
 30
0.0
 10
2.78444
 20
1.79417
 30
0.0
 10
2.75703
 20
1.76151
 30
0.0
 10
2.72674
 20
1.72304
 30
0.0
 10
2.69353
 20
1.67877
 30
0.0
 10
2.69353
 20
1.67877
 30
0.0
 10
2.69353
 20
1.67877
 30
0.0
 10
2.58761
 20
1.53174
 30
0.0
 10
2.58761
 20
1.53174
 30
0.0
 10
2.58761
 20
1.53174
 30
0.0
 10
2.55019
 20
1.47799
 30
0.0
 10
2.51383
 20
1.42161
 30
0.0
 10
2.47853
 20
1.36258
 30
0.0
 10
2.47853
 20
1.36258
 30
0.0
 10
2.44322
 20
1.30356
 30
0.0
 10
2.40976
 20
1.24348
 30
0.0
 10
2.37814
 20
1.18236
 30
0.0
 10
2.37814
 20
1.18236
 30
0.0
 10
2.34652
 20
1.12123
 30
0.0
 10
2.31912
 20
1.06116
 30
0.0
 10
2.29593
 20
1.00213
 30
0.0
 10
2.29593
 20
1.00213
 30
0.0
 10
2.29593
 20
1.00213
 30
0.0
 10
2.86823
 20
1.00213
 30
0.0
 10
2.86823
 20
1.00213
 30
0.0
 10
2.86823
 20
1.00213
 30
0.0
 10
2.86823
 20
1.00213
 30
0.0
 10
2.86823
 20
1.7926
 30
0.0
 10
2.86823
 20
1.7926
 30
0.0
  0
SPLINE
  5
9B
330
1F
100
AcDbEntity
  8
Layer 1
 62
   250
100
AcDbSpline
210
0.0
220
0.0
230
1.0
 70
    11
 71
     3
 72
    68
 73
    64
 74
     0
 42
0.0000000001
 43
0.0000000001
 40
0.0
 40
0.0
 40
0.0
 40
0.0
 40
0.0625
 40
0.0625
 40
0.0625
 40
0.0625
 40
0.125
 40
0.125
 40
0.125
 40
0.125
 40
0.1875
 40
0.1875
 40
0.1875
 40
0.1875
 40
0.25
 40
0.25
 40
0.25
 40
0.25
 40
0.3125
 40
0.3125
 40
0.3125
 40
0.3125
 40
0.375
 40
0.375
 40
0.375
 40
0.375
 40
0.4375
 40
0.4375
 40
0.4375
 40
0.4375
 40
0.5
 40
0.5
 40
0.5
 40
0.5
 40
0.5625
 40
0.5625
 40
0.5625
 40
0.5625
 40
0.625
 40
0.625
 40
0.625
 40
0.625
 40
0.6875
 40
0.6875
 40
0.6875
 40
0.6875
 40
0.75
 40
0.75
 40
0.75
 40
0.75
 40
0.8125
 40
0.8125
 40
0.8125
 40
0.8125
 40
0.875
 40
0.875
 40
0.875
 40
0.875
 40
0.9375
 40
0.9375
 40
0.9375
 40
0.9375
 40
1.0
 40
1.0
 40
1.0
 40
1.0
 10
3.17019
 20
0.76341
 30
0.0
 10
3.17019
 20
0.76341
 30
0.0
 10
3.17019
 20
0.23538
 30
0.0
 10
3.17019
 20
0.23538
 30
0.0
 10
3.17019
 20
0.23538
 30
0.0
 10
3.17019
 20
0.23538
 30
0.0
 10
2.86823
 20
0.23538
 30
0.0
 10
2.86823
 20
0.23538
 30
0.0
 10
2.86823
 20
0.23538
 30
0.0
 10
2.86823
 20
0.23538
 30
0.0
 10
2.86823
 20
0.76341
 30
0.0
 10
2.86823
 20
0.76341
 30
0.0
 10
2.86823
 20
0.76341
 30
0.0
 10
2.86823
 20
0.76341
 30
0.0
 10
2.00345
 20
0.76341
 30
0.0
 10
2.00345
 20
0.76341
 30
0.0
 10
2.00345
 20
0.76341
 30
0.0
 10
2.00345
 20
0.76341
 30
0.0
 10
1.98448
 20
0.85668
 30
0.0
 10
1.98448
 20
0.85668
 30
0.0
 10
1.98448
 20
0.85668
 30
0.0
 10
1.99607
 20
0.92309
 30
0.0
 10
2.02111
 20
0.9995
 30
0.0
 10
2.05958
 20
1.08591
 30
0.0
 10
2.05958
 20
1.08591
 30
0.0
 10
2.09805
 20
1.17234
 30
0.0
 10
2.14469
 20
1.26246
 30
0.0
 10
2.19949
 20
1.35626
 30
0.0
 10
2.19949
 20
1.35626
 30
0.0
 10
2.2543
 20
1.45007
 30
0.0
 10
2.31464
 20
1.54439
 30
0.0
 10
2.38051
 20
1.63925
 30
0.0
 10
2.38051
 20
1.63925
 30
0.0
 10
2.44638
 20
1.7341
 30
0.0
 10
2.51226
 20
1.82342
 30
0.0
 10
2.57813
 20
1.90722
 30
0.0
 10
2.57813
 20
1.90722
 30
0.0
 10
2.644
 20
1.99101
 30
0.0
 10
2.70724
 20
2.0661
 30
0.0
 10
2.76784
 20
2.1325
 30
0.0
 10
2.76784
 20
2.1325
 30
0.0
 10
2.82844
 20
2.1989
 30
0.0
 10
2.8814
 20
2.25055
 30
0.0
 10
2.92672
 20
2.28744
 30
0.0
 10
2.92672
 20
2.28744
 30
0.0
 10
2.92672
 20
2.28744
 30
0.0
 10
3.17019
 20
2.28744
 30
0.0
 10
3.17019
 20
2.28744
 30
0.0
 10
3.17019
 20
2.28744
 30
0.0
 10
3.17019
 20
2.28744
 30
0.0
 10
3.17019
 20
1.00213
 30
0.0
 10
3.17019
 20
1.00213
 30
0.0
 10
3.17019
 20
1.00213
 30
0.0
 10
3.17019
 20
1.00213
 30
0.0
 10
3.46424
 20
1.00213
 30
0.0
 10
3.46424
 20
1.00213
 30
0.0
 10
3.46424
 20
1.00213
 30
0.0
 10
3.46424
 20
1.00213
 30
0.0
 10
3.46424
 20
0.76341
 30
0.0
 10
3.46424
 20
0.76341
 30
0.0
 10
3.46424
 20
0.76341
 30
0.0
 10
3.46424
 20
0.76341
 30
0.0
 10
3.17019
 20
0.76341
 30
0.0
 10
3.17019
 20
0.76341
 30
0.0
  0
ENDSEC
  0
SECTION
  2
OBJECTS
  0
DICTIONARY
  5
C
330
0
100
AcDbDictionary
281
     1
  3
ACAD_GROUP
350
D
  3
ACAD_LAYOUT
350
1A
  3
ACAD_MLEADERSTYLE
350
9D
  3
ACAD_MLINESTYLE
350
17
  3
ACAD_PLOTSETTINGS
350
19
  3
ACAD_PLOTSTYLENAME
350
E
  3
ACAD_SCALELIST
350
3B
  3
ACAD_TABLESTYLE
350
9C
  3
ACAD_VISUALSTYLE
350
2A
  0
DICTIONARY
  5
D
102
{ACAD_REACTORS
330
C
102
}
330
C
100
AcDbDictionary
281
     1
  0
DICTIONARY
  5
1A
102
{ACAD_REACTORS
330
C
102
}
330
C
100
AcDbDictionary
281
     1
  3
Layout1
350
1E
  3
Layout2
350
26
  3
Model
350
22
  0
DICTIONARY
  5
9D
102
{ACAD_REACTORS
330
C
102
}
330
C
100
AcDbDictionary
281
     1
  0
DICTIONARY
  5
17
102
{ACAD_REACTORS
330
C
102
}
330
C
100
AcDbDictionary
281
     1
  3
Standard
350
18
  0
DICTIONARY
  5
19
102
{ACAD_REACTORS
330
C
102
}
330
C
100
AcDbDictionary
281
     1
  0
ACDBDICTIONARYWDFLT
  5
E
102
{ACAD_REACTORS
330
C
102
}
330
C
100
AcDbDictionary
281
     1
  3
Normal
350
F
100
AcDbDictionaryWithDefault
340
F
  0
DICTIONARY
  5
3B
102
{ACAD_REACTORS
330
C
102
}
330
C
100
AcDbDictionary
281
     1
  3
A0
350
3C
  3
A1
350
3D
  3
A2
350
3E
  3
A3
350
3F
  3
A4
350
40
  3
A5
350
41
  3
A6
350
42
  3
A7
350
43
  3
A8
350
44
  3
A9
350
45
  3
B0
350
46
  3
B1
350
47
  3
B2
350
48
  3
B3
350
49
  3
B4
350
4A
  3
B5
350
4B
  3
B6
350
4C
  3
B7
350
4D
  3
B8
350
4E
  3
B9
350
4F
  3
C0
350
50
  3
C1
350
51
  3
C2
350
52
  3
C3
350
53
  3
C4
350
54
  3
C5
350
55
  3
C6
350
56
  3
C7
350
57
  3
C8
350
58
  3
C9
350
59
  3
D0
350
5A
  3
D1
350
5B
  3
D2
350
5C
  0
DICTIONARY
  5
9C
102
{ACAD_REACTORS
330
C
102
}
330
C
100
AcDbDictionary
281
     1
  0
DICTIONARY
  5
2A
102
{ACAD_REACTORS
330
C
102
}
330
C
100
AcDbDictionary
281
     1
  3
2dWireframe
350
2F
  3
3D Hidden
350
31
  3
3dWireframe
350
30
  3
Basic
350
32
  3
Brighten
350
36
  3
ColorChange
350
3A
  3
Conceptual
350
34
  3
Dim
350
35
  3
Facepattern
350
39
  3
Flat
350
2B
  3
FlatWithEdges
350
2C
  3
Gouraud
350
2D
  3
GouraudWithEdges
350
2E
  3
Linepattern
350
38
  3
Realistic
350
33
  3
Thicken
350
37
  0
LAYOUT
  5
1E
102
{ACAD_REACTORS
330
1A
102
}
330
1A
100
AcDbPlotSettings
  1

  2
none_device
  4

  6

 40
0.0
 41
0.0
 42
0.0
 43
0.0
 44
0.0
 45
0.0
 46
0.0
 47
0.0
 48
0.0
 49
0.0
140
0.0
141
0.0
142
1.0
143
1.0
 70
   688
 72
     0
 73
     0
 74
     5
  7

 75
    16
 76
     0
 77
     2
 78
   300
147
1.0
148
0.0
149
0.0
100
AcDbLayout
  1
Layout1
 70
     1
 71
     1
 10
0.0
 20
0.0
 11
12.0
 21
9.0
 12
0.0
 22
0.0
 32
0.0
 14
1.000000000000000E+20
 24
1.000000000000000E+20
 34
1.000000000000000E+20
 15
-1.000000000000000E+20
 25
-1.000000000000000E+20
 35
-1.000000000000000E+20
146
0.0
 13
0.0
 23
0.0
 33
0.0
 16
1.0
 26
0.0
 36
0.0
 17
0.0
 27
1.0
 37
0.0
 76
     0
330
1B
  0
LAYOUT
  5
26
102
{ACAD_REACTORS
330
1A
102
}
330
1A
100
AcDbPlotSettings
  1

  2
none_device
  4

  6

 40
0.0
 41
0.0
 42
0.0
 43
0.0
 44
0.0
 45
0.0
 46
0.0
 47
0.0
 48
0.0
 49
0.0
140
0.0
141
0.0
142
1.0
143
1.0
 70
   688
 72
     0
 73
     0
 74
     5
  7

 75
    16
 76
     0
 77
     2
 78
   300
147
1.0
148
0.0
149
0.0
100
AcDbLayout
  1
Layout2
 70
     1
 71
     2
 10
0.0
 20
0.0
 11
0.0
 21
0.0
 12
0.0
 22
0.0
 32
0.0
 14
0.0
 24
0.0
 34
0.0
 15
0.0
 25
0.0
 35
0.0
146
0.0
 13
0.0
 23
0.0
 33
0.0
 16
1.0
 26
0.0
 36
0.0
 17
0.0
 27
1.0
 37
0.0
 76
     0
330
23
  0
LAYOUT
  5
22
102
{ACAD_REACTORS
330
1A
102
}
330
1A
100
AcDbPlotSettings
  1

  2
none_device
  4

  6

 40
0.0
 41
0.0
 42
0.0
 43
0.0
 44
0.0
 45
0.0
 46
0.0
 47
0.0
 48
0.0
 49
0.0
140
0.0
141
0.0
142
1.0
143
1.0
 70
  1712
 72
     0
 73
     0
 74
     0
  7

 75
     0
 76
     0
 77
     2
 78
   300
147
1.0
148
0.0
149
0.0
100
AcDbLayout
  1
Model
 70
     1
 71
     0
 10
0.0
 20
0.0
 11
12.0
 21
9.0
 12
0.0
 22
0.0
 32
0.0
 14
-10.06095
 24
-11.71308
 34
0.0
 15
10.06095
 25
11.71284
 35
0.0
146
0.0
 13
0.0
 23
0.0
 33
0.0
 16
1.0
 26
0.0
 36
0.0
 17
0.0
 27
1.0
 37
0.0
 76
     0
330
1F
331
29
  0
MLINESTYLE
  5
18
102
{ACAD_REACTORS
330
17
102
}
330
17
100
AcDbMlineStyle
  2
Standard
 70
     0
  3

 62
   256
 51
90.0
 52
90.0
 71
     2
 49
0.5
 62
   256
  6
BYLAYER
 49
-0.5
 62
   256
  6
BYLAYER
  0
ACDBPLACEHOLDER
  5
F
102
{ACAD_REACTORS
330
E
102
}
330
E
  0
SCALE
  5
3C
102
{ACAD_REACTORS
330
3B
102
}
330
3B
100
AcDbScale
 70
     0
300
1:1
140
1.0
141
1.0
290
     1
  0
SCALE
  5
3D
102
{ACAD_REACTORS
330
3B
102
}
330
3B
100
AcDbScale
 70
     0
300
1:2
140
1.0
141
2.0
290
     0
  0
SCALE
  5
3E
102
{ACAD_REACTORS
330
3B
102
}
330
3B
100
AcDbScale
 70
     0
300
1:4
140
1.0
141
4.0
290
     0
  0
SCALE
  5
3F
102
{ACAD_REACTORS
330
3B
102
}
330
3B
100
AcDbScale
 70
     0
300
1:5
140
1.0
141
5.0
290
     0
  0
SCALE
  5
40
102
{ACAD_REACTORS
330
3B
102
}
330
3B
100
AcDbScale
 70
     0
300
1:8
140
1.0
141
8.0
290
     0
  0
SCALE
  5
41
102
{ACAD_REACTORS
330
3B
102
}
330
3B
100
AcDbScale
 70
     0
300
1:10
140
1.0
141
10.0
290
     0
  0
SCALE
  5
42
102
{ACAD_REACTORS
330
3B
102
}
330
3B
100
AcDbScale
 70
     0
300
1:16
140
1.0
141
16.0
290
     0
  0
SCALE
  5
43
102
{ACAD_REACTORS
330
3B
102
}
330
3B
100
AcDbScale
 70
     0
300
1:20
140
1.0
141
20.0
290
     0
  0
SCALE
  5
44
102
{ACAD_REACTORS
330
3B
102
}
330
3B
100
AcDbScale
 70
     0
300
1:30
140
1.0
141
30.0
290
     0
  0
SCALE
  5
45
102
{ACAD_REACTORS
330
3B
102
}
330
3B
100
AcDbScale
 70
     0
300
1:40
140
1.0
141
40.0
290
     0
  0
SCALE
  5
46
102
{ACAD_REACTORS
330
3B
102
}
330
3B
100
AcDbScale
 70
     0
300
1:50
140
1.0
141
50.0
290
     0
  0
SCALE
  5
47
102
{ACAD_REACTORS
330
3B
102
}
330
3B
100
AcDbScale
 70
     0
300
1:100
140
1.0
141
100.0
290
     0
  0
SCALE
  5
48
102
{ACAD_REACTORS
330
3B
102
}
330
3B
100
AcDbScale
 70
     0
300
2:1
140
2.0
141
1.0
290
     0
  0
SCALE
  5
49
102
{ACAD_REACTORS
330
3B
102
}
330
3B
100
AcDbScale
 70
     0
300
4:1
140
4.0
141
1.0
290
     0
  0
SCALE
  5
4A
102
{ACAD_REACTORS
330
3B
102
}
330
3B
100
AcDbScale
 70
     0
300
8:1
140
8.0
141
1.0
290
     0
  0
SCALE
  5
4B
102
{ACAD_REACTORS
330
3B
102
}
330
3B
100
AcDbScale
 70
     0
300
10:1
140
10.0
141
1.0
290
     0
  0
SCALE
  5
4C
102
{ACAD_REACTORS
330
3B
102
}
330
3B
100
AcDbScale
 70
     0
300
100:1
140
100.0
141
1.0
290
     0
  0
SCALE
  5
4D
102
{ACAD_REACTORS
330
3B
102
}
330
3B
100
AcDbScale
 70
     0
300
1/128" = 1'-0"
140
0.0078125
141
12.0
290
     0
  0
SCALE
  5
4E
102
{ACAD_REACTORS
330
3B
102
}
330
3B
100
AcDbScale
 70
     0
300
1/64" = 1'-0"
140
0.015625
141
12.0
290
     0
  0
SCALE
  5
4F
102
{ACAD_REACTORS
330
3B
102
}
330
3B
100
AcDbScale
 70
     0
300
1/32" = 1'-0"
140
0.03125
141
12.0
290
     0
  0
SCALE
  5
50
102
{ACAD_REACTORS
330
3B
102
}
330
3B
100
AcDbScale
 70
     0
300
1/16" = 1'-0"
140
0.0625
141
12.0
290
     0
  0
SCALE
  5
51
102
{ACAD_REACTORS
330
3B
102
}
330
3B
100
AcDbScale
 70
     0
300
3/32" = 1'-0"
140
0.09375
141
12.0
290
     0
  0
SCALE
  5
52
102
{ACAD_REACTORS
330
3B
102
}
330
3B
100
AcDbScale
 70
     0
300
1/8" = 1'-0"
140
0.125
141
12.0
290
     0
  0
SCALE
  5
53
102
{ACAD_REACTORS
330
3B
102
}
330
3B
100
AcDbScale
 70
     0
300
3/16" = 1'-0"
140
0.1875
141
12.0
290
     0
  0
SCALE
  5
54
102
{ACAD_REACTORS
330
3B
102
}
330
3B
100
AcDbScale
 70
     0
300
1/4" = 1'-0"
140
0.25
141
12.0
290
     0
  0
SCALE
  5
55
102
{ACAD_REACTORS
330
3B
102
}
330
3B
100
AcDbScale
 70
     0
300
3/8" = 1'-0"
140
0.375
141
12.0
290
     0
  0
SCALE
  5
56
102
{ACAD_REACTORS
330
3B
102
}
330
3B
100
AcDbScale
 70
     0
300
1/2" = 1'-0"
140
0.5
141
12.0
290
     0
  0
SCALE
  5
57
102
{ACAD_REACTORS
330
3B
102
}
330
3B
100
AcDbScale
 70
     0
300
3/4" = 1'-0"
140
0.75
141
12.0
290
     0
  0
SCALE
  5
58
102
{ACAD_REACTORS
330
3B
102
}
330
3B
100
AcDbScale
 70
     0
300
1" = 1'-0"
140
1.0
141
12.0
290
     0
  0
SCALE
  5
59
102
{ACAD_REACTORS
330
3B
102
}
330
3B
100
AcDbScale
 70
     0
300
1-1/2" = 1'-0"
140
1.5
141
12.0
290
     0
  0
SCALE
  5
5A
102
{ACAD_REACTORS
330
3B
102
}
330
3B
100
AcDbScale
 70
     0
300
3" = 1'-0"
140
3.0
141
12.0
290
     0
  0
SCALE
  5
5B
102
{ACAD_REACTORS
330
3B
102
}
330
3B
100
AcDbScale
 70
     0
300
6" = 1'-0"
140
6.0
141
12.0
290
     0
  0
SCALE
  5
5C
102
{ACAD_REACTORS
330
3B
102
}
330
3B
100
AcDbScale
 70
     0
300
1'-0" = 1'-0"
140
12.0
141
12.0
290
     0
  0
VISUALSTYLE
  5
2F
102
{ACAD_REACTORS
330
2A
102
}
330
2A
100
AcDbVisualStyle
  2
2dWireframe
 70
     4
 71
     0
 72
     2
 73
     0
 90
        0
 40
-0.6
 41
-30.0
 62
     5
 63
     7
421
 16777215
 74
     1
 91
        4
 64
     7
 65
   257
 75
     1
175
     1
 42
1.0
 92
        0
 66
   257
 43
1.0
 76
     1
 77
     6
 78
     2
 67
     7
 79
     5
170
     0
171
     0
290
     0
174
     0
 93
        1
 44
0.0
173
     0
291
     0
 45
0.0
  0
VISUALSTYLE
  5
31
102
{ACAD_REACTORS
330
2A
102
}
330
2A
100
AcDbVisualStyle
  2
3D Hidden
 70
     6
 71
     1
 72
     2
 73
     2
 90
        0
 40
-0.6
 41
-30.0
 62
     5
 63
     7
421
 16777215
 74
     2
 91
        2
 64
     7
 65
   257
 75
     2
175
     1
 42
40.0
 92
        0
 66
   257
 43
1.0
 76
     1
 77
     6
 78
     2
 67
     7
 79
     3
170
     0
171
     0
290
     0
174
     0
 93
        1
 44
0.0
173
     0
291
     0
 45
0.0
  0
VISUALSTYLE
  5
30
102
{ACAD_REACTORS
330
2A
102
}
330
2A
100
AcDbVisualStyle
  2
3dWireframe
 70
     5
 71
     0
 72
     2
 73
     0
 90
        0
 40
-0.6
 41
-30.0
 62
     5
 63
     7
421
 16777215
 74
     1
 91
        4
 64
     7
 65
   257
 75
     1
175
     1
 42
1.0
 92
        0
 66
   257
 43
1.0
 76
     1
 77
     6
 78
     2
 67
     7
 79
     5
170
     0
171
     0
290
     0
174
     0
 93
        1
 44
0.0
173
     0
291
     0
 45
0.0
  0
VISUALSTYLE
  5
32
102
{ACAD_REACTORS
330
2A
102
}
330
2A
100
AcDbVisualStyle
  2
Basic
 70
     7
 71
     1
 72
     0
 73
     1
 90
        0
 40
-0.6
 41
-30.0
 62
     5
 63
     7
421
 16777215
 74
     0
 91
        4
 64
     7
 65
   257
 75
     1
175
     1
 42
1.0
 92
        8
 66
     7
 43
1.0
 76
     1
 77
     6
 78
     2
 67
     7
 79
     5
170
     0
171
     0
290
     0
174
     0
 93
        1
 44
0.0
173
     0
291
     1
 45
0.0
  0
VISUALSTYLE
  5
36
102
{ACAD_REACTORS
330
2A
102
}
330
2A
100
AcDbVisualStyle
  2
Brighten
 70
    12
 71
     2
 72
     2
 73
     0
 90
        0
 40
-0.6
 41
-30.0
 62
     5
 63
     7
421
 16777215
 74
     1
 91
        4
 64
     7
 65
   257
 75
     1
175
     1
 42
1.0
 92
        8
 66
     7
 43
1.0
 76
     1
 77
     6
 78
     2
 67
     7
 79
     5
170
     0
171
     0
290
     0
174
     0
 93
        1
 44
50.0
173
     0
291
     1
 45
0.0
  0
VISUALSTYLE
  5
3A
102
{ACAD_REACTORS
330
2A
102
}
330
2A
100
AcDbVisualStyle
  2
ColorChange
 70
    16
 71
     2
 72
     2
 73
     3
 90
        0
 40
-0.6
 41
-30.0
 62
     5
 63
     8
421
  8421504
 74
     1
 91
        4
 64
     7
 65
   257
 75
     1
175
     1
 42
1.0
 92
        8
 66
     8
424
  8421504
 43
1.0
 76
     1
 77
     6
 78
     2
 67
     7
 79
     5
170
     0
171
     0
290
     0
174
     0
 93
        1
 44
0.0
173
     0
291
     1
 45
0.0
  0
VISUALSTYLE
  5
34
102
{ACAD_REACTORS
330
2A
102
}
330
2A
100
AcDbVisualStyle
  2
Conceptual
 70
     9
 71
     3
 72
     2
 73
     0
 90
        0
 40
-0.6
 41
-30.0
 62
     5
 63
     7
421
 16777215
 74
     2
 91
        2
 64
     7
 65
   257
 75
     1
175
     1
 42
40.0
 92
        8
 66
     7
 43
1.0
 76
     1
 77
     6
 78
     2
 67
     7
 79
     3
170
     0
171
     0
290
     0
174
     0
 93
        1
 44
0.0
173
     0
291
     0
 45
0.0
  0
VISUALSTYLE
  5
35
102
{ACAD_REACTORS
330
2A
102
}
330
2A
100
AcDbVisualStyle
  2
Dim
 70
    11
 71
     2
 72
     2
 73
     0
 90
        0
 40
-0.6
 41
-30.0
 62
     5
 63
     7
421
 16777215
 74
     1
 91
        4
 64
     7
 65
   257
 75
     1
175
     1
 42
1.0
 92
        8
 66
     7
 43
1.0
 76
     1
 77
     6
 78
     2
 67
     7
 79
     5
170
     0
171
     0
290
     0
174
     0
 93
        1
 44
-50.0
173
     0
291
     1
 45
0.0
  0
VISUALSTYLE
  5
39
102
{ACAD_REACTORS
330
2A
102
}
330
2A
100
AcDbVisualStyle
  2
Facepattern
 70
    15
 71
     2
 72
     2
 73
     0
 90
        0
 40
-0.6
 41
-30.0
 62
     5
 63
     7
421
 16777215
 74
     1
 91
        4
 64
     7
 65
   257
 75
     1
175
     1
 42
1.0
 92
        8
 66
     7
 43
1.0
 76
     1
 77
     6
 78
     2
 67
     7
 79
     5
170
     0
171
     0
290
     0
174
     0
 93
        1
 44
0.0
173
     0
291
     1
 45
0.0
  0
VISUALSTYLE
  5
2B
102
{ACAD_REACTORS
330
2A
102
}
330
2A
100
AcDbVisualStyle
  2
Flat
 70
     0
 71
     2
 72
     1
 73
     1
 90
        2
 40
-0.6
 41
30.0
 62
     5
 63
     7
421
 16777215
 74
     0
 91
        4
 64
     7
 65
   257
 75
     1
175
     1
 42
1.0
 92
        8
 66
     7
 43
1.0
 76
     1
 77
     6
 78
     2
 67
     7
 79
     5
170
     0
171
     0
290
     0
174
     0
 93
       13
 44
0.0
173
     0
291
     1
 45
0.0
  0
VISUALSTYLE
  5
2C
102
{ACAD_REACTORS
330
2A
102
}
330
2A
100
AcDbVisualStyle
  2
FlatWithEdges
 70
     1
 71
     2
 72
     1
 73
     1
 90
        2
 40
-0.6
 41
30.0
 62
     5
 63
     7
421
 16777215
 74
     1
 91
        4
 64
     7
 65
   257
 75
     1
175
     1
 42
1.0
 92
        0
 66
   257
 43
1.0
 76
     1
 77
     6
 78
     2
 67
     7
 79
     5
170
     0
171
     0
290
     0
174
     0
 93
       13
 44
0.0
173
     0
291
     1
 45
0.0
  0
VISUALSTYLE
  5
2D
102
{ACAD_REACTORS
330
2A
102
}
330
2A
100
AcDbVisualStyle
  2
Gouraud
 70
     2
 71
     2
 72
     2
 73
     1
 90
        2
 40
-0.6
 41
30.0
 62
     5
 63
     7
421
 16777215
 74
     0
 91
        4
 64
     7
 65
   257
 75
     1
175
     1
 42
1.0
 92
        0
 66
     7
 43
1.0
 76
     1
 77
     6
 78
     2
 67
     7
 79
     5
170
     0
171
     0
290
     0
174
     0
 93
       13
 44
0.0
173
     0
291
     1
 45
0.0
  0
VISUALSTYLE
  5
2E
102
{ACAD_REACTORS
330
2A
102
}
330
2A
100
AcDbVisualStyle
  2
GouraudWithEdges
 70
     3
 71
     2
 72
     2
 73
     1
 90
        2
 40
-0.6
 41
30.0
 62
     5
 63
     7
421
 16777215
 74
     1
 91
        4
 64
     7
 65
   257
 75
     1
175
     1
 42
1.0
 92
        0
 66
   257
 43
1.0
 76
     1
 77
     6
 78
     2
 67
     7
 79
     5
170
     0
171
     0
290
     0
174
     0
 93
       13
 44
0.0
173
     0
291
     1
 45
0.0
  0
VISUALSTYLE
  5
38
102
{ACAD_REACTORS
330
2A
102
}
330
2A
100
AcDbVisualStyle
  2
Linepattern
 70
    14
 71
     2
 72
     2
 73
     0
 90
        0
 40
-0.6
 41
-30.0
 62
     5
 63
     7
421
 16777215
 74
     1
 91
        4
 64
     7
 65
   257
 75
     7
175
     7
 42
1.0
 92
        8
 66
     7
 43
1.0
 76
     1
 77
     6
 78
     2
 67
     7
 79
     5
170
     0
171
     0
290
     0
174
     0
 93
        1
 44
0.0
173
     0
291
     1
 45
0.0
  0
VISUALSTYLE
  5
33
102
{ACAD_REACTORS
330
2A
102
}
330
2A
100
AcDbVisualStyle
  2
Realistic
 70
     8
 71
     2
 72
     2
 73
     0
 90
        0
 40
-0.6
 41
-30.0
 62
     5
 63
     7
421
 16777215
 74
     1
 91
        0
 64
     7
 65
   257
 75
     1
175
     1
 42
1.0
 92
        8
 66
     8
424
  7895160
 43
1.0
 76
     1
 77
     6
 78
     2
 67
     7
 79
     5
170
     0
171
     0
290
     0
174
     0
 93
       13
 44
0.0
173
     0
291
     0
 45
0.0
  0
VISUALSTYLE
  5
37
102
{ACAD_REACTORS
330
2A
102
}
330
2A
100
AcDbVisualStyle
  2
Thicken
 70
    13
 71
     2
 72
     2
 73
     0
 90
        0
 40
-0.6
 41
-30.0
 62
     5
 63
     7
421
 16777215
 74
     1
 91
        4
 64
     7
 65
   257
 75
     1
175
     1
 42
1.0
 92
       12
 66
     7
 43
1.0
 76
     1
 77
     6
 78
     2
 67
     7
 79
     5
170
     0
171
     0
290
     0
174
     0
 93
        1
 44
0.0
173
     0
291
     1
 45
0.0
  0
ENDSEC
  0
EOF
